<?xml version="1.0" standalone="no"?>
<!DOCTYPE svg PUBLIC "-//W3C//DTD SVG 1.1//EN" "http://www.w3.org/Graphics/SVG/1.1/DTD/svg11.dtd" >
<svg xmlns="http://www.w3.org/2000/svg">
<metadata>
Created by FontPrep 20130207 at Wed Sep 10 20:28:15 2014
 By Maxim Mart
Copyright (c) Mark Simonson, 2005. All rights reserved.
</metadata>
<defs>
<font id="2c1459d58560f08b4b0586fbe80aa4cd" horiz-adv-x='1024' >
  <font-face 
    font-family="ProximaNova-Regular"
    font-weight="400"
    font-stretch="normal"
    units-per-em="2048"
    panose-1="2 0 5 6 3 0 0 2 0 4"
    ascent="1618"
    descent="-430"
    x-height="989"
    cap-height="1366"
    bbox="-352 -557 2216 1858"
    underline-thickness="40"
    underline-position="-231"
    unicode-range="U+000D-FB04"
  />
<missing-glyph horiz-adv-x="1038" 
d="M813 -123v1602h-590v-1602h590zM879 -184h-719v1724h719v-1724z" />
    <glyph glyph-name="f_f_j" unicode="ffj" horiz-adv-x="1622" 
d="M350 0h-153v854h-164v135h164v76q0 152 76 237q77 84 207 84t212 -75l-63 -101q-55 50 -127 50t-112 -50t-40 -145v-76h201v-135h-201v-854zM1185 -401q-132 0 -227 73l56 117q63 -63 139 -63t119 44t43 134v1085h153v-1085q0 -145 -75 -226q-76 -79 -208 -79zM1495 1233
q-1 -43 -31 -73t-72 -30t-73 30t-31 73t31 74t73 31t72 -32q30 -30 31 -73zM930 0h-154v854h-164v135h164v76q0 152 78 237t209 84q94 0 149 -34l-38 -117q-39 25 -102 25q-62 0 -102 -50t-40 -145v-76h200v-135h-200v-854z" />
    <glyph glyph-name="f_j" unicode="fj" horiz-adv-x="1042" 
d="M887 -96q0 -145 -76 -225t-208 -80t-226 73l55 117q63 -63 139 -63t119 44t43 134v1085h154v-1085zM810 1130q-42 0 -73 30t-30 73q0 43 30 74q31 31 73 31t73 -32q31 -30 31 -73t-32 -73q-30 -30 -72 -30zM350 0h-153v854h-164v135h164v76q0 152 77 237q78 85 209 84
q94 0 150 -34l-39 -117q-40 25 -102 25t-102 -50t-40 -145v-76h201v-135h-201v-854z" />
    <glyph glyph-name="f_f" unicode="ff" horiz-adv-x="1161" 
d="M930 0h-154v854h-164v135h164v76q0 152 77 237q77 84 207 84t212 -75l-64 -101q-55 50 -127 50q-71 0 -111 -50t-40 -145v-76h200v-135h-200v-854zM350 0h-153v854h-164v135h164v76q0 152 76 237q77 84 207 84t212 -75l-63 -101q-55 50 -127 50t-112 -50t-40 -145v-76
h201v-135h-201v-854z" />
    <glyph glyph-name="fi" unicode="fi" horiz-adv-x="1042" 
d="M887 0h-154v989h154v-989zM810 1130q-42 0 -73 30t-30 73q0 43 30 74q31 31 73 31t73 -32q31 -30 31 -73t-32 -73q-30 -30 -72 -30zM350 0h-153v854h-164v135h164v76q0 152 77 237q78 85 209 84q94 0 150 -34l-39 -117q-40 25 -102 25t-102 -50t-40 -145v-76h201v-135
h-201v-854z" />
    <glyph glyph-name="fl" unicode="fl" horiz-adv-x="1042" 
d="M887 0h-154v1366h154v-1366zM350 0h-153v854h-164v135h164v76q0 152 77 237q78 85 209 84q94 0 150 -34l-39 -117q-40 25 -102 25t-102 -50t-40 -145v-76h201v-135h-201v-854z" />
    <glyph glyph-name="f_f_i" unicode="ffi" horiz-adv-x="1622" 
d="M350 0h-153v854h-164v135h164v76q0 152 76 237q77 84 207 84t212 -75l-63 -101q-55 50 -127 50t-112 -50t-40 -145v-76h201v-135h-201v-854zM1468 0h-153v989h153v-989zM1495 1233q-1 -43 -31 -73t-72 -30t-73 30t-31 73t31 74t73 31t72 -32q30 -30 31 -73zM930 0h-154
v854h-164v135h164v76q0 152 78 237t209 84q94 0 149 -34l-38 -117q-39 25 -102 25q-62 0 -102 -50t-40 -145v-76h200v-135h-200v-854z" />
    <glyph glyph-name="f_f_l" unicode="ffl" horiz-adv-x="1622" 
d="M350 0h-153v854h-164v135h164v76q0 152 76 237q77 84 207 84t212 -75l-63 -101q-55 50 -127 50t-112 -50t-40 -145v-76h201v-135h-201v-854zM1468 0h-153v1366h153v-1366zM930 0h-154v854h-164v135h164v76q0 152 78 237t209 84q94 0 149 -34l-38 -117q-39 25 -102 25
q-62 0 -102 -50t-40 -145v-76h200v-135h-200v-854z" />
    <glyph glyph-name="f_b" unicode="fb" horiz-adv-x="1757" 
d="M887 0h-154v1366h154v-526q129 174 329 174t322 -142t123 -380q0 -236 -122 -376q-121 -140 -323 -140t-329 171v-147zM1182 113q147 0 233 106q86 107 86 275t-86 276t-233 107q-88 -1 -171 -47t-124 -113v-449q41 -66 124 -110t171 -45zM350 0h-153v854h-164v135h164
v76q0 152 77 237q78 85 209 84q94 0 150 -34l-39 -117q-40 25 -102 25t-102 -50t-40 -145v-76h201v-135h-201v-854z" />
    <glyph glyph-name="f_h" unicode="fh" horiz-adv-x="1710" 
d="M1556 0h-153v651q-1 223 -211 225q-96 0 -177 -44q-81 -46 -128 -109v-723h-154v1366h154v-520q57 68 153 118t201 50q315 0 315 -316v-698zM350 0h-153v854h-164v135h164v76q0 152 77 237q78 85 209 84q94 0 150 -34l-39 -117q-40 25 -102 25t-102 -50t-40 -145v-76h201
v-135h-201v-854z" />
    <glyph glyph-name="f_k" unicode="fk" horiz-adv-x="1634" 
d="M887 0h-154v1366h154v-903l520 526h195l-439 -448l441 -541h-197l-356 444l-164 -161v-283zM350 0h-153v854h-164v135h164v76q0 152 77 237q78 85 209 84q94 0 150 -34l-39 -117q-40 25 -102 25t-102 -50t-40 -145v-76h201v-135h-201v-854z" />
    <glyph glyph-name=".notdef" horiz-adv-x="1038" 
d="M813 -123v1602h-590v-1602h590zM879 -184h-719v1724h719v-1724z" />
    <glyph glyph-name=".null" horiz-adv-x="0" 
 />
    <glyph glyph-name=".null" horiz-adv-x="0" 
 />
    <glyph glyph-name="nonmarkingreturn" horiz-adv-x="681" 
 />
    <glyph glyph-name="CR" unicode="&#xd;" horiz-adv-x="0" 
 />
    <glyph glyph-name="space" unicode=" " horiz-adv-x="528" 
 />
    <glyph glyph-name="exclam" unicode="!" horiz-adv-x="471" 
d="M236 -20q-45 0 -79 34t-34 79q0 46 33 79t80 33q48 0 80 -33t32 -79q0 -45 -34 -79t-78 -34zM299 383h-127l-33 983h193z" />
    <glyph glyph-name="quotedbl" unicode="&#x22;" horiz-adv-x="702" 
d="M408 1298q0 34 27 61q28 27 67 27q40 0 66 -28t26 -66l-55 -448h-76q-55 420 -55 454zM111 1298q0 34 26 61q27 27 66 27t67 -28t27 -66l-55 -448h-76q-55 420 -55 454z" />
    <glyph glyph-name="numbersign" unicode="#" horiz-adv-x="1208" 
d="M649 479l135 408h-225l-135 -408h225zM614 0h-125l125 371h-227l-123 -371h-127l125 371h-217l35 108h219l135 408h-221l33 106h225l123 373h127l-123 -373h225l123 373h125l-125 -373h219l-30 -106h-224l-137 -408h227l-32 -108h-232z" />
    <glyph glyph-name="dollar" unicode="$" horiz-adv-x="1214" 
d="M305 1024q-1 -84 63 -128t187 -81v418q-111 -9 -181 -67t-69 -142zM938 366q0 88 -67 140t-191 88v-465q134 13 196 81t62 156zM555 -205v182q-295 16 -469 216l100 129q150 -168 369 -193v500q-245 63 -336 152q-90 89 -90 237t119 252t307 114v189h125v-191
q248 -25 403 -186l-102 -125q-121 129 -301 156v-445q96 -26 160 -52q184 -74 239 -188q35 -71 35 -165q0 -155 -106 -269t-328 -131v-182h-125z" />
    <glyph glyph-name="percent" unicode="%" horiz-adv-x="1497" 
d="M1104 78q90 0 149 66t59 167q0 100 -58 167t-150 67t-150 -67t-57 -167q0 -100 58 -167q59 -66 149 -66zM391 815q90 0 150 67q59 67 59 167q0 101 -58 167t-150 66t-148 -67q-58 -67 -58 -167t58 -166q58 -67 147 -67zM1104 -25q-144 -1 -236 95t-92 240t92 242t236 97
q144 0 237 -97q93 -98 93 -242t-92 -240t-238 -95zM373 0h-111l873 1366h112zM391 713q-145 0 -236 95q-91 96 -91 240t92 241t236 97t238 -97t93 -241q0 -144 -93 -240q-94 -95 -239 -95z" />
    <glyph glyph-name="ampersand" unicode="&#x26;" horiz-adv-x="1312" 
d="M616 1266q-76 0 -130 -56q-56 -56 -56 -148q0 -91 82 -231q133 66 202 127q68 60 68 144t-45 124t-121 40zM240 354q0 -110 80 -181t194 -71q152 0 287 136q-228 238 -361 424q-96 -59 -148 -128q-52 -70 -52 -180zM500 -25q-186 -1 -306 99t-120 282q0 146 80 238
t221 168q-205 351 -5 533q99 91 240 91t228 -70q86 -71 86 -208t-113 -228q-59 -48 -103 -75t-133 -72q66 -90 158 -194q74 -88 162 -183q90 133 147 312l134 -58q-100 -233 -187 -352q102 -106 266 -258h-213q-61 53 -149 143q-168 -168 -393 -168z" />
    <glyph glyph-name="quotesingle" unicode="'" horiz-adv-x="407" 
d="M111 1298q0 34 26 61q27 27 66 27t67 -28t27 -66l-55 -448h-76q-55 420 -55 454z" />
    <glyph glyph-name="parenleft" unicode="(" horiz-adv-x="507" 
d="M90 496q0 510 289 907l92 -70q-109 -215 -161 -405t-52 -430t52 -432t161 -402l-92 -72q-289 394 -289 904z" />
    <glyph glyph-name="parenright" unicode=")" horiz-adv-x="507" 
d="M250 499q0 241 -53 431t-162 403l92 70q291 -395 291 -907t-291 -904l-92 72q109 210 162 402t53 433z" />
    <glyph glyph-name="asterisk" unicode="*" horiz-adv-x="696" 
d="M395 797h-94l10 235l-196 -129l-45 82l209 107l-209 106l45 80l196 -127l-10 235h94l-12 -235l197 127l47 -80l-209 -106l209 -107l-47 -82l-197 129z" />
    <glyph glyph-name="plus" unicode="+" horiz-adv-x="1021" 
d="M963 637h-394v-436h-116v436h-394v106h394v424h116v-424h394v-106z" />
    <glyph glyph-name="comma" unicode="," horiz-adv-x="471" 
d="M236 205q48 0 86 -42t38 -123t-47 -164t-120 -136l-76 63q51 33 89 87t44 104q-8 -4 -40 -4t-60 30t-27 74q0 45 32 78q33 33 81 33z" />
    <glyph glyph-name="hyphen" unicode="-" horiz-adv-x="614" 
d="M553 428h-492v135h492v-135z" />
    <glyph glyph-name="period" unicode="." horiz-adv-x="471" 
d="M236 -20q-47 0 -80 32t-33 80q0 47 33 80t80 33q48 0 80 -33t32 -80q0 -48 -32 -80t-80 -32z" />
    <glyph glyph-name="slash" unicode="/" horiz-adv-x="606" 
d="M121 -41h-121l485 1448h121z" />
    <glyph glyph-name="zero" unicode="0" horiz-adv-x="1253" 
d="M627 127q123 0 205 85t112 204q31 119 31 266t-31 266t-113 203q-83 84 -205 84t-204 -84q-145 -149 -143 -469q1 -147 31 -266t112 -204t205 -85zM626 -25q-134 1 -238 63t-164 166t-90 226q-30 121 -30 252t30 252q69 278 254 390q104 62 238 62t238 -62t164 -166
t91 -224q30 -121 30 -252t-30 -252t-90 -225q-61 -104 -165 -167t-238 -63z" />
    <glyph glyph-name="one" unicode="1" horiz-adv-x="694" 
d="M535 0h-170v1141l-220 -232l-102 105l342 352h150v-1366z" />
    <glyph glyph-name="two" unicode="2" horiz-adv-x="1204" 
d="M109 1171q164 215 495 215q166 0 302 -104t136 -296t-163 -381q-164 -189 -500 -453h670v-152h-938v135q213 168 331 267q303 256 381 410q45 87 45 173q0 123 -84 186t-200 64q-236 0 -371 -172z" />
    <glyph glyph-name="three" unicode="3" horiz-adv-x="1140" 
d="M545 -25q-164 -1 -291 63t-195 163l101 106q62 -82 162 -131t234 -49t220 69q84 70 84 190t-91 179t-231 59t-159 -1v155q23 -2 151 -2t218 56t90 168q0 110 -87 172t-219 63q-207 0 -360 -166l-94 107q174 211 467 210q203 0 333 -97t130 -267q0 -135 -90 -216
t-205 -101q113 -11 214 -99t101 -250t-131 -271q-131 -110 -352 -110z" />
    <glyph glyph-name="four" unicode="4" horiz-adv-x="1142" 
d="M715 496v712l-479 -712h479zM885 0h-170v346h-649v141l585 879h234v-870h192v-150h-192v-346z" />
    <glyph glyph-name="five" unicode="5" horiz-adv-x="1208" 
d="M616 -25q-315 0 -481 220l105 112q141 -180 376 -180q139 0 228 84q88 84 88 213t-87 210t-227 81q-184 0 -315 -129l-125 43v737h836v-152h-666v-475q124 123 312 123t315 -118t127 -320t-138 -326q-138 -123 -348 -123z" />
    <glyph glyph-name="six" unicode="6" horiz-adv-x="1210" 
d="M618 127q154 0 237 89t83 216t-88 203t-208 76q-120 -1 -212 -57t-149 -148q14 -152 98 -266q85 -114 239 -113zM631 -25q-137 -1 -241 57q-189 104 -256 381q-30 124 -30 292q0 167 58 323t185 257q128 101 312 101q236 0 379 -163l-86 -127q-119 139 -293 139
q-127 0 -216 -80q-169 -152 -169 -457q0 -35 2 -53q51 82 159 148t229 65q194 0 320 -114t126 -311t-131 -327t-348 -131z" />
    <glyph glyph-name="seven" unicode="7" horiz-adv-x="1054" 
d="M63 1214v152h932v-117l-559 -1249h-188l551 1214h-736z" />
    <glyph glyph-name="eight" unicode="8" horiz-adv-x="1189" 
d="M276 353q0 -94 94 -160t225 -66q132 0 225 66t93 160t-64 156q-109 104 -253 120q-144 -16 -254 -120q-66 -62 -66 -156zM595 1235q-128 0 -212 -61t-84 -164q0 -178 297 -236q76 11 154 49q143 70 143 180q0 109 -85 171t-213 61zM596 -25q-209 1 -349 101t-141 270
q0 129 94 223t232 136q-131 37 -217 119t-86 208q0 172 139 263q140 91 328 91t328 -91t141 -263q0 -125 -86 -208t-219 -119q139 -41 232 -135t93 -224q0 -168 -140 -270t-349 -101z" />
    <glyph glyph-name="nine" unicode="9" horiz-adv-x="1210" 
d="M594 1237q-154 0 -238 -90t-84 -216t88 -202t208 -76q120 -1 213 55t147 148q-12 152 -96 266t-238 115zM551 -23q-236 0 -379 164l86 127q119 -139 293 -139q131 0 221 82q164 149 164 453q0 37 -2 55q-52 -82 -158 -148t-227 -65q-195 0 -322 114t-127 310t131 327
t347 132q139 1 243 -57q188 -104 255 -382q30 -123 30 -292q0 -170 -57 -324t-185 -256t-313 -101z" />
    <glyph glyph-name="colon" unicode=":" horiz-adv-x="471" 
d="M236 -20q-47 0 -80 32t-33 80q0 47 33 80t80 33q48 0 80 -33t32 -80q0 -48 -32 -80t-80 -32zM236 778q-47 0 -80 33t-33 80t33 80t80 33q48 0 80 -33t32 -80t-32 -80t-80 -33z" />
    <glyph glyph-name="semicolon" unicode=";" horiz-adv-x="471" 
d="M236 209q48 0 86 -42t38 -124t-47 -165t-120 -134l-76 61q49 33 88 89t45 104q-12 -6 -42 -6t-58 30t-27 76q0 46 32 78q33 33 81 33zM236 778q-45 0 -79 34t-34 80t33 79t80 33q48 0 80 -33t32 -79t-34 -80t-78 -34z" />
    <glyph glyph-name="less" unicode="&#x3c;" horiz-adv-x="1021" 
d="M963 184l-904 447v108l904 449v-129l-773 -375l773 -373v-127z" />
    <glyph glyph-name="equal" unicode="=" horiz-adv-x="1021" 
d="M963 432h-904v107h904v-107zM963 827h-904v109h904v-109z" />
    <glyph glyph-name="greater" unicode="&#x3e;" horiz-adv-x="1021" 
d="M963 631l-904 -447v127l770 373l-770 375v129l904 -449v-108z" />
    <glyph glyph-name="question" unicode="?" horiz-adv-x="946" 
d="M459 -20q-45 0 -79 32t-34 80q0 47 34 80t79 33t79 -33t34 -80t-34 -80q-34 -32 -79 -32zM707 1038q-1 88 -63 142t-179 55q-199 0 -326 -168l-102 111q162 209 444 208q182 0 292 -91t110 -226q-1 -104 -63 -185t-136 -124q-74 -42 -136 -102t-62 -122t55 -104l-125 -53
q-80 68 -80 175t96 187q41 33 89 69t89 67q97 73 97 161z" />
    <glyph glyph-name="at" unicode="@" horiz-adv-x="1603" 
d="M705 289q178 0 305 184l59 283q-21 59 -75 105t-136 46q-150 0 -256 -120t-106 -271q0 -100 56 -164q57 -63 153 -63zM721 -143q-279 0 -464 185t-185 458q0 328 244 568t569 239q285 1 465 -187t180 -463q0 -227 -106 -355t-248 -128q-82 0 -133 48q-50 48 -54 118
l-2 12q-55 -78 -142 -128t-181 -50q-141 0 -228 92q-86 92 -86 242q0 210 148 362t333 152q94 0 163 -45t100 -115l26 127h140l-117 -555q-4 -26 -4 -60q-1 -34 27 -62t69 -27q77 0 149 92t72 280q0 254 -161 417t-418 163q-295 0 -515 -222t-221 -511q0 -248 167 -414
t421 -166q199 0 381 115l37 -53q-201 -129 -426 -129z" />
    <glyph glyph-name="A" unicode="A" horiz-adv-x="1347" 
d="M963 455l-289 735l-291 -735h580zM1329 0h-194l-121 303h-680l-121 -303h-195l549 1366h211z" />
    <glyph glyph-name="B" unicode="B" horiz-adv-x="1288" 
d="M748 152q118 0 186 63t68 167t-67 173q-67 68 -187 68h-418v-471h418zM739 774q113 0 174 62t62 157q-1 97 -63 159t-173 62h-409v-440h409zM782 0h-622v1366h608q176 0 280 -96t103 -236q0 -140 -70 -224q-70 -85 -170 -105q109 -17 188 -115t79 -221q0 -165 -106 -267
t-290 -102z" />
    <glyph glyph-name="C" unicode="C" horiz-adv-x="1384" 
d="M818 -25q-310 0 -512 198t-202 509t202 509t501 198q328 0 518 -271l-143 -80q-60 88 -160 144t-215 55q-225 0 -376 -157q-151 -156 -151 -398t152 -398q150 -156 375 -157q115 0 215 54t160 145l145 -80q-199 -271 -509 -271z" />
    <glyph glyph-name="D" unicode="D" horiz-adv-x="1433" 
d="M627 152q242 0 383 152t141 379q0 228 -139 380t-385 151h-297v-1062h297zM627 0h-467v1366h467q313 0 507 -195t194 -491t-194 -488t-507 -192z" />
    <glyph glyph-name="E" unicode="E" horiz-adv-x="1165" 
d="M1055 0h-895v1366h895v-152h-725v-440h710v-151h-710v-471h725v-152z" />
    <glyph glyph-name="F" unicode="F" horiz-adv-x="1126" 
d="M330 0h-170v1366h895v-152h-725v-440h710v-151h-710v-623z" />
    <glyph glyph-name="G" unicode="G" horiz-adv-x="1460" 
d="M822 -27q-312 0 -515 198t-203 511t203 510t513 197t517 -256l-135 -84q-66 86 -171 137t-224 51q-225 0 -376 -157q-151 -156 -151 -398t152 -400q150 -158 375 -157q113 0 210 44t157 103v279h-469v151h638v-493q-209 -236 -521 -236z" />
    <glyph glyph-name="H" unicode="H" horiz-adv-x="1458" 
d="M1298 0h-170v627h-798v-627h-170v1366h170v-588h798v588h170v-1366z" />
    <glyph glyph-name="I" unicode="I" horiz-adv-x="489" 
d="M330 0h-170v1366h170v-1366z" />
    <glyph glyph-name="J" unicode="J" horiz-adv-x="972" 
d="M813 412q-1 -213 -121 -325t-327 -112t-342 158l88 129q113 -135 248 -135t209 79t75 208v952h170v-954z" />
    <glyph glyph-name="K" unicode="K" horiz-adv-x="1230" 
d="M330 0h-170v1366h170v-707l604 707h213l-569 -649l618 -717h-211l-518 614l-137 -155v-459z" />
    <glyph glyph-name="L" unicode="L" horiz-adv-x="1044" 
d="M965 0h-805v1366h170v-1214h635v-152z" />
    <glyph glyph-name="M" unicode="M" horiz-adv-x="1656" 
d="M1497 0h-170v1124l-465 -1124h-69l-463 1124v-1124h-170v1366h243l424 -1028l426 1028h244v-1366z" />
    <glyph glyph-name="N" unicode="N" horiz-adv-x="1449" 
d="M1290 0h-164l-796 1090v-1090h-170v1366h174l786 -1067v1067h170v-1366z" />
    <glyph glyph-name="O" unicode="O" horiz-adv-x="1566" 
d="M281 682q0 -242 137 -398t363 -157q226 0 365 157q138 158 138 400t-138 398t-364 155q-226 0 -364 -156q-137 -157 -137 -399zM1460 682q0 -305 -190 -506t-489 -201q-300 0 -488 201t-189 506q0 305 188 506t489 201q299 0 489 -201t190 -506z" />
    <glyph glyph-name="P" unicode="P" horiz-adv-x="1202" 
d="M688 694q121 0 197 73t76 187t-76 188q-76 73 -197 72h-358v-520h358zM330 0h-170v1366h549q199 0 313 -119t115 -293q0 -174 -116 -292t-312 -119h-379v-543z" />
    <glyph glyph-name="Q" unicode="Q" horiz-adv-x="1566" 
d="M782 127q145 0 260 70l-194 211l119 100l192 -209q125 155 125 391t-138 392t-364 155q-226 0 -364 -156q-137 -157 -137 -399t137 -398t364 -157zM782 -25q-301 0 -489 201t-189 506q0 305 188 506t489 201q299 0 489 -201t190 -506t-188 -504l131 -139l-119 -102
l-133 141q-160 -103 -369 -103z" />
    <glyph glyph-name="R" unicode="R" horiz-adv-x="1245" 
d="M688 692q121 0 197 74t76 188t-76 188q-76 73 -197 72h-358v-522h358zM330 543v-543h-170v1366h549q190 0 309 -113t119 -294q-1 -181 -103 -285t-252 -117l369 -557h-201l-348 543h-272z" />
    <glyph glyph-name="S" unicode="S" horiz-adv-x="1200" 
d="M602 -25q-332 0 -524 218l100 129q174 -195 430 -195q166 0 244 71q78 72 78 154t-45 131t-116 77t-226 68t-244 89q-178 99 -178 279t133 285t336 105q305 0 485 -190l-102 -125q-150 164 -395 164q-123 0 -202 -60q-79 -61 -79 -145t60 -131q59 -47 149 -70
q221 -57 390 -128q89 -38 150 -121q60 -84 60 -203q0 -168 -124 -285t-380 -117z" />
    <glyph glyph-name="T" unicode="T" horiz-adv-x="1167" 
d="M668 0h-170v1214h-432v152h1036v-152h-434v-1214z" />
    <glyph glyph-name="U" unicode="U" horiz-adv-x="1433" 
d="M717 -25q-273 1 -415 149t-142 406v836h170v-831q0 -190 100 -299t286 -109t288 109q100 109 100 299v831h170v-834q0 -260 -142 -408t-415 -149z" />
    <glyph glyph-name="V" unicode="V" horiz-adv-x="1347" 
d="M778 0h-211l-549 1366h195l461 -1180l461 1180h194z" />
    <glyph glyph-name="W" unicode="W" horiz-adv-x="1808" 
d="M1389 0h-185l-301 1102l-301 -1102h-184l-389 1366h188l303 -1139l314 1139h141l313 -1139l301 1139h189z" />
    <glyph glyph-name="X" unicode="X" horiz-adv-x="1335" 
d="M1309 0h-205l-436 582l-437 -582h-206l532 700l-502 666h207l406 -547l403 547h207l-500 -664z" />
    <glyph glyph-name="Y" unicode="Y" horiz-adv-x="1282" 
d="M727 0h-170v578l-539 788h199l424 -635l424 635h199l-537 -788v-578z" />
    <glyph glyph-name="Z" unicode="Z" horiz-adv-x="1198" 
d="M1098 0h-1000v141l768 1073h-768v152h985v-141l-768 -1073h783v-152z" />
    <glyph glyph-name="bracketleft" unicode="[" horiz-adv-x="497" 
d="M463 -389h-381v1778h381v-113h-262v-1552h262v-113z" />
    <glyph glyph-name="backslash" unicode="\" horiz-adv-x="606" 
d="M485 -41l-485 1448h121l485 -1448h-121z" />
    <glyph glyph-name="bracketright" unicode="]" horiz-adv-x="497" 
d="M416 -389h-381v113h262v1552h-262v113h381v-1778z" />
    <glyph glyph-name="asciicircum" unicode="^" horiz-adv-x="884" 
d="M846 682h-127l-277 571l-276 -571h-127l346 684h117z" />
    <glyph glyph-name="underscore" unicode="_" horiz-adv-x="1155" 
d="M1161 -195h-1167v113h1167v-113z" />
    <glyph glyph-name="grave" unicode="`" horiz-adv-x="462" 
d="M463 1139h-117l-346 295h160z" />
    <glyph glyph-name="a" unicode="a" horiz-adv-x="1079" 
d="M500 86q184 0 272 123v186q-88 123 -272 123q-106 0 -175 -60t-69 -156t69 -156t175 -60zM926 0h-154v113q-125 -137 -328 -138q-137 0 -241 88q-105 88 -105 242t104 239t242 85q211 0 328 -135v178q0 98 -70 153t-180 56q-174 0 -303 -138l-72 107q158 164 396 164
q170 0 276 -82t107 -252v-680z" />
    <glyph glyph-name="b" unicode="b" horiz-adv-x="1177" 
d="M307 0h-153v1366h153v-526q129 174 329 174t322 -142t123 -380q0 -236 -122 -376q-121 -140 -323 -140t-329 171v-147zM602 113q147 0 234 106q86 107 86 275t-86 276t-234 107q-88 -1 -171 -47t-124 -113v-449q41 -66 124 -110t171 -45z" />
    <glyph glyph-name="c" unicode="c" horiz-adv-x="1013" 
d="M595 -25q-223 1 -361 149t-138 372t137 370q137 148 361 148t358 -172l-102 -94q-94 129 -251 129q-157 -1 -250 -107t-93 -274t93 -276t249 -108t252 130l102 -95q-133 -172 -357 -172z" />
    <glyph glyph-name="d" unicode="d" horiz-adv-x="1177" 
d="M573 113q90 0 172 45t125 110v449q-43 67 -126 113t-171 47q-145 0 -231 -108q-86 -107 -86 -275t86 -274t231 -107zM1024 0h-154v147q-126 -172 -328 -172q-202 1 -324 141t-122 377t122 379t323 142t329 -174v526h154v-1366z" />
    <glyph glyph-name="e" unicode="e" horiz-adv-x="1153" 
d="M907 557q-2 127 -86 228t-235 101q-150 0 -236 -100t-92 -229h649zM610 -25q-232 1 -372 145q-142 144 -142 368t140 376q140 150 353 150q214 0 342 -151t128 -380v-39h-801q10 -145 106 -243q96 -99 266 -99q168 0 290 125l73 -100q-151 -152 -383 -152z" />
    <glyph glyph-name="f" unicode="f" horiz-adv-x="579" 
d="M350 0h-153v854h-164v135h164v76q0 152 76 237q77 84 207 84t212 -75l-63 -101q-55 50 -127 50t-112 -50t-40 -145v-76h201v-135h-201v-854z" />
    <glyph glyph-name="g" unicode="g" horiz-adv-x="1175" 
d="M573 123q88 0 171 47t124 115v432q-41 67 -123 113t-172 47q-147 -1 -232 -105t-85 -271t86 -273t231 -105zM551 -401q-131 -1 -223 31t-176 116l77 115q113 -135 322 -135q137 0 227 72t90 225v141q-55 -78 -143 -127t-188 -49q-197 0 -319 138t-122 374t122 374
t322 140q200 0 328 -174v149h154v-960q0 -227 -133 -329t-338 -101z" />
    <glyph glyph-name="h" unicode="h" horiz-adv-x="1130" 
d="M977 0h-154v651q-1 223 -211 225q-96 0 -177 -44q-81 -46 -128 -109v-723h-153v1366h153v-520q57 68 153 118t202 50q315 0 315 -316v-698z" />
    <glyph glyph-name="i" unicode="i" horiz-adv-x="460" 
d="M307 0h-153v989h153v-989zM230 1130q-42 0 -72 30t-31 73q0 43 31 74q30 31 72 31t73 -32q31 -30 31 -73t-31 -73t-73 -30z" />
    <glyph glyph-name="j" unicode="j" horiz-adv-x="460" 
d="M307 -96q0 -145 -76 -225t-207 -80t-227 73l56 117q63 -63 139 -63t119 44t43 134v1085h153v-1085zM230 1130q-42 0 -72 30t-31 73q0 43 31 74q30 31 72 31t73 -32q31 -30 31 -73t-31 -73t-73 -30z" />
    <glyph glyph-name="k" unicode="k" horiz-adv-x="1052" 
d="M307 0h-153v1366h153v-903l520 526h195l-438 -448l440 -541h-197l-356 444l-164 -161v-283z" />
    <glyph glyph-name="l" unicode="l" horiz-adv-x="460" 
d="M307 0h-153v1366h153v-1366z" />
    <glyph glyph-name="m" unicode="m" horiz-adv-x="1654" 
d="M1501 0h-153v672q0 205 -183 205q-73 1 -147 -45t-115 -107v-725h-153v672q0 205 -183 205q-73 1 -145 -45t-115 -109v-723h-153v989h153v-143q37 57 129 112q92 56 196 56t172 -51t89 -134q45 74 137 129t195 56q276 0 276 -299v-715z" />
    <glyph glyph-name="n" unicode="n" horiz-adv-x="1128" 
d="M975 0h-154v647q-1 227 -211 229q-96 0 -177 -44q-81 -46 -126 -109v-723h-153v989h153v-143q57 68 153 118t199 50q315 0 316 -320v-694z" />
    <glyph glyph-name="o" unicode="o" 
d="M586 113q152 -1 240 111t87 272q0 160 -88 270q-87 110 -239 111q-152 0 -241 -112q-89 -113 -89 -271t89 -270t241 -111zM586 -25q-221 0 -356 150q-134 150 -134 371t134 369q134 149 356 149t355 -148q134 -148 134 -370q0 -221 -134 -371t-355 -150z" />
    <glyph glyph-name="p" unicode="p" 
d="M602 113q145 0 232 107q86 108 86 276t-86 274t-232 107q-88 -1 -171 -47t-124 -111v-447q41 -68 124 -114t171 -45zM641 1014q197 0 319 -140t121 -378q1 -238 -121 -380t-325 -141q-203 0 -328 175v-527h-153v1366h153v-147q55 78 143 125t191 47z" />
    <glyph glyph-name="q" unicode="q" 
d="M535 -25q-201 -1 -323 141t-122 380t122 378t318 140q102 0 190 -47t142 -125v147h154v-1366h-154v527q-125 -175 -327 -175zM567 113q90 0 173 46t122 113v447q-39 65 -122 111t-173 47q-145 -1 -230 -107t-85 -274t85 -276t230 -107z" />
    <glyph glyph-name="r" unicode="r" horiz-adv-x="675" 
d="M307 0h-153v989h153v-160q137 180 330 181v-158q-29 6 -81 6t-132 -49q-82 -49 -117 -109v-700z" />
    <glyph glyph-name="s" unicode="s" horiz-adv-x="952" 
d="M467 -25q-252 0 -399 156l79 111q51 -58 141 -100t192 -42q104 0 165 47t61 118t-62 109q-64 38 -154 57t-179 45q-90 26 -153 88q-64 62 -64 174t100 194t269 82q223 0 366 -144l-71 -106q-104 125 -295 125q-99 0 -159 -44q-60 -43 -60 -107t63 -98t153 -53t179 -46
t153 -94t64 -185t-102 -203q-102 -84 -287 -84z" />
    <glyph glyph-name="t" unicode="t" horiz-adv-x="602" 
d="M338 240q0 -128 110 -128q58 0 95 42l45 -115q-68 -64 -181 -64q-221 0 -223 232v647h-164v135h164v271h154v-271h201v-135h-201v-614z" />
    <glyph glyph-name="u" unicode="u" horiz-adv-x="1128" 
d="M307 338q0 -225 210 -225q97 0 178 43t126 106v727h154v-989h-154v139q-61 -71 -154 -117t-198 -47q-315 0 -315 316v698h153v-651z" />
    <glyph glyph-name="v" unicode="v" horiz-adv-x="1003" 
d="M586 0h-168l-412 989h166l330 -811l327 811h168z" />
    <glyph glyph-name="w" unicode="w" horiz-adv-x="1503" 
d="M1163 0h-153l-258 795l-258 -795h-154l-315 989h159l242 -788l260 788h131l260 -788l242 788h160z" />
    <glyph glyph-name="x" unicode="x" horiz-adv-x="995" 
d="M973 0h-178l-297 406l-297 -406h-176l378 508l-358 481h178l275 -377l274 377h178l-358 -481z" />
    <glyph glyph-name="y" unicode="y" horiz-adv-x="1003" 
d="M210 -264q50 0 85 22t59 82l66 150l-414 999h166l330 -811l327 811h168l-495 -1190q-82 -197 -291 -200q-62 0 -113 14l25 139q37 -16 87 -16z" />
    <glyph glyph-name="z" unicode="z" horiz-adv-x="966" 
d="M860 0h-754v119l545 735h-545v135h746v-117l-549 -739h557v-133z" />
    <glyph glyph-name="braceleft" unicode="{" horiz-adv-x="532" 
d="M498 -389h-125q-102 0 -179 77t-77 197v422q0 61 -28 101t-79 41v102q51 0 79 40t28 101v420q0 123 77 200t179 77h125v-113h-125q-55 0 -95 -46t-40 -118v-432q0 -139 -95 -180q94 -41 95 -181v-432q0 -71 40 -117t95 -46h125v-113z" />
    <glyph glyph-name="bar" unicode="|" horiz-adv-x="432" 
d="M272 -41h-112v1448h112v-1448z" />
    <glyph glyph-name="braceright" unicode="}" horiz-adv-x="532" 
d="M35 -389v113h125q55 0 95 47t40 116v432q0 139 94 181q-94 41 -94 180v432q0 72 -40 118t-95 46h-125v113h125q102 0 179 -77t77 -200v-420q0 -61 28 -101t78 -40v-102q-51 0 -79 -40t-27 -102v-422q0 -121 -77 -197t-179 -77h-125z" />
    <glyph glyph-name="asciitilde" unicode="~" horiz-adv-x="1030" 
d="M338 1255q-129 0 -168 -391l-115 15q35 355 158 446q53 39 125 39t120 -40t72 -98t41 -116q43 -137 119 -137q133 0 168 393l115 -14q-20 -213 -72 -334q-64 -152 -210 -152q-73 0 -120 40t-71 98t-42 114q-46 137 -120 137z" />
    <glyph glyph-name="nbspace" unicode="&#xa0;" horiz-adv-x="528" 
 />
    <glyph glyph-name="exclamdown" unicode="&#xa1;" horiz-adv-x="471" 
d="M123 897q0 45 34 79t79 34q44 0 78 -34t34 -79t-33 -79t-79 -34t-80 34q-33 34 -33 79zM141 -377l31 983h127l33 -983h-191z" />
    <glyph glyph-name="cent" unicode="&#xa2;" horiz-adv-x="1013" 
d="M256 495q0 -143 70 -245t190 -129v745q-120 -27 -190 -128t-70 -243zM516 -205v187q-188 24 -304 166t-116 346t116 345q116 142 304 169v149h121v-145q193 -16 315 -170l-102 -94q-82 111 -213 126v-759q129 12 213 127l102 -95q-119 -154 -315 -170v-182h-121z" />
    <glyph glyph-name="sterling" unicode="&#xa3;" horiz-adv-x="1060" 
d="M39 549v110h217q-57 66 -79 94q-23 29 -51 95t-28 135q0 168 135 286t324 117q139 0 248 -60t166 -169l-137 -82q-29 70 -100 119q-70 49 -176 49t-192 -72q-86 -71 -85 -179q0 -108 54 -189q17 -27 58 -77t53 -67h308v-110h-250q14 -47 14 -88q0 -160 -156 -271
q51 18 113 18t151 -41q89 -42 149 -42q59 0 113 26t79 56l73 -137q-100 -96 -276 -97q-96 0 -194 47q-98 48 -179 48q-80 0 -235 -82l-62 127q131 59 202 140t71 157t-31 139h-297z" />
    <glyph glyph-name="currency" unicode="&#xa4;" horiz-adv-x="1224" 
d="M612 330q154 0 243 103t89 249t-89 246q-89 102 -243 102t-242 -102t-89 -246q1 -144 89 -248t242 -104zM611 190q-175 0 -304 97l-153 -156l-97 92l158 158q-92 131 -92 304t94 298l-162 162l97 94l159 -162q127 94 302 94t298 -94l160 160l94 -94l-159 -160
q96 -129 96 -300t-94 -304l157 -156l-94 -92l-158 154q-127 -95 -302 -95z" />
    <glyph glyph-name="yen" unicode="&#xa5;" horiz-adv-x="1282" 
d="M727 0h-170v250h-512v108h512v220h-512v106h438l-465 682h199l424 -635l424 635h199l-465 -682h440v-106h-512v-220h512v-108h-512v-250z" />
    <glyph glyph-name="brokenbar" unicode="&#xa6;" horiz-adv-x="432" 
d="M272 760h-112v647h112v-647zM272 -41h-112v647h112v-647z" />
    <glyph glyph-name="section" unicode="&#xa7;" horiz-adv-x="958" 
d="M473 813q-229 -59 -229 -193q0 -62 45 -101q45 -38 105 -58t141 -37q170 74 170 201q-1 81 -63 121t-169 67zM856 645q0 -178 -188 -262q188 -72 188 -248q0 -141 -106 -221t-283 -80q-233 0 -397 160l77 100q123 -147 320 -147q109 0 175 47t65 124q1 76 -63 116
t-154 62t-179 48q-90 26 -153 87q-64 61 -64 163t67 169t169 93q-236 74 -236 252q0 119 100 199t269 79q240 0 364 -145l-69 -92q-102 123 -291 123q-99 0 -161 -45t-62 -113t63 -105t153 -55t179 -45q90 -27 154 -92q63 -66 63 -172z" />
    <glyph glyph-name="dieresis" unicode="&#xa8;" horiz-adv-x="557" 
d="M162 1237q0 -39 -28 -68t-66 -29t-68 28q-29 28 -29 68t29 68t68 28q38 0 66 -28t28 -67zM586 1237q0 -39 -29 -68t-68 -29t-67 30q-28 28 -29 67q0 39 29 67q30 28 68 28t67 -28t29 -67z" />
    <glyph glyph-name="copyright" unicode="&#xa9;" horiz-adv-x="1593" 
d="M804 248q-181 0 -305 126t-124 312t124 311t305 125t296 -135l-51 -49q-39 53 -108 85t-140 32q-143 1 -247 -103t-103 -264q0 -160 104 -266t246 -107q75 0 141 33t107 86l53 -51q-117 -135 -298 -135zM1440 684q0 266 -188 454t-455 189q-267 0 -455 -188
q-188 -189 -188 -455t188 -454t454 -189q266 1 456 189q188 188 188 454zM1503 684q0 -293 -207 -500q-208 -207 -500 -207t-499 208t-207 500t207 499t500 207t499 -207t207 -500z" />
    <glyph glyph-name="ordfeminine" unicode="&#xaa;" horiz-adv-x="774" 
d="M358 729q115 0 174 78v115q-59 78 -174 77q-68 1 -112 -37t-43 -98q-1 -60 43 -98q44 -37 112 -37zM649 668h-117v71q-82 -88 -219 -88q-89 -1 -159 57t-70 157t69 155t160 55q137 0 219 -86v113q0 61 -47 97t-114 36q-121 0 -203 -94l-51 76q106 111 268 110
q117 0 191 -55t73 -172v-432z" />
    <glyph glyph-name="guillemotleft" unicode="&#xab;" horiz-adv-x="899" 
d="M543 129h-154l-328 369l328 362h154l-328 -362zM838 129h-154l-328 369l328 362h154l-328 -362z" />
    <glyph glyph-name="logicalnot" unicode="&#xac;" horiz-adv-x="1032" 
d="M963 936v-504h-113v395h-791v109h904z" />
    <glyph glyph-name="uni00AD" unicode="&#xad;" horiz-adv-x="614" 
d="M553 428h-492v135h492v-135z" />
    <glyph glyph-name="registered" unicode="&#xae;" horiz-adv-x="1011" 
d="M543 958q33 0 61 27t29 65q0 38 -28 66t-62 27h-137v-185h137zM406 899v-197h-66v498h203q65 0 111 -42t46 -112t-46 -107q-46 -38 -81 -38l134 -199h-82l-129 197h-90zM881 952q0 156 -110 266q-111 110 -267 110t-266 -110t-109 -266q0 -156 111 -266
q110 -110 266 -111q156 1 266 111t109 266zM72 952q0 180 127 308t308 126q181 0 307 -126t126 -307t-127 -308t-307 -127t-307 127t-127 307z" />
    <glyph glyph-name="macron" unicode="&#xaf;" horiz-adv-x="743" 
d="M743 1171h-743v99h743v-99z" />
    <glyph glyph-name="degree" unicode="&#xb0;" horiz-adv-x="593" 
d="M449 1136q1 62 -45 107t-108 45t-106 -45t-43 -107q0 -62 43 -106q44 -44 106 -45q62 1 108 45t45 106zM547 1136q0 -102 -74 -176t-177 -74t-176 74q-73 72 -73 176t73 177t176 73t177 -74t74 -176z" />
    <glyph glyph-name="plusminus" unicode="&#xb1;" horiz-adv-x="1021" 
d="M963 0h-904v106h904v-106zM963 664h-394v-439h-116v439h-394v106h394v424h116v-424h394v-106z" />
    <glyph glyph-name="twosuperior" unicode="&#xb2;" horiz-adv-x="794" 
d="M698 862h-596v92q254 180 362 288t108 192t-52 122q-51 38 -123 37q-150 0 -229 -106l-68 78q102 129 301 129q123 0 208 -62t85 -179q0 -115 -102 -229t-309 -261h415v-101z" />
    <glyph glyph-name="threesuperior" unicode="&#xb3;" horiz-adv-x="794" 
d="M702 1077q0 -98 -84 -164t-225 -65q-211 0 -307 133l66 78q90 -111 237 -111q88 0 139 39t52 105q0 141 -213 141q-70 0 -82 -2v102q14 -2 80 -2q201 0 200 131q0 60 -52 96t-130 35q-131 0 -223 -100l-64 74q113 127 297 127q131 0 213 -60t82 -150q0 -91 -55 -139
t-127 -61q70 -6 133 -58t63 -149z" />
    <glyph glyph-name="acute" unicode="&#xb4;" horiz-adv-x="462" 
d="M463 1434l-346 -295h-117l303 295h160z" />
    <glyph glyph-name="mu" unicode="&#xb5;" horiz-adv-x="1157" 
d="M307 -377h-153v1366h153v-651q0 -229 225 -229q84 0 164 45t125 108v727h154v-758q0 -119 96 -118q23 0 39 4l12 -133q-45 -8 -82 -9q-180 0 -213 177q-55 -76 -139 -126t-174 -51q-154 1 -207 99v-451z" />
    <glyph glyph-name="paragraph" unicode="&#xb6;" horiz-adv-x="919" 
d="M774 -205h-92v1479h-182v-1479h-92v867q-145 0 -249 103q-103 103 -103 249t102 248q104 104 250 104h366v-1571z" />
    <glyph glyph-name="periodcentered" unicode="&#xb7;" horiz-adv-x="471" 
d="M348 500q0 -45 -34 -78t-78 -33t-79 33q-34 33 -34 78t33 79q33 33 80 33q48 0 80 -34t32 -78z" />
    <glyph glyph-name="cedilla" unicode="&#xb8;" horiz-adv-x="419" 
d="M420 -234q0 -68 -62 -112q-62 -45 -170 -45q-110 0 -188 61l39 78q72 -59 164 -59q51 -1 88 23t37 63q0 72 -76 71q-47 0 -78 -34l-68 38l64 173h92l-53 -136q33 23 84 23t89 -38t38 -106z" />
    <glyph glyph-name="onesuperior" unicode="&#xb9;" horiz-adv-x="481" 
d="M358 862h-122v660l-136 -142l-71 76l221 225h108v-819z" />
    <glyph glyph-name="ordmasculine" unicode="&#xba;" horiz-adv-x="829" 
d="M415 750q97 0 154 68t57 170q0 103 -56 170q-58 67 -155 67t-153 -67t-57 -170q0 -103 56 -171q57 -67 154 -67zM82 989q0 143 91 241t242 97q151 0 241 -97q90 -96 92 -240q0 -144 -91 -242t-242 -97q-151 -1 -242 97t-91 241z" />
    <glyph glyph-name="guillemotright" unicode="&#xbb;" horiz-adv-x="899" 
d="M838 498l-328 -369h-154l328 369l-328 362h154zM543 498l-328 -369h-154l328 369l-328 362h154z" />
    <glyph glyph-name="onequarter" unicode="&#xbc;" horiz-adv-x="1576" 
d="M1208 1366l-874 -1366h-113l873 1366h114zM1262 305v406l-279 -406h279zM1501 205h-119v-205h-120v205h-402v90l352 524h170v-514h119v-100zM358 547h-122v659l-136 -141l-71 76l221 225h108v-819z" />
    <glyph glyph-name="onehalf" unicode="&#xbd;" horiz-adv-x="1652" 
d="M1208 1366l-874 -1366h-113l873 1366h114zM1554 0h-596v92q254 180 362 288t108 192t-52 122q-51 38 -123 37q-150 0 -229 -106l-68 77q100 129 301 129q123 0 208 -62t85 -178t-102 -230t-309 -261h415v-100zM358 547h-122v659l-136 -141l-71 76l221 225h108v-819z" />
    <glyph glyph-name="threequarters" unicode="&#xbe;" horiz-adv-x="1798" 
d="M702 762q0 -98 -84 -164t-225 -66q-211 0 -307 134l66 77q90 -111 237 -110q88 0 139 39t52 104q0 141 -213 142q-70 0 -82 -3v103q14 -2 80 -2q201 0 200 131q0 61 -52 96t-130 35q-131 0 -223 -100l-64 73q113 127 297 127q131 0 213 -59t82 -151t-55 -139
q-55 -48 -127 -60q70 -5 133 -57t63 -150zM1430 1366l-875 -1366h-113l873 1366h115zM1485 305v406l-279 -406h279zM1724 205h-118v-205h-121v205h-402v90l353 524h170v-514h118v-100z" />
    <glyph glyph-name="questiondown" unicode="&#xbf;" horiz-adv-x="806" 
d="M487 1010q45 0 79 -34t34 -80t-34 -79t-79 -33t-79 33t-33 79q-1 46 33 80t79 34zM608 450q0 -84 -38 -141t-92 -97t-108 -77q-130 -89 -130 -196q0 -81 62 -135t177 -54q203 0 328 166l100 -109q-160 -209 -442 -208q-182 0 -292 91t-110 226q0 86 41 155q40 69 98 111
t116 82q141 95 141 189q0 57 -53 98l122 55q80 -72 80 -156z" />
    <glyph glyph-name="Agrave" unicode="&#xc0;" horiz-adv-x="1347" 
d="M791 1481h-117l-346 295h159zM963 455l-289 735l-291 -735h580zM1329 0h-194l-121 303h-680l-121 -303h-195l549 1366h211z" />
    <glyph glyph-name="Aacute" unicode="&#xc1;" horiz-adv-x="1347" 
d="M1020 1776l-346 -295h-117l303 295h160zM963 455l-289 735l-291 -735h580zM1329 0h-194l-121 303h-680l-121 -303h-195l549 1366h211z" />
    <glyph glyph-name="Acircumflex" unicode="&#xc2;" horiz-adv-x="1347" 
d="M963 455l-289 735l-291 -735h580zM1329 0h-194l-121 303h-680l-121 -303h-195l549 1366h211zM948 1481h-104l-170 217l-164 -217h-104l194 295h148z" />
    <glyph glyph-name="Atilde" unicode="&#xc3;" horiz-adv-x="1347" 
d="M797 1477q-51 -1 -89 29t-57 65q-47 94 -111 94q-38 0 -66 -44t-28 -132h-92q0 123 52 199t147 75q49 1 87 -29t57 -65q51 -94 101 -94t78 44t27 132h92q0 -123 -52 -199t-146 -75zM963 455l-289 735l-291 -735h580zM1329 0h-194l-121 303h-680l-121 -303h-195l549 1366
h211z" />
    <glyph glyph-name="Adieresis" unicode="&#xc4;" horiz-adv-x="1347" 
d="M963 455l-289 735l-291 -735h580zM1329 0h-194l-121 303h-680l-121 -303h-195l549 1366h211zM559 1579q0 -39 -28 -68q-29 -29 -67 -29t-67 30q-29 28 -28 67q0 39 28 67q29 28 68 28t67 -28t27 -67zM983 1579q0 -39 -29 -68q-30 -29 -68 -29t-67 30q-29 28 -28 67
q0 39 28 67q29 28 68 28t67 -28t29 -67z" />
    <glyph glyph-name="Aring" unicode="&#xc5;" horiz-adv-x="1347" 
d="M674 1493q49 0 84 36t35 86t-34 85t-84 35t-85 -35t-35 -85t35 -86t84 -36zM674 1413q-84 -1 -142 59t-59 143q0 83 59 142q60 59 142 59t141 -58q59 -60 59 -143t-58 -143t-142 -59zM963 455l-289 735l-291 -735h580zM1329 0h-194l-121 303h-680l-121 -303h-195
l549 1366h211z" />
    <glyph glyph-name="AE" unicode="&#xc6;" horiz-adv-x="1939" 
d="M934 455v735l-455 -735h455zM1829 0h-895v303h-539l-186 -303h-195l852 1366h963v-152h-725v-440h711v-151h-711v-471h725v-152z" />
    <glyph glyph-name="Ccedilla" unicode="&#xc7;" horiz-adv-x="1384" 
d="M1008 -226q0 -68 -62 -112q-62 -45 -172 -45t-186 61l39 78q72 -59 164 -59q51 -1 88 23t36 63q0 72 -75 72q-47 0 -78 -35l-68 39l43 121q-274 22 -453 216q-180 194 -180 496t202 499q202 198 501 198q328 0 518 -271l-143 -80q-60 88 -160 144t-215 55
q-225 0 -376 -157q-151 -156 -151 -398t152 -398q150 -156 375 -157q115 0 215 54t160 145l145 -80q-195 -262 -500 -271l-30 -79q33 22 83 22t90 -38q38 -38 38 -106z" />
    <glyph glyph-name="Egrave" unicode="&#xc8;" horiz-adv-x="1165" 
d="M723 1481h-117l-346 295h160zM1055 0h-895v1366h895v-152h-725v-440h710v-151h-710v-471h725v-152z" />
    <glyph glyph-name="Eacute" unicode="&#xc9;" horiz-adv-x="1165" 
d="M1055 0h-895v1366h895v-152h-725v-440h710v-151h-710v-471h725v-152zM952 1776l-346 -295h-117l304 295h159z" />
    <glyph glyph-name="Ecircumflex" unicode="&#xca;" horiz-adv-x="1165" 
d="M1055 0h-895v1366h895v-152h-725v-440h710v-151h-710v-471h725v-152zM877 1481h-105l-170 217l-164 -217h-104l194 295h148z" />
    <glyph glyph-name="Edieresis" unicode="&#xcb;" horiz-adv-x="1165" 
d="M1055 0h-895v1366h895v-152h-725v-440h710v-151h-710v-471h725v-152zM489 1579q1 -39 -27 -68t-67 -29t-67 30q-28 28 -29 67q0 39 29 67q30 28 68 28t66 -28q27 -28 27 -67zM913 1579q-1 -39 -29 -68t-67 -29t-67 30q-28 28 -29 67q0 39 29 67q30 28 68 28t67 -28
q28 -28 28 -67z" />
    <glyph glyph-name="Igrave" unicode="&#xcc;" horiz-adv-x="489" 
d="M360 1481h-116l-346 295h159zM330 0h-170v1366h170v-1366z" />
    <glyph glyph-name="Iacute" unicode="&#xcd;" horiz-adv-x="489" 
d="M592 1776l-346 -295h-117l303 295h160zM330 0h-170v1366h170v-1366z" />
    <glyph glyph-name="Icircumflex" unicode="&#xce;" horiz-adv-x="489" 
d="M330 0h-170v1366h170v-1366zM518 1481h-104l-170 217l-164 -217h-105l195 295h147z" />
    <glyph glyph-name="Idieresis" unicode="&#xcf;" horiz-adv-x="489" 
d="M330 0h-170v1366h170v-1366zM129 1579q0 -39 -28 -68q-29 -29 -67 -29t-67 30q-29 28 -28 67q0 39 28 67q29 28 68 28t67 -28t27 -67zM553 1579q0 -39 -29 -68q-30 -29 -68 -29t-67 30q-29 28 -29 67t29 67t68 28t67 -28t29 -67z" />
    <glyph glyph-name="Eth" unicode="&#xd0;" horiz-adv-x="1490" 
d="M684 152q242 0 383 152t141 379q0 228 -139 380t-385 151h-297v-477h346v-125h-346v-460h297zM684 0h-467v612h-197v125h197v629h467q313 0 507 -195q193 -195 193 -491t-194 -488t-506 -192z" />
    <glyph glyph-name="Ntilde" unicode="&#xd1;" horiz-adv-x="1449" 
d="M1290 0h-164l-796 1090v-1090h-170v1366h174l786 -1067v1067h170v-1366zM844 1477q-51 -1 -89 29t-57 65q-48 94 -112 94q-38 0 -65 -44q-28 -44 -27 -132h-93q1 123 53 199t146 75q49 1 87 -29t57 -65q51 -94 101 -94t78 44t27 132h92q0 -123 -52 -199t-146 -75z" />
    <glyph glyph-name="Ograve" unicode="&#xd2;" horiz-adv-x="1566" 
d="M281 682q0 -242 137 -398t363 -157q226 0 365 157q138 158 138 400t-138 398t-364 155q-226 0 -364 -156q-137 -157 -137 -399zM1460 682q0 -305 -190 -506t-489 -201q-300 0 -488 201t-189 506q0 305 188 506t489 201q299 0 489 -201t190 -506zM901 1481h-117l-346 295
h160z" />
    <glyph glyph-name="Oacute" unicode="&#xd3;" horiz-adv-x="1566" 
d="M281 682q0 -242 137 -398t363 -157q226 0 365 157q138 158 138 400t-138 398t-364 155q-226 0 -364 -156q-137 -157 -137 -399zM1460 682q0 -305 -190 -506t-489 -201q-300 0 -488 201t-189 506q0 305 188 506t489 201q299 0 489 -201t190 -506zM1130 1776l-346 -295
h-116l303 295h159z" />
    <glyph glyph-name="Ocircumflex" unicode="&#xd4;" horiz-adv-x="1566" 
d="M281 682q0 -242 137 -398t363 -157q226 0 365 157q138 158 138 400t-138 398t-364 155q-226 0 -364 -156q-137 -157 -137 -399zM1460 682q0 -305 -190 -506t-489 -201q-300 0 -488 201t-189 506q0 305 188 506t489 201q299 0 489 -201t190 -506zM1059 1481h-105l-170 217
l-163 -217h-105l195 295h147z" />
    <glyph glyph-name="Otilde" unicode="&#xd5;" horiz-adv-x="1566" 
d="M905 1477q-51 -1 -89 29t-56 65q-48 94 -107 94q-43 0 -71 -44t-27 -132h-92q0 123 52 199t147 75q49 1 87 -29t57 -65q51 -94 101 -94q49 0 77 44t28 132h92q0 -123 -52 -199q-53 -75 -147 -75zM281 682q0 -242 137 -398t363 -157q226 0 365 157q138 158 138 400
t-138 398t-364 155q-226 0 -364 -156q-137 -157 -137 -399zM1460 682q0 -305 -190 -506t-489 -201q-300 0 -488 201t-189 506q0 305 188 506t489 201q299 0 489 -201t190 -506z" />
    <glyph glyph-name="Odieresis" unicode="&#xd6;" horiz-adv-x="1566" 
d="M281 682q0 -242 137 -398t363 -157q226 0 365 157q138 158 138 400t-138 398t-364 155q-226 0 -364 -156q-137 -157 -137 -399zM1460 682q0 -305 -190 -506t-489 -201q-300 0 -488 201t-189 506q0 305 188 506t489 201q299 0 489 -201t190 -506zM666 1579q0 -39 -28 -68
t-67 -29t-67 30q-28 28 -29 67q0 39 29 67q30 28 68 28t66 -28t28 -67zM1090 1579q0 -39 -29 -68t-68 -29t-67 30q-28 28 -29 67q0 39 29 67q30 28 68 28t67 -28t29 -67z" />
    <glyph glyph-name="multiply" unicode="&#xd7;" horiz-adv-x="1021" 
d="M815 303l-305 305l-303 -305l-76 76l303 305l-303 303l76 78l303 -305l305 305l76 -78l-303 -303l303 -305z" />
    <glyph glyph-name="Oslash" unicode="&#xd8;" horiz-adv-x="1566" 
d="M782 1237q-227 1 -364 -155t-137 -407t149 -405l606 901q-115 66 -254 66zM782 127q225 0 364 157q138 156 138 410t-160 408l-608 -903q112 -72 266 -72zM782 -25q-199 0 -354 93l-45 -68h-135l90 133q-233 201 -234 549q0 305 188 506t490 201q188 0 342 -86l43 63h136
l-86 -127q117 -97 180 -241t63 -316q0 -305 -190 -506t-488 -201z" />
    <glyph glyph-name="Ugrave" unicode="&#xd9;" horiz-adv-x="1433" 
d="M834 1481h-117l-346 295h159zM717 -25q-273 1 -415 149t-142 406v836h170v-831q0 -190 100 -299t286 -109t288 109q100 109 100 299v831h170v-834q0 -260 -142 -408t-415 -149z" />
    <glyph glyph-name="Uacute" unicode="&#xda;" horiz-adv-x="1433" 
d="M717 -25q-273 1 -415 149t-142 406v836h170v-831q0 -190 100 -299t286 -109t288 109q100 109 100 299v831h170v-834q0 -260 -142 -408t-415 -149zM1063 1776l-346 -295h-117l303 295h160z" />
    <glyph glyph-name="Ucircumflex" unicode="&#xdb;" horiz-adv-x="1433" 
d="M717 -25q-273 1 -415 149t-142 406v836h170v-831q0 -190 100 -299t286 -109t288 109q100 109 100 299v831h170v-834q0 -260 -142 -408t-415 -149zM993 1481h-104l-170 217l-164 -217h-104l194 295h148z" />
    <glyph glyph-name="Udieresis" unicode="&#xdc;" horiz-adv-x="1433" 
d="M717 -25q-273 1 -415 149t-142 406v836h170v-831q0 -190 100 -299t286 -109t288 109q100 109 100 299v831h170v-834q0 -260 -142 -408t-415 -149zM602 1579q0 -39 -28 -68t-68 -29t-67 30q-28 28 -27 67q0 39 28 67q29 28 68 28q38 0 66 -28t28 -67zM1026 1579
q0 -39 -29 -68t-67 -29t-68 30q-29 28 -28 67q0 39 28 67q29 28 68 28q40 0 68 -28t28 -67z" />
    <glyph glyph-name="Yacute" unicode="&#xdd;" horiz-adv-x="1282" 
d="M987 1776l-346 -295h-117l303 295h160zM727 0h-170v578l-539 788h199l424 -635l424 635h199l-537 -788v-578z" />
    <glyph glyph-name="Thorn" unicode="&#xde;" horiz-adv-x="1202" 
d="M688 451q121 -1 197 71t76 187t-76 189t-197 73h-358v-520h358zM330 0h-170v1366h170v-244h379q199 0 313 -118t115 -294q0 -175 -116 -293t-312 -118h-379v-299z" />
    <glyph glyph-name="germandbls" unicode="&#xdf;" horiz-adv-x="1222" 
d="M1184 266q0 -116 -100 -204q-100 -87 -281 -87q-135 0 -220 41t-161 119l78 107q47 -62 126 -102q80 -40 184 -40t164 50t60 120q0 68 -60 106t-146 58t-174 46q-87 26 -147 88q-61 62 -61 150t48 146q48 59 102 90q149 84 149 153t-61 105t-151 37q-90 0 -158 -62
t-68 -165v-1022h-153v1022q0 154 107 259t269 105t268 -70q105 -71 105 -188q0 -76 -48 -133t-105 -87q-154 -81 -154 -179t207 -141q86 -18 173 -45q88 -27 148 -94t60 -183z" />
    <glyph glyph-name="agrave" unicode="&#xe0;" horiz-adv-x="1079" 
d="M659 1139h-116l-346 295h159zM500 86q184 0 272 123v186q-88 123 -272 123q-106 0 -175 -60t-69 -156t69 -156t175 -60zM926 0h-154v113q-125 -137 -328 -138q-137 0 -241 88q-105 88 -105 242t104 239t242 85q211 0 328 -135v178q0 98 -70 153t-180 56q-174 0 -303 -138
l-72 107q158 164 396 164q170 0 276 -82t107 -252v-680z" />
    <glyph glyph-name="aacute" unicode="&#xe1;" horiz-adv-x="1079" 
d="M889 1434l-346 -295h-117l303 295h160zM500 86q184 0 272 123v186q-88 123 -272 123q-106 0 -175 -60t-69 -156t69 -156t175 -60zM926 0h-154v113q-125 -137 -328 -138q-137 0 -241 88q-105 88 -105 242t104 239t242 85q211 0 328 -135v178q0 98 -70 153t-180 56
q-174 0 -303 -138l-72 107q158 164 396 164q170 0 276 -82t107 -252v-680z" />
    <glyph glyph-name="acircumflex" unicode="&#xe2;" horiz-adv-x="1079" 
d="M815 1139h-104l-170 217l-164 -217h-105l195 295h147zM500 86q184 0 272 123v186q-88 123 -272 123q-106 0 -175 -60t-69 -156t69 -156t175 -60zM926 0h-154v113q-125 -137 -328 -138q-137 0 -241 88q-105 88 -105 242t104 239t242 85q211 0 328 -135v178q0 98 -70 153
t-180 56q-174 0 -303 -138l-72 107q158 164 396 164q170 0 276 -82t107 -252v-680z" />
    <glyph glyph-name="atilde" unicode="&#xe3;" horiz-adv-x="1079" 
d="M666 1135q-51 -1 -89 29t-57 65q-48 94 -112 94q-38 0 -65 -44q-28 -44 -28 -132h-92q0 123 52 199t147 75q49 1 87 -29t57 -65q51 -94 101 -94q105 0 105 176h92q0 -123 -52 -199t-146 -75zM500 86q184 0 272 123v186q-88 123 -272 123q-106 0 -175 -60t-69 -156
t69 -156t175 -60zM926 0h-154v113q-125 -137 -328 -138q-137 0 -241 88q-105 88 -105 242t104 239t242 85q211 0 328 -135v178q0 98 -70 153t-180 56q-174 0 -303 -138l-72 107q158 164 396 164q170 0 276 -82t107 -252v-680z" />
    <glyph glyph-name="adieresis" unicode="&#xe4;" horiz-adv-x="1079" 
d="M426 1237q0 -39 -28 -68t-68 -29t-67 28t-27 68t28 68q29 28 68 28q38 0 66 -28t28 -67zM850 1237q0 -39 -29 -68t-67 -29t-68 30q-29 28 -29 67t29 67t68 28q40 0 68 -28t28 -67zM500 86q184 0 272 123v186q-88 123 -272 123q-106 0 -175 -60t-69 -156t69 -156t175 -60z
M926 0h-154v113q-125 -137 -328 -138q-137 0 -241 88q-105 88 -105 242t104 239t242 85q211 0 328 -135v178q0 98 -70 153t-180 56q-174 0 -303 -138l-72 107q158 164 396 164q170 0 276 -82t107 -252v-680z" />
    <glyph glyph-name="aring" unicode="&#xe5;" horiz-adv-x="1079" 
d="M543 1192q49 0 84 36t35 86t-34 85t-84 35t-85 -35t-35 -85t35 -86t84 -36zM543 1112q-84 0 -143 58q-58 58 -58 142t59 144t141 60t142 -60q59 -60 59 -143q0 -85 -58 -143t-142 -58zM500 86q184 0 272 123v186q-88 123 -272 123q-106 0 -175 -60t-69 -156t69 -156
t175 -60zM926 0h-154v113q-125 -137 -328 -138q-137 0 -241 88q-105 88 -105 242t104 239t242 85q211 0 328 -135v178q0 98 -70 153t-180 56q-174 0 -303 -138l-72 107q158 164 396 164q170 0 276 -82t107 -252v-680z" />
    <glyph glyph-name="ae" unicode="&#xe6;" horiz-adv-x="1820" 
d="M821 369v24q-106 125 -297 125q-120 0 -194 -56t-74 -150t74 -149q74 -57 198 -57t208 80q85 80 85 183zM975 557h600q-2 129 -78 229t-217 100t-220 -100q-79 -102 -85 -229zM1726 444h-751q10 -145 98 -241q88 -97 246 -97t270 125l74 -104q-147 -152 -365 -152
q-279 0 -395 238q-53 -106 -163 -172t-261 -66t-266 87t-115 241t106 240t259 86q229 0 358 -131v176q0 96 -75 151t-197 56q-193 0 -330 -138l-72 107q162 164 420 164q131 0 227 -53t124 -162q123 215 366 215q207 0 325 -150t117 -381v-39z" />
    <glyph glyph-name="ccedilla" unicode="&#xe7;" horiz-adv-x="1013" 
d="M805 -230q1 -68 -61 -112q-62 -45 -172 -45t-187 61l39 78q72 -59 164 -59q51 -1 88 23t37 63q0 72 -76 71q-47 0 -78 -34l-67 39l45 125q-197 18 -319 161t-122 361t137 364q137 148 361 148t358 -172l-102 -94q-94 129 -251 129q-157 -1 -250 -107t-93 -274t93 -276
t249 -108t252 130l102 -95q-123 -158 -325 -170l-33 -86q33 23 84 23t89 -38t38 -106z" />
    <glyph glyph-name="egrave" unicode="&#xe8;" horiz-adv-x="1153" 
d="M700 1139h-116l-346 295h159zM907 557q-2 127 -86 228t-235 101q-150 0 -236 -100t-92 -229h649zM610 -25q-232 1 -372 145q-142 144 -142 368t140 376q140 150 353 150q214 0 342 -151t128 -380v-39h-801q10 -145 106 -243q96 -99 266 -99q168 0 290 125l73 -100
q-151 -152 -383 -152z" />
    <glyph glyph-name="eacute" unicode="&#xe9;" horiz-adv-x="1153" 
d="M907 557q-2 127 -86 228t-235 101q-150 0 -236 -100t-92 -229h649zM610 -25q-232 1 -372 145q-142 144 -142 368t140 376q140 150 353 150q214 0 342 -151t128 -380v-39h-801q10 -145 106 -243q96 -99 266 -99q168 0 290 125l73 -100q-151 -152 -383 -152zM930 1434
l-346 -295h-117l303 295h160z" />
    <glyph glyph-name="ecircumflex" unicode="&#xea;" horiz-adv-x="1153" 
d="M907 557q-2 127 -86 228t-235 101q-150 0 -236 -100t-92 -229h649zM610 -25q-232 1 -372 145q-142 144 -142 368t140 376q140 150 353 150q214 0 342 -151t128 -380v-39h-801q10 -145 106 -243q96 -99 266 -99q168 0 290 125l73 -100q-151 -152 -383 -152zM858 1139h-104
l-170 217l-164 -217h-105l195 295h147z" />
    <glyph glyph-name="edieresis" unicode="&#xeb;" horiz-adv-x="1153" 
d="M907 557q-2 127 -86 228t-235 101q-150 0 -236 -100t-92 -229h649zM610 -25q-232 1 -372 145q-142 144 -142 368t140 376q140 150 353 150q214 0 342 -151t128 -380v-39h-801q10 -145 106 -243q96 -99 266 -99q168 0 290 125l73 -100q-151 -152 -383 -152zM469 1237
q0 -39 -28 -68q-29 -29 -67 -29t-67 28t-29 68t29 68t68 28t67 -28t27 -67zM893 1237q0 -39 -29 -68q-30 -29 -68 -29t-67 30q-29 28 -29 67t29 67t68 28t67 -28t29 -67z" />
    <glyph glyph-name="igrave" unicode="&#xec;" horiz-adv-x="460" 
d="M346 1139h-117l-346 295h160zM307 0h-153v989h153v-989z" />
    <glyph glyph-name="iacute" unicode="&#xed;" horiz-adv-x="460" 
d="M307 0h-153v989h153v-989zM578 1434l-347 -295h-116l303 295h160z" />
    <glyph glyph-name="icircumflex" unicode="&#xee;" horiz-adv-x="460" 
d="M307 0h-153v989h153v-989zM502 1139h-105l-170 217l-164 -217h-104l195 295h147z" />
    <glyph glyph-name="idieresis" unicode="&#xef;" horiz-adv-x="460" 
d="M307 0h-153v989h153v-989zM115 1237q0 -39 -28 -68t-68 -29q-39 0 -67 28t-28 68t29 68t67 28t67 -28q28 -28 28 -67zM539 1237q0 -39 -29 -68t-68 -29q-40 0 -68 30q-28 28 -28 67t29 67t67 28t68 -28q29 -28 29 -67z" />
    <glyph glyph-name="eth" unicode="&#xf0;" 
d="M586 113q152 0 240 106t87 259q0 153 -88 259q-87 107 -239 107t-241 -106t-89 -260q0 -153 89 -259t241 -106zM1075 506q0 -234 -133 -382t-354 -148q-220 0 -356 142q-136 144 -136 361t127 359t324 143q197 0 323 -182q-100 180 -327 348l-293 -129l-37 86l242 106
q-87 53 -154 99l84 127q137 -84 229 -156l222 98l34 -84l-176 -77q381 -324 381 -711z" />
    <glyph glyph-name="ntilde" unicode="&#xf1;" horiz-adv-x="1128" 
d="M688 1135q-51 -1 -89 29t-56 65q-48 94 -107 94q-42 0 -70 -44t-28 -132h-92q0 123 52 199t146 75q49 1 87 -29q37 -30 57 -65q52 -94 102 -94q49 0 77 44t28 132h92q0 -123 -52 -199q-53 -75 -147 -75zM975 0h-154v647q-1 227 -211 229q-96 0 -177 -44
q-81 -46 -126 -109v-723h-153v989h153v-143q57 68 153 118t199 50q315 0 316 -320v-694z" />
    <glyph glyph-name="ograve" unicode="&#xf2;" 
d="M702 1139h-116l-346 295h159zM586 113q152 -1 240 111t87 272q0 160 -88 270q-87 110 -239 111q-152 0 -241 -112q-89 -113 -89 -271t89 -270t241 -111zM586 -25q-221 0 -356 150q-134 150 -134 371t134 369q134 149 356 149t355 -148q134 -148 134 -370
q0 -221 -134 -371t-355 -150z" />
    <glyph glyph-name="oacute" unicode="&#xf3;" 
d="M586 113q152 -1 240 111t87 272q0 160 -88 270q-87 110 -239 111q-152 0 -241 -112q-89 -113 -89 -271t89 -270t241 -111zM586 -25q-221 0 -356 150q-134 150 -134 371t134 369q134 149 356 149t355 -148q134 -148 134 -370q0 -221 -134 -371t-355 -150zM932 1434
l-346 -295h-117l303 295h160z" />
    <glyph glyph-name="ocircumflex" unicode="&#xf4;" 
d="M586 113q152 -1 240 111t87 272q0 160 -88 270q-87 110 -239 111q-152 0 -241 -112q-89 -113 -89 -271t89 -270t241 -111zM586 -25q-221 0 -356 150q-134 150 -134 371t134 369q134 149 356 149t355 -148q134 -148 134 -370q0 -221 -134 -371t-355 -150zM858 1139h-104
l-170 217l-164 -217h-105l195 295h147z" />
    <glyph glyph-name="otilde" unicode="&#xf5;" 
d="M709 1135q-51 -1 -89 29t-57 65q-47 94 -111 94q-38 0 -66 -44t-28 -132h-92q0 123 52 199t147 75q49 1 87 -29t57 -65q51 -94 101 -94q105 0 105 176h92q0 -123 -52 -199t-146 -75zM586 113q152 -1 240 111t87 272q0 160 -88 270q-87 110 -239 111q-152 0 -241 -112
q-89 -113 -89 -271t89 -270t241 -111zM586 -25q-221 0 -356 150q-134 150 -134 371t134 369q134 149 356 149t355 -148q134 -148 134 -370q0 -221 -134 -371t-355 -150z" />
    <glyph glyph-name="odieresis" unicode="&#xf6;" 
d="M586 113q152 -1 240 111t87 272q0 160 -88 270q-87 110 -239 111q-152 0 -241 -112q-89 -113 -89 -271t89 -270t241 -111zM586 -25q-221 0 -356 150q-134 150 -134 371t134 369q134 149 356 149t355 -148q134 -148 134 -370q0 -221 -134 -371t-355 -150zM469 1237
q0 -39 -28 -68q-29 -29 -67 -29t-67 28t-29 68t29 68t68 28t67 -28t27 -67zM893 1237q0 -39 -29 -68q-30 -29 -68 -29t-67 30q-29 28 -29 67t29 67t68 28t67 -28t29 -67z" />
    <glyph glyph-name="divide" unicode="&#xf7;" horiz-adv-x="1046" 
d="M618 295q0 -39 -28 -67t-68 -28t-66 28t-26 67t27 67t65 27q38 1 68 -27q28 -28 28 -67zM987 637h-928v106h928v-106zM618 1077q0 -39 -28 -67t-68 -27q-40 0 -66 28q-26 29 -26 67t27 66t67 28t67 -28t27 -67z" />
    <glyph glyph-name="oslash" unicode="&#xf8;" 
d="M256 504q0 -150 70 -256l448 567q-78 61 -188 62q-152 1 -241 -111t-89 -262zM586 113q152 -1 240 111t87 267q0 155 -77 261l-451 -570q86 -69 201 -69zM96 494q0 224 134 371q134 148 356 149q162 0 280 -84l47 59h111l-92 -117q143 -147 143 -372t-134 -375t-355 -150
q-170 0 -291 93l-53 -68h-111l98 125q-133 145 -133 369z" />
    <glyph glyph-name="ugrave" unicode="&#xf9;" horiz-adv-x="1128" 
d="M680 1139h-117l-346 295h160zM307 338q0 -225 210 -225q97 0 178 43t126 106v727h154v-989h-154v139q-61 -71 -154 -117t-198 -47q-315 0 -315 316v698h153v-651z" />
    <glyph glyph-name="uacute" unicode="&#xfa;" horiz-adv-x="1128" 
d="M307 338q0 -225 210 -225q97 0 178 43t126 106v727h154v-989h-154v139q-61 -71 -154 -117t-198 -47q-315 0 -315 316v698h153v-651zM909 1434l-346 -295h-117l304 295h159z" />
    <glyph glyph-name="ucircumflex" unicode="&#xfb;" horiz-adv-x="1128" 
d="M307 338q0 -225 210 -225q97 0 178 43t126 106v727h154v-989h-154v139q-61 -71 -154 -117t-198 -47q-315 0 -315 316v698h153v-651zM836 1139h-105l-170 217l-164 -217h-104l194 295h148z" />
    <glyph glyph-name="udieresis" unicode="&#xfc;" horiz-adv-x="1128" 
d="M307 338q0 -225 210 -225q97 0 178 43t126 106v727h154v-989h-154v139q-61 -71 -154 -117t-198 -47q-315 0 -315 316v698h153v-651zM451 1237q0 -39 -28 -68t-68 -29q-39 0 -67 28t-28 68t29 68t67 28t67 -28q28 -28 28 -67zM874 1237q0 -39 -28 -68t-68 -29t-68 30
q-28 28 -28 67t29 67t67 28t68 -28q28 -28 28 -67z" />
    <glyph glyph-name="yacute" unicode="&#xfd;" horiz-adv-x="1003" 
d="M848 1434l-346 -295h-117l303 295h160zM210 -264q50 0 85 22t59 82l66 150l-414 999h166l330 -811l327 811h168l-495 -1190q-82 -197 -291 -200q-62 0 -113 14l25 139q37 -16 87 -16z" />
    <glyph glyph-name="thorn" unicode="&#xfe;" 
d="M602 113q145 0 232 107q86 108 86 276t-86 274t-232 107q-88 -1 -171 -47t-124 -111v-447q41 -68 124 -114t171 -45zM641 1014q197 0 319 -140t121 -378q1 -238 -121 -380t-325 -141q-203 0 -328 175v-527h-153v1743h153v-524q55 78 143 125t191 47z" />
    <glyph glyph-name="ydieresis" unicode="&#xff;" horiz-adv-x="1003" 
d="M385 1237q0 -39 -28 -68q-27 -29 -67 -29t-68 28t-28 68t29 68t68 28t67 -28t27 -67zM809 1237q0 -39 -29 -68q-30 -29 -68 -29t-67 30q-29 28 -29 67t29 67t68 28t67 -28t29 -67zM210 -264q50 0 85 22t59 82l66 150l-414 999h166l330 -811l327 811h168l-495 -1190
q-82 -197 -291 -200q-62 0 -113 14l25 139q37 -16 87 -16z" />
    <glyph glyph-name="Amacron" unicode="&#x100;" horiz-adv-x="1347" 
d="M1044 1513h-743v99h743v-99zM963 455l-289 735l-291 -735h580zM1329 0h-194l-121 303h-680l-121 -303h-195l549 1366h211z" />
    <glyph glyph-name="amacron" unicode="&#x101;" horiz-adv-x="1079" 
d="M911 1171h-743v99h743v-99zM500 86q184 0 272 123v186q-88 123 -272 123q-106 0 -175 -60t-69 -156t69 -156t175 -60zM926 0h-154v113q-125 -137 -328 -138q-137 0 -241 88q-105 88 -105 242t104 239t242 85q211 0 328 -135v178q0 98 -70 153t-180 56q-174 0 -303 -138
l-72 107q158 164 396 164q170 0 276 -82t107 -252v-680z" />
    <glyph glyph-name="Abreve" unicode="&#x102;" horiz-adv-x="1347" 
d="M675 1444q-224 0 -362 180l76 66q105 -148 285 -148t282 148l76 -66q-133 -180 -357 -180zM963 455l-289 735l-291 -735h580zM1329 0h-194l-121 303h-680l-121 -303h-195l549 1366h211z" />
    <glyph glyph-name="abreve" unicode="&#x103;" horiz-adv-x="1079" 
d="M542 1102q-224 0 -362 180l76 66q106 -148 286 -148t281 148l76 -66q-133 -180 -357 -180zM500 86q184 0 272 123v186q-88 123 -272 123q-106 0 -175 -60t-69 -156t69 -156t175 -60zM926 0h-154v113q-125 -137 -328 -138q-137 0 -241 88q-105 88 -105 242t104 239t242 85
q211 0 328 -135v178q0 98 -70 153t-180 56q-174 0 -303 -138l-72 107q158 164 396 164q170 0 276 -82t107 -252v-680z" />
    <glyph glyph-name="Aogonek" unicode="&#x104;" horiz-adv-x="1347" 
d="M963 455l-289 735l-291 -735h580zM1264 -381q-78 0 -130 45t-53 133q0 117 109 203h-55l-121 303h-680l-121 -303h-195l549 1366h211l551 -1366q-156 -78 -155 -199q0 -102 90 -102q77 0 106 86l76 -43q-53 -123 -182 -123z" />
    <glyph glyph-name="aogonek" unicode="&#x105;" horiz-adv-x="1079" 
d="M500 86q184 0 272 123v186q-88 123 -272 123q-106 0 -175 -60t-69 -156t69 -156t175 -60zM860 -381q-78 0 -130 45t-52 133q0 117 108 203h-14v113q-125 -137 -328 -138q-137 0 -241 88q-105 88 -105 242t104 239t242 85q211 0 328 -135v178q0 98 -70 153t-180 56
q-174 0 -303 -138l-72 107q158 164 396 164q170 0 276 -82t107 -252v-680q-156 -78 -156 -199q0 -102 90 -102q78 0 107 86l75 -43q-53 -123 -182 -123z" />
    <glyph glyph-name="Cacute" unicode="&#x106;" horiz-adv-x="1384" 
d="M818 -25q-310 0 -512 198t-202 509t202 509t501 198q328 0 518 -271l-143 -80q-60 88 -160 144t-215 55q-225 0 -376 -157q-151 -156 -151 -398t152 -398q150 -156 375 -157q115 0 215 54t160 145l145 -80q-199 -271 -509 -271zM1153 1776l-346 -295h-117l303 295h160z
" />
    <glyph glyph-name="cacute" unicode="&#x107;" horiz-adv-x="1013" 
d="M595 -25q-223 1 -361 149t-138 372t137 370q137 148 361 148t358 -172l-102 -94q-94 129 -251 129q-157 -1 -250 -107t-93 -274t93 -276t249 -108t252 130l102 -95q-133 -172 -357 -172zM934 1434l-346 -295h-117l303 295h160z" />
    <glyph glyph-name="Ccircumflex" unicode="&#x108;" horiz-adv-x="1384" 
d="M818 -25q-310 0 -512 198t-202 509t202 509t501 198q328 0 518 -271l-143 -80q-60 88 -160 144t-215 55q-225 0 -376 -157q-151 -156 -151 -398t152 -398q150 -156 375 -157q115 0 215 54t160 145l145 -80q-199 -271 -509 -271zM1077 1481h-104l-170 217l-164 -217h-104
l194 295h148z" />
    <glyph glyph-name="ccircumflex" unicode="&#x109;" horiz-adv-x="1013" 
d="M595 -25q-223 1 -361 149t-138 372t137 370q137 148 361 148t358 -172l-102 -94q-94 129 -251 129q-157 -1 -250 -107t-93 -274t93 -276t249 -108t252 130l102 -95q-133 -172 -357 -172zM862 1139h-104l-170 217l-164 -217h-105l195 295h148z" />
    <glyph glyph-name="Cdotaccent" unicode="&#x10a;" horiz-adv-x="1384" 
d="M811 1479q-39 1 -68 29t-28 67t29 67t67 29t67 -27t28 -69t-28 -69q-28 -27 -67 -27zM818 -25q-310 0 -512 198t-202 509t202 509t501 198q328 0 518 -271l-143 -80q-60 88 -160 144t-215 55q-225 0 -376 -157q-151 -156 -151 -398t152 -398q150 -156 375 -157
q115 0 215 54t160 145l145 -80q-199 -271 -509 -271z" />
    <glyph glyph-name="cdotaccent" unicode="&#x10b;" horiz-adv-x="1013" 
d="M594 1137q-39 1 -68 29t-28 67q0 39 28 67t68 29q38 1 66 -27t28 -69t-28 -69t-66 -27zM595 -25q-223 1 -361 149t-138 372t137 370q137 148 361 148t358 -172l-102 -94q-94 129 -251 129q-157 -1 -250 -107t-93 -274t93 -276t249 -108t252 130l102 -95
q-133 -172 -357 -172z" />
    <glyph glyph-name="Ccaron" unicode="&#x10c;" horiz-adv-x="1384" 
d="M818 -25q-310 0 -512 198t-202 509t202 509t501 198q328 0 518 -271l-143 -80q-60 88 -160 144t-215 55q-225 0 -376 -157q-151 -156 -151 -398t152 -398q150 -156 375 -157q115 0 215 54t160 145l145 -80q-199 -271 -509 -271zM883 1481h-148l-200 295h104l170 -217
l164 217h104z" />
    <glyph glyph-name="ccaron" unicode="&#x10d;" horiz-adv-x="1013" 
d="M595 -25q-223 1 -361 149t-138 372t137 370q137 148 361 148t358 -172l-102 -94q-94 129 -251 129q-157 -1 -250 -107t-93 -274t93 -276t249 -108t252 130l102 -95q-133 -172 -357 -172zM668 1139h-148l-201 295h105l170 -217l164 217h104z" />
    <glyph glyph-name="Dcaron" unicode="&#x10e;" horiz-adv-x="1433" 
d="M627 152q242 0 383 152t141 379q0 228 -139 380t-385 151h-297v-1062h297zM627 0h-467v1366h467q313 0 507 -195t194 -491t-194 -488t-507 -192zM797 1481h-148l-200 295h104l170 -217l164 217h104z" />
    <glyph glyph-name="dcaron" unicode="&#x10f;" horiz-adv-x="1318" 
d="M573 113q90 0 172 45t125 110v449q-43 67 -126 113t-171 47q-145 0 -231 -108q-86 -107 -86 -275t86 -274t231 -107zM1024 0h-154v147q-126 -172 -328 -172q-202 1 -324 141t-122 377t122 379t323 142t329 -174v526h154v-1366zM1222 1393q42 1 74 -37t31 -110
q0 -72 -41 -144q-41 -74 -104 -121l-68 53q47 31 81 81t38 95q-4 -4 -32 -4q-29 0 -53 26t-24 66t28 67q28 28 70 28z" />
    <glyph glyph-name="Dcroat" unicode="&#x110;" horiz-adv-x="1490" 
d="M684 152q242 0 383 152t141 379q0 228 -139 380t-385 151h-297v-477h346v-125h-346v-460h297zM684 0h-467v612h-197v125h197v629h467q313 0 507 -195q193 -195 193 -491t-194 -488t-506 -192z" />
    <glyph glyph-name="dcroat" unicode="&#x111;" horiz-adv-x="1181" 
d="M573 113q90 0 172 45t125 110v449q-43 67 -126 113t-171 47q-145 0 -231 -108q-86 -107 -86 -275t86 -274t231 -107zM1024 0h-154v147q-126 -172 -328 -172q-202 1 -324 141t-122 377t122 379t323 142t329 -174v256h-321v98h321v172h154v-172h139v-98h-139v-1096z" />
    <glyph glyph-name="Emacron" unicode="&#x112;" horiz-adv-x="1165" 
d="M977 1513h-744v99h744v-99zM1055 0h-895v1366h895v-152h-725v-440h710v-151h-710v-471h725v-152z" />
    <glyph glyph-name="emacron" unicode="&#x113;" horiz-adv-x="1153" 
d="M954 1171h-743v99h743v-99zM907 557q-2 127 -86 228t-235 101q-150 0 -236 -100t-92 -229h649zM610 -25q-232 1 -372 145q-142 144 -142 368t140 376q140 150 353 150q214 0 342 -151t128 -380v-39h-801q10 -145 106 -243q96 -99 266 -99q168 0 290 125l73 -100
q-151 -152 -383 -152z" />
    <glyph glyph-name="Ebreve" unicode="&#x114;" horiz-adv-x="1165" 
d="M612 1444q-224 0 -362 180l76 66q106 -148 285 -148t282 148l76 -66q-133 -180 -357 -180zM1055 0h-895v1366h895v-152h-725v-440h710v-151h-710v-471h725v-152z" />
    <glyph glyph-name="ebreve" unicode="&#x115;" horiz-adv-x="1153" 
d="M589 1102q-224 0 -362 180l76 66q105 -148 285 -148t282 148l76 -66q-133 -180 -357 -180zM907 557q-2 127 -86 228t-235 101q-150 0 -236 -100t-92 -229h649zM610 -25q-232 1 -372 145q-142 144 -142 368t140 376q140 150 353 150q214 0 342 -151t128 -380v-39h-801
q10 -145 106 -243q96 -99 266 -99q168 0 290 125l73 -100q-151 -152 -383 -152z" />
    <glyph glyph-name="Edotaccent" unicode="&#x116;" horiz-adv-x="1165" 
d="M614 1479q-40 1 -68 29t-28 67t29 67t67 29t67 -27q28 -28 28 -69t-28 -69t-67 -27zM1055 0h-895v1366h895v-152h-725v-440h710v-151h-710v-471h725v-152z" />
    <glyph glyph-name="edotaccent" unicode="&#x117;" horiz-adv-x="1153" 
d="M586 1137q-39 1 -68 29t-29 67t29 67t68 29q38 1 66 -27t28 -69t-28 -69t-66 -27zM907 557q-2 127 -86 228t-235 101q-150 0 -236 -100t-92 -229h649zM610 -25q-232 1 -372 145q-142 144 -142 368t140 376q140 150 353 150q214 0 342 -151t128 -380v-39h-801
q10 -145 106 -243q96 -99 266 -99q168 0 290 125l73 -100q-151 -152 -383 -152z" />
    <glyph glyph-name="Eogonek" unicode="&#x118;" horiz-adv-x="1165" 
d="M899 -199q0 -102 90 -102q78 0 107 86l75 -43q-53 -123 -182 -123q-78 0 -130 45t-52 133q0 117 108 203h-755v1366h895v-152h-725v-440h710v-151h-710v-471h725v-152q-156 -78 -156 -199z" />
    <glyph glyph-name="eogonek" unicode="&#x119;" horiz-adv-x="1153" 
d="M907 557q-2 127 -86 228t-235 101q-150 0 -236 -100t-92 -229h649zM600 -25q-221 1 -362 145q-142 144 -142 368t140 376q140 150 353 150q214 0 342 -151t128 -380v-39h-801q10 -145 106 -243q96 -99 266 -99q168 0 290 125l73 -100q-94 -94 -217 -127
q-154 -78 -153 -199q0 -102 90 -102q78 0 106 86l76 -43q-53 -123 -182 -123q-78 0 -130 45q-53 45 -53 138t80 173h-10z" />
    <glyph glyph-name="Ecaron" unicode="&#x11a;" horiz-adv-x="1165" 
d="M1055 0h-895v1366h895v-152h-725v-440h710v-151h-710v-471h725v-152zM686 1481h-147l-201 295h104l170 -217l164 217h105z" />
    <glyph glyph-name="ecaron" unicode="&#x11b;" horiz-adv-x="1153" 
d="M907 557q-2 127 -86 228t-235 101q-150 0 -236 -100t-92 -229h649zM610 -25q-232 1 -372 145q-142 144 -142 368t140 376q140 150 353 150q214 0 342 -151t128 -380v-39h-801q10 -145 106 -243q96 -99 266 -99q168 0 290 125l73 -100q-151 -152 -383 -152zM662 1139h-148
l-201 295h105l170 -217l164 217h104z" />
    <glyph glyph-name="Gcircumflex" unicode="&#x11c;" horiz-adv-x="1460" 
d="M822 -27q-312 0 -515 198t-203 511t203 510t513 197t517 -256l-135 -84q-66 86 -171 137t-224 51q-225 0 -376 -157q-151 -156 -151 -398t152 -400q150 -158 375 -157q113 0 210 44t157 103v279h-469v151h638v-493q-209 -236 -521 -236zM1087 1481h-104l-170 217
l-164 -217h-104l194 295h148z" />
    <glyph glyph-name="gcircumflex" unicode="&#x11d;" horiz-adv-x="1175" 
d="M573 123q88 0 171 47t124 115v432q-41 67 -123 113t-172 47q-147 -1 -232 -105t-85 -271t86 -273t231 -105zM551 -401q-131 -1 -223 31t-176 116l77 115q113 -135 322 -135q137 0 227 72t90 225v141q-55 -78 -143 -127t-188 -49q-197 0 -319 138t-122 374t122 374
t322 140q200 0 328 -174v149h154v-960q0 -227 -133 -329t-338 -101zM866 1139h-104l-170 217l-164 -217h-104l194 295h148z" />
    <glyph glyph-name="Gbreve" unicode="&#x11e;" horiz-adv-x="1460" 
d="M814 1444q-224 0 -361 180l75 66q106 -148 286 -148t282 148l75 -66q-133 -180 -357 -180zM822 -27q-312 0 -515 198t-203 511t203 510t513 197t517 -256l-135 -84q-66 86 -171 137t-224 51q-225 0 -376 -157q-151 -156 -151 -398t152 -400q150 -158 375 -157
q113 0 210 44t157 103v279h-469v151h638v-493q-209 -236 -521 -236z" />
    <glyph glyph-name="gbreve" unicode="&#x11f;" horiz-adv-x="1175" 
d="M595 1102q-224 0 -362 180l76 66q105 -148 285 -148t283 148l75 -66q-133 -180 -357 -180zM573 123q88 0 171 47t124 115v432q-41 67 -123 113t-172 47q-147 -1 -232 -105t-85 -271t86 -273t231 -105zM551 -401q-131 -1 -223 31t-176 116l77 115q113 -135 322 -135
q137 0 227 72t90 225v141q-55 -78 -143 -127t-188 -49q-197 0 -319 138t-122 374t122 374t322 140q200 0 328 -174v149h154v-960q0 -227 -133 -329t-338 -101z" />
    <glyph glyph-name="Gdotaccent" unicode="&#x120;" horiz-adv-x="1460" 
d="M811 1479q-39 1 -68 29t-28 67t29 67t67 29t67 -27t28 -69t-28 -69q-28 -27 -67 -27zM822 -27q-312 0 -515 198t-203 511t203 510t513 197t517 -256l-135 -84q-66 86 -171 137t-224 51q-225 0 -376 -157q-151 -156 -151 -398t152 -400q150 -158 375 -157q113 0 210 44
t157 103v279h-469v151h638v-493q-209 -236 -521 -236z" />
    <glyph glyph-name="gdotaccent" unicode="&#x121;" horiz-adv-x="1175" 
d="M592 1137q-39 1 -68 29t-28 67q0 39 28 67t68 29q38 1 66 -27t28 -69t-28 -69t-66 -27zM573 123q88 0 171 47t124 115v432q-41 67 -123 113t-172 47q-147 -1 -232 -105t-85 -271t86 -273t231 -105zM551 -401q-131 -1 -223 31t-176 116l77 115q113 -135 322 -135
q137 0 227 72t90 225v141q-55 -78 -143 -127t-188 -49q-197 0 -319 138t-122 374t122 374t322 140q200 0 328 -174v149h154v-960q0 -227 -133 -329t-338 -101z" />
    <glyph glyph-name="Gcommaaccent" unicode="&#x122;" horiz-adv-x="1460" 
d="M822 -27q-312 0 -515 198t-203 511t203 510t513 197t517 -256l-135 -84q-66 86 -171 137t-224 51q-225 0 -376 -157q-151 -156 -151 -398t152 -400q150 -158 375 -157q113 0 210 44t157 103v279h-469v151h638v-493q-209 -236 -521 -236zM812 -145q42 1 74 -37t32 -110
t-41 -144q-41 -74 -105 -121l-67 53q47 31 80 81q34 50 38 95q-3 -4 -31 -4t-53 26t-25 66t28 67q28 28 70 28z" />
    <glyph glyph-name="gcommaaccent" unicode="&#x123;" horiz-adv-x="1175" 
d="M573 123q88 0 171 47t124 115v432q-41 67 -123 113t-172 47q-147 -1 -232 -105t-85 -271t86 -273t231 -105zM551 -401q-131 -1 -223 31t-176 116l77 115q113 -135 322 -135q137 0 227 72t90 225v141q-55 -78 -143 -127t-188 -49q-197 0 -319 138t-122 374t122 374
t322 140q200 0 328 -174v149h154v-960q0 -227 -133 -329t-338 -101zM487 1266q0 74 40 152q40 79 102 122l67 -55q-45 -31 -80 -79t-36 -93q4 2 10 2q34 0 64 -28q30 -29 30 -65t-29 -65t-69 -29t-69 32q-30 32 -30 106z" />
    <glyph glyph-name="Hcircumflex" unicode="&#x124;" horiz-adv-x="1458" 
d="M1298 0h-170v627h-798v-627h-170v1366h170v-588h798v588h170v-1366zM995 1481h-104l-170 217l-164 -217h-104l194 295h148z" />
    <glyph glyph-name="hcircumflex" unicode="&#x125;" horiz-adv-x="1130" 
d="M977 0h-154v651q-1 223 -211 225q-96 0 -177 -44q-81 -46 -128 -109v-723h-153v1366h153v-520q57 68 153 118t202 50q315 0 315 -316v-698zM840 1481h-105l-170 217l-164 -217h-104l195 295h147z" />
    <glyph glyph-name="Hbar" unicode="&#x126;" horiz-adv-x="1497" 
d="M350 778h799v242h-799v-242zM1319 0h-170v627h-799v-627h-170v1020h-160v98h160v248h170v-248h799v248h170v-248h158v-98h-158v-1020z" />
    <glyph glyph-name="hbar" unicode="&#x127;" horiz-adv-x="1134" 
d="M631 1096h-320v-250q57 68 153 118t202 50q315 0 315 -316v-698h-154v651q-1 223 -211 225q-96 0 -177 -44q-81 -46 -128 -109v-723h-153v1096h-140v98h140v172h153v-172h320v-98z" />
    <glyph glyph-name="Itilde" unicode="&#x128;" horiz-adv-x="489" 
d="M367 1477q-51 -1 -89 29t-57 65q-47 94 -111 94q-38 0 -66 -44t-28 -132h-92q0 123 52 199t147 75q49 1 87 -29t57 -65q51 -94 101 -94q105 0 105 176h92q0 -123 -52 -199t-146 -75zM330 0h-170v1366h170v-1366z" />
    <glyph glyph-name="itilde" unicode="&#x129;" horiz-adv-x="460" 
d="M352 1135q-51 -1 -89 29t-56 65q-48 94 -107 94q-42 0 -70 -44t-28 -132h-92q0 123 52 199t147 75q49 1 87 -29t57 -65q51 -94 101 -94q49 0 77 44t28 132h92q0 -123 -52 -199q-53 -75 -147 -75zM307 0h-153v989h153v-989z" />
    <glyph glyph-name="Imacron" unicode="&#x12a;" horiz-adv-x="489" 
d="M618 1513h-743v99h743v-99zM330 0h-170v1366h170v-1366z" />
    <glyph glyph-name="imacron" unicode="&#x12b;" horiz-adv-x="460" 
d="M602 1171h-743v99h743v-99zM307 0h-153v989h153v-989z" />
    <glyph glyph-name="Ibreve" unicode="&#x12c;" horiz-adv-x="489" 
d="M249 1444q-224 0 -362 180l76 66q105 -148 285 -148t282 148l76 -66q-133 -180 -357 -180zM330 0h-170v1366h170v-1366z" />
    <glyph glyph-name="ibreve" unicode="&#x12d;" horiz-adv-x="460" 
d="M232 1102q-224 0 -361 180l76 66q106 -148 285 -148t282 148l76 -66q-134 -180 -358 -180zM307 0h-153v989h153v-989z" />
    <glyph glyph-name="Iogonek" unicode="&#x12e;" horiz-adv-x="489" 
d="M264 -381q-78 0 -130 45t-52 133q0 117 108 203h-30v1366h170v-1366q-156 -78 -156 -199q0 -102 90 -102q78 0 107 86l75 -43q-53 -123 -182 -123z" />
    <glyph glyph-name="iogonek" unicode="&#x12f;" horiz-adv-x="460" 
d="M230 1130q-42 0 -72 30t-31 73q0 43 31 74q30 31 72 31t73 -32q31 -30 31 -73t-31 -73t-73 -30zM242 -381q-78 0 -130 45t-53 133q0 117 109 203h-14v989h153v-989q-156 -78 -155 -199q0 -102 90 -102q77 0 106 86l76 -43q-53 -123 -182 -123z" />
    <glyph glyph-name="Idotaccent" unicode="&#x130;" horiz-adv-x="489" 
d="M246 1479q-39 1 -68 29t-28 67q0 39 28 67t68 29q38 1 66 -27t28 -69t-28 -69t-66 -27zM330 0h-170v1366h170v-1366z" />
    <glyph glyph-name="dotlessi" unicode="&#x131;" horiz-adv-x="460" 
d="M307 0h-153v989h153v-989z" />
    <glyph glyph-name="IJ" unicode="&#x132;" horiz-adv-x="1460" 
d="M854 -25q-207 0 -342 158l88 129q113 -135 248 -135t210 79t75 208v952h170v-954q0 -213 -121 -325t-328 -112zM330 0h-170v1366h170v-1366z" />
    <glyph glyph-name="ij" unicode="&#x133;" horiz-adv-x="923" 
d="M768 -96q0 -145 -76 -225t-207 -80t-227 73l55 117q63 -63 139 -63t120 44q42 44 42 134v1085h154v-1085zM691 1130q-42 0 -73 30t-30 73q0 43 30 74q31 31 73 31t73 -32q31 -30 31 -73t-31 -73t-73 -30zM307 0h-153v989h153v-989zM230 1130q-42 0 -72 30t-31 73
q0 43 31 74q30 31 72 31t73 -32q31 -30 31 -73t-31 -73t-73 -30z" />
    <glyph glyph-name="Jcircumflex" unicode="&#x134;" horiz-adv-x="972" 
d="M813 412q-1 -213 -121 -325t-327 -112t-342 158l88 129q113 -135 248 -135t209 79t75 208v952h170v-954zM999 1481h-104l-170 217l-164 -217h-104l194 295h148z" />
    <glyph glyph-name="jcircumflex" unicode="&#x135;" horiz-adv-x="460" 
d="M307 -96q0 -145 -76 -225t-207 -80t-227 73l56 117q63 -63 139 -63t119 44t43 134v1085h153v-1085zM506 1139h-105l-170 217l-163 -217h-105l195 295h147z" />
    <glyph glyph-name="Kcommaaccent" unicode="&#x136;" horiz-adv-x="1241" 
d="M330 0h-170v1366h170v-707l604 707h213l-569 -649l618 -717h-211l-518 614l-137 -155v-459zM737 -292q0 -72 -41 -144q-41 -74 -104 -121l-68 53q47 31 81 81t38 95q-3 -4 -31 -4t-53 26t-25 66t28 67q28 28 70 28t74 -37q31 -38 31 -110z" />
    <glyph glyph-name="kcommaaccent" unicode="&#x137;" horiz-adv-x="1052" 
d="M307 0h-153v1366h153v-903l520 526h195l-438 -448l440 -541h-197l-356 444l-164 -161v-283zM538 -145q42 1 74 -37t31 -110q0 -72 -41 -144q-41 -74 -104 -121l-68 53q47 31 81 81t38 95q-4 -4 -32 -4q-29 0 -53 26t-24 66t28 67q28 28 70 28z" />
    <glyph glyph-name="kgreenlandic" unicode="&#x138;" horiz-adv-x="1052" 
d="M307 0h-153v989h153v-526l520 526h195l-438 -448l440 -541h-197l-356 444l-164 -161v-283z" />
    <glyph glyph-name="Lacute" unicode="&#x139;" horiz-adv-x="1044" 
d="M965 0h-805v1366h170v-1214h635v-152zM907 1776l-346 -295h-117l304 295h159z" />
    <glyph glyph-name="lacute" unicode="&#x13a;" horiz-adv-x="460" 
d="M307 0h-153v1366h153v-1366zM578 1776l-347 -295h-116l303 295h160z" />
    <glyph glyph-name="Lcommaaccent" unicode="&#x13b;" horiz-adv-x="1044" 
d="M965 0h-805v1366h170v-1214h635v-152zM653 -292q0 -72 -41 -144q-41 -74 -104 -121l-68 53q47 31 81 81t38 95q-3 -4 -31 -4t-53 26t-25 66t28 67q28 28 70 28t74 -37q31 -38 31 -110z" />
    <glyph glyph-name="lcommaaccent" unicode="&#x13c;" horiz-adv-x="460" 
d="M307 0h-153v1366h153v-1366zM243 -145q41 1 73 -37t32 -110t-41 -144q-41 -74 -104 -121l-68 53q47 31 81 81t38 95q-4 -4 -32 -4t-52 26t-25 66q0 40 28 67q28 28 70 28z" />
    <glyph glyph-name="Lcaron" unicode="&#x13d;" horiz-adv-x="1044" 
d="M965 0h-805v1366h170v-1214h635v-152zM620 1393q42 1 73 -37q32 -38 32 -110t-41 -144q-41 -74 -104 -121l-68 53q47 31 81 81t38 95q-4 -4 -32 -4q-29 0 -53 26t-24 66t28 67q28 28 70 28z" />
    <glyph glyph-name="lcaron" unicode="&#x13e;" horiz-adv-x="595" 
d="M307 0h-153v1366h153v-1366zM532 1393q42 1 73 -37q32 -38 32 -110t-41 -144q-41 -74 -104 -121l-68 53q47 31 81 81t38 95q-4 -4 -32 -4q-29 0 -53 26t-24 66t28 67q28 28 70 28z" />
    <glyph glyph-name="Ldot" unicode="&#x13f;" horiz-adv-x="1044" 
d="M756 811q48 0 80 -33t32 -79q0 -47 -34 -79t-78 -32q-45 0 -79 33t-34 79t33 78q33 33 80 33zM965 0h-805v1366h170v-1214h635v-152z" />
    <glyph glyph-name="ldot" unicode="&#x140;" horiz-adv-x="628" 
d="M657 500q1 -45 -33 -78t-79 -33t-79 33t-34 78t34 79q34 33 79 33t79 -33q33 -34 33 -79zM307 0h-153v1366h153v-1366z" />
    <glyph glyph-name="Lslash" unicode="&#x141;" horiz-adv-x="1083" 
d="M199 1366h170v-565l198 114v-147l-198 -115v-501h635v-152h-805v555l-179 -102v147l179 102v664z" />
    <glyph glyph-name="lslash" unicode="&#x142;" horiz-adv-x="587" 
d="M217 1366h154v-575l194 110v-123l-194 -110v-668h-154v580l-197 -113v123l197 112v664z" />
    <glyph glyph-name="Nacute" unicode="&#x143;" horiz-adv-x="1449" 
d="M1290 0h-164l-796 1090v-1090h-170v1366h174l786 -1067v1067h170v-1366zM1087 1776l-346 -295h-116l303 295h159z" />
    <glyph glyph-name="nacute" unicode="&#x144;" horiz-adv-x="1128" 
d="M975 0h-154v647q-1 227 -211 229q-96 0 -177 -44q-81 -46 -126 -109v-723h-153v989h153v-143q57 68 153 118t199 50q315 0 316 -320v-694zM909 1434l-346 -295h-117l304 295h159z" />
    <glyph glyph-name="Ncommaaccent" unicode="&#x145;" horiz-adv-x="1449" 
d="M1290 0h-164l-796 1090v-1090h-170v1366h174l786 -1067v1067h170v-1366zM736 -145q42 1 74 -37t32 -110t-41 -144q-41 -74 -105 -121l-67 53q47 31 81 81t38 95q-4 -4 -32 -4t-52 26t-25 66q0 40 28 67q27 28 69 28z" />
    <glyph glyph-name="ncommaaccent" unicode="&#x146;" horiz-adv-x="1128" 
d="M975 0h-154v647q-1 227 -211 229q-96 0 -177 -44q-81 -46 -126 -109v-723h-153v989h153v-143q57 68 153 118t199 50q315 0 316 -320v-694zM570 -145q42 1 74 -37t32 -110t-41 -144q-41 -74 -105 -121l-67 53q47 31 81 81t38 95q-4 -4 -32 -4t-52 26t-25 66q0 40 28 67
q27 28 69 28z" />
    <glyph glyph-name="Ncaron" unicode="&#x147;" horiz-adv-x="1449" 
d="M1290 0h-164l-796 1090v-1090h-170v1366h174l786 -1067v1067h170v-1366zM799 1481h-148l-200 295h104l170 -217l164 217h104z" />
    <glyph glyph-name="ncaron" unicode="&#x148;" horiz-adv-x="1128" 
d="M975 0h-154v647q-1 227 -211 229q-96 0 -177 -44q-81 -46 -126 -109v-723h-153v989h153v-143q57 68 153 118t199 50q315 0 316 -320v-694zM643 1139h-147l-201 295h104l170 -217l164 217h105z" />
    <glyph glyph-name="napostrophe" unicode="&#x149;" horiz-adv-x="1128" 
d="M975 0h-154v647q-1 227 -211 229q-96 0 -177 -44q-81 -46 -126 -109v-723h-153v989h153v-143q57 68 153 118t199 50q315 0 316 -320v-694zM224 1522q42 0 74 -38t32 -108q0 -72 -41 -146t-105 -120l-67 53q47 31 81 81t38 95q-4 -4 -32 -4t-52 26q-24 25 -25 65
q0 40 28 68q27 28 69 28z" />
    <glyph glyph-name="Eng" unicode="&#x14a;" horiz-adv-x="1449" 
d="M1290 31q0 -213 -120 -323t-328 -109q-207 0 -342 157l90 129q109 -135 256 -135q118 0 192 71t80 187l-788 1082v-1090h-170v1366h174l786 -1067v1067h170v-1335z" />
    <glyph glyph-name="eng" unicode="&#x14b;" horiz-adv-x="1128" 
d="M975 694v-790q0 -146 -76 -226t-207 -80t-225 74l53 125q60 -61 138 -61t120 42t43 126v743q-1 227 -211 229q-96 0 -177 -44q-81 -46 -126 -109v-723h-153v989h153v-143q57 68 153 118t199 50q316 -1 316 -320z" />
    <glyph glyph-name="Omacron" unicode="&#x14c;" horiz-adv-x="1566" 
d="M281 682q0 -242 137 -398t363 -157q226 0 365 157q138 158 138 400t-138 398t-364 155q-226 0 -364 -156q-137 -157 -137 -399zM1460 682q0 -305 -190 -506t-489 -201q-300 0 -488 201t-189 506q0 305 188 506t489 201q299 0 489 -201t190 -506zM1153 1513h-743v99h743
v-99z" />
    <glyph glyph-name="omacron" unicode="&#x14d;" 
d="M586 113q152 -1 240 111t87 272q0 160 -88 270q-87 110 -239 111q-152 0 -241 -112q-89 -113 -89 -271t89 -270t241 -111zM586 -25q-221 0 -356 150q-134 150 -134 371t134 369q134 149 356 149t355 -148q134 -148 134 -370q0 -221 -134 -371t-355 -150zM956 1171h-743
v99h743v-99z" />
    <glyph glyph-name="Obreve" unicode="&#x14e;" horiz-adv-x="1566" 
d="M784 1444q-224 0 -362 180l76 66q106 -148 285 -148t282 148l76 -66q-133 -180 -357 -180zM281 682q0 -242 137 -398t363 -157q226 0 365 157q138 158 138 400t-138 398t-364 155q-226 0 -364 -156q-137 -157 -137 -399zM1460 682q0 -305 -190 -506t-489 -201
q-300 0 -488 201t-189 506q0 305 188 506t489 201q299 0 489 -201t190 -506z" />
    <glyph glyph-name="obreve" unicode="&#x14f;" 
d="M589 1102q-224 0 -362 180l76 66q105 -148 285 -148t282 148l76 -66q-133 -180 -357 -180zM586 113q152 -1 240 111t87 272q0 160 -88 270q-87 110 -239 111q-152 0 -241 -112q-89 -113 -89 -271t89 -270t241 -111zM586 -25q-221 0 -356 150q-134 150 -134 371t134 369
q134 149 356 149t355 -148q134 -148 134 -370q0 -221 -134 -371t-355 -150z" />
    <glyph glyph-name="Ohungarumlaut" unicode="&#x150;" horiz-adv-x="1566" 
d="M281 682q0 -242 137 -398t363 -157q226 0 365 157q138 158 138 400t-138 398t-364 155q-226 0 -364 -156q-137 -157 -137 -399zM1460 682q0 -305 -190 -506t-489 -201q-300 0 -488 201t-189 506q0 305 188 506t489 201q299 0 489 -201t190 -506zM1182 1776l-236 -295h-98
l192 295h142zM891 1776l-236 -295h-98l193 295h141z" />
    <glyph glyph-name="ohungarumlaut" unicode="&#x151;" 
d="M586 113q152 -1 240 111t87 272q0 160 -88 270q-87 110 -239 111q-152 0 -241 -112q-89 -113 -89 -271t89 -270t241 -111zM586 -25q-221 0 -356 150q-134 150 -134 371t134 369q134 149 356 149t355 -148q134 -148 134 -370q0 -221 -134 -371t-355 -150zM985 1434
l-235 -295h-99l193 295h141zM694 1434l-235 -295h-99l193 295h141z" />
    <glyph glyph-name="OE" unicode="&#x152;" horiz-adv-x="2263" 
d="M786 1235q-229 0 -367 -155q-138 -154 -138 -398t138 -400t367 -155q162 0 286 85t183 245v450q-59 160 -183 244t-286 84zM2152 0h-897v246q-73 -129 -205 -200t-282 -71q-295 0 -479 201t-185 506q0 305 184 505t480 199q150 0 282 -70t205 -198v248h897v-152h-727
v-440h713v-151h-713v-471h727v-152z" />
    <glyph glyph-name="oe" unicode="&#x153;" horiz-adv-x="1970" 
d="M913 495q0 163 -89 273q-88 110 -238 109q-150 0 -240 -110q-90 -109 -90 -271t90 -274t240 -112t238 112q88 110 89 273zM1075 557h651q-4 127 -88 228t-235 101t-237 -100t-91 -229zM1876 444h-799q9 -145 105 -243q96 -99 264 -99t293 125l73 -100
q-156 -152 -393 -152q-170 0 -272 85t-154 198q-127 -283 -407 -283q-221 0 -356 150q-134 150 -134 371t134 369q134 149 357 149t358 -193q30 -43 50 -90q45 107 147 195t259 88q219 0 347 -151t128 -380v-39z" />
    <glyph glyph-name="Racute" unicode="&#x154;" horiz-adv-x="1245" 
d="M688 692q121 0 197 74t76 188t-76 188q-76 73 -197 72h-358v-522h358zM330 543v-543h-170v1366h549q190 0 309 -113t119 -294q-1 -181 -103 -285t-252 -117l369 -557h-201l-348 543h-272zM983 1776l-346 -295h-117l303 295h160z" />
    <glyph glyph-name="racute" unicode="&#x155;" horiz-adv-x="675" 
d="M307 0h-153v989h153v-160q137 180 330 181v-158q-29 6 -81 6t-132 -49q-82 -49 -117 -109v-700zM741 1434l-346 -295h-116l303 295h159z" />
    <glyph glyph-name="Rcommaaccent" unicode="&#x156;" horiz-adv-x="1245" 
d="M688 692q121 0 197 74t76 188t-76 188q-76 73 -197 72h-358v-522h358zM330 543v-543h-170v1366h549q190 0 309 -113t119 -294q-1 -181 -103 -285t-252 -117l369 -557h-201l-348 543h-272zM741 -292q0 -72 -41 -144q-41 -74 -104 -121l-68 53q47 31 81 81t38 95
q-3 -4 -31 -4t-53 26t-25 66t28 67q28 28 70 28t74 -37q31 -38 31 -110z" />
    <glyph glyph-name="rcommaaccent" unicode="&#x157;" horiz-adv-x="675" 
d="M307 0h-153v989h153v-160q137 180 330 181v-158q-29 6 -81 6t-132 -49q-82 -49 -117 -109v-700zM348 -145q42 1 73 -37q32 -38 32 -110t-41 -144q-41 -74 -105 -121l-67 53q47 31 81 81t37 95q-4 -4 -32 -4t-52 26t-24 66t28 67q28 28 70 28z" />
    <glyph glyph-name="Rcaron" unicode="&#x158;" horiz-adv-x="1245" 
d="M688 692q121 0 197 74t76 188t-76 188q-76 73 -197 72h-358v-522h358zM330 543v-543h-170v1366h549q190 0 309 -113t119 -294q-1 -181 -103 -285t-252 -117l369 -557h-201l-348 543h-272zM702 1481h-147l-201 295h105l170 -217l164 217h104z" />
    <glyph glyph-name="rcaron" unicode="&#x159;" horiz-adv-x="675" 
d="M307 0h-153v989h153v-160q137 180 330 181v-158q-29 6 -81 6t-132 -49q-82 -49 -117 -109v-700zM469 1139h-147l-201 295h104l170 -217l164 217h105z" />
    <glyph glyph-name="Sacute" unicode="&#x15a;" horiz-adv-x="1200" 
d="M602 -25q-332 0 -524 218l100 129q174 -195 430 -195q166 0 244 71q78 72 78 154t-45 131t-116 77t-226 68t-244 89q-178 99 -178 279t133 285t336 105q305 0 485 -190l-102 -125q-150 164 -395 164q-123 0 -202 -60q-79 -61 -79 -145t60 -131q59 -47 149 -70
q221 -57 390 -128q89 -38 150 -121q60 -84 60 -203q0 -168 -124 -285t-380 -117zM942 1776l-346 -295h-117l303 295h160z" />
    <glyph glyph-name="sacute" unicode="&#x15b;" horiz-adv-x="952" 
d="M467 -25q-252 0 -399 156l79 111q51 -58 141 -100t192 -42q104 0 165 47t61 118t-62 109q-64 38 -154 57t-179 45q-90 26 -153 88q-64 62 -64 174t100 194t269 82q223 0 366 -144l-71 -106q-104 125 -295 125q-99 0 -159 -44q-60 -43 -60 -107t63 -98t153 -53t179 -46
t153 -94t64 -185t-102 -203q-102 -84 -287 -84zM813 1434l-346 -295h-117l303 295h160z" />
    <glyph glyph-name="Scircumflex" unicode="&#x15c;" horiz-adv-x="1200" 
d="M602 -25q-332 0 -524 218l100 129q174 -195 430 -195q166 0 244 71q78 72 78 154t-45 131t-116 77t-226 68t-244 89q-178 99 -178 279t133 285t336 105q305 0 485 -190l-102 -125q-150 164 -395 164q-123 0 -202 -60q-79 -61 -79 -145t60 -131q59 -47 149 -70
q221 -57 390 -128q89 -38 150 -121q60 -84 60 -203q0 -168 -124 -285t-380 -117zM856 1481h-104l-170 217l-164 -217h-105l195 295h147z" />
    <glyph glyph-name="scircumflex" unicode="&#x15d;" horiz-adv-x="952" 
d="M467 -25q-252 0 -399 156l79 111q51 -58 141 -100t192 -42q104 0 165 47t61 118t-62 109q-64 38 -154 57t-179 45q-90 26 -153 88q-64 62 -64 174t100 194t269 82q223 0 366 -144l-71 -106q-104 125 -295 125q-99 0 -159 -44q-60 -43 -60 -107t63 -98t153 -53t179 -46
t153 -94t64 -185t-102 -203q-102 -84 -287 -84zM739 1139h-104l-170 217l-164 -217h-104l194 295h148z" />
    <glyph glyph-name="Scedilla" unicode="&#x15e;" horiz-adv-x="1200" 
d="M803 -234q1 -68 -61 -112q-62 -45 -172 -45t-187 61l39 78q72 -59 164 -59q51 -1 88 23t37 63q0 72 -76 71q-47 0 -78 -34l-68 38l48 127q-287 23 -459 216l100 129q174 -195 430 -195q166 0 244 71q78 72 78 154t-45 131t-116 77t-226 68t-244 89q-178 99 -178 279
t133 285t336 105q305 0 485 -190l-102 -125q-150 164 -395 164q-123 0 -202 -60q-79 -61 -79 -145t60 -131q59 -47 149 -70q221 -57 390 -128q89 -38 150 -121q60 -84 60 -203q0 -164 -118 -280t-361 -122l-35 -88q33 23 84 23t89 -38t38 -106z" />
    <glyph glyph-name="scedilla" unicode="&#x15f;" horiz-adv-x="952" 
d="M678 -234q0 -68 -62 -112q-62 -45 -170 -45q-110 0 -188 61l39 78q72 -59 164 -59q51 -1 88 23t37 63q0 72 -76 71q-47 0 -78 -34l-67 38l47 127q-215 16 -344 154l79 111q51 -58 141 -100t192 -42q104 0 165 47t61 118t-62 109q-64 38 -154 57t-179 45q-90 26 -153 88
q-64 62 -64 174t100 194t269 82q223 0 366 -144l-71 -106q-104 125 -295 125q-99 0 -159 -44q-60 -43 -60 -107t63 -98t153 -53t179 -46t153 -94t64 -183t-92 -196q-92 -82 -262 -91l-35 -90q33 23 84 23t89 -38t38 -106z" />
    <glyph glyph-name="Scaron" unicode="&#x160;" horiz-adv-x="1200" 
d="M602 -25q-332 0 -524 218l100 129q174 -195 430 -195q166 0 244 71q78 72 78 154t-45 131t-116 77t-226 68t-244 89q-178 99 -178 279t133 285t336 105q305 0 485 -190l-102 -125q-150 164 -395 164q-123 0 -202 -60q-79 -61 -79 -145t60 -131q59 -47 149 -70
q221 -57 390 -128q89 -38 150 -121q60 -84 60 -203q0 -168 -124 -285t-380 -117zM662 1481h-148l-201 295h105l170 -217l164 217h104z" />
    <glyph glyph-name="scaron" unicode="&#x161;" horiz-adv-x="952" 
d="M467 -25q-252 0 -399 156l79 111q51 -58 141 -100t192 -42q104 0 165 47t61 118t-62 109q-64 38 -154 57t-179 45q-90 26 -153 88q-64 62 -64 174t100 194t269 82q223 0 366 -144l-71 -106q-104 125 -295 125q-99 0 -159 -44q-60 -43 -60 -107t63 -98t153 -53t179 -46
t153 -94t64 -185t-102 -203q-102 -84 -287 -84zM545 1139h-148l-200 295h104l170 -217l164 217h104z" />
    <glyph glyph-name="Tcommaaccent" unicode="&#x162;" horiz-adv-x="1167" 
d="M668 0h-170v1214h-432v152h1036v-152h-434v-1214zM698 -292q0 -72 -41 -144q-41 -74 -104 -121l-68 53q47 31 81 81t38 95q-4 -4 -32 -4t-52 26t-24 66t27 67q28 28 70 28t74 -37q31 -38 31 -110z" />
    <glyph glyph-name="tcommaaccent" unicode="&#x163;" horiz-adv-x="602" 
d="M338 240q0 -128 110 -128q58 0 95 42l45 -115q-68 -64 -181 -64q-221 0 -223 232v647h-164v135h164v271h154v-271h201v-135h-201v-614zM310 -145q42 1 74 -37t32 -110t-41 -144q-41 -74 -105 -121l-67 53q47 31 81 81t38 95q-4 -4 -32 -4t-52 26t-25 66q0 40 28 67
q27 28 69 28z" />
    <glyph glyph-name="Tcaron" unicode="&#x164;" horiz-adv-x="1167" 
d="M668 0h-170v1214h-432v152h1036v-152h-434v-1214zM659 1481h-147l-201 295h105l170 -217l164 217h104z" />
    <glyph glyph-name="tcaron" unicode="&#x165;" horiz-adv-x="641" 
d="M338 240q0 -128 110 -128q58 0 95 42l45 -115q-68 -64 -181 -64q-221 0 -223 232v647h-164v135h164v271h154v-271h201v-135h-201v-614zM560 1522q42 0 74 -38t32 -108q0 -72 -41 -146t-105 -120l-67 53q47 31 81 81t37 95q-3 -4 -31 -4t-53 26q-25 25 -25 65t28 68t70 28
z" />
    <glyph glyph-name="Tbar" unicode="&#x166;" horiz-adv-x="1167" 
d="M668 0h-170v602h-308v98h308v514h-432v152h1036v-152h-434v-514h311v-98h-311v-602z" />
    <glyph glyph-name="tbar" unicode="&#x167;" horiz-adv-x="602" 
d="M338 240q0 -128 110 -128q58 0 95 42l45 -115q-68 -64 -181 -64q-221 0 -223 232v256h-164v98h164v293h-164v135h164v271h154v-271h201v-135h-201v-293h143v-98h-143v-223z" />
    <glyph glyph-name="Utilde" unicode="&#x168;" horiz-adv-x="1433" 
d="M844 1477q-51 -1 -89 29t-57 65q-48 94 -112 94q-38 0 -65 -44q-28 -44 -27 -132h-93q1 123 53 199t146 75q49 1 87 -29t57 -65q51 -94 101 -94t78 44t27 132h92q0 -123 -52 -199t-146 -75zM717 -25q-273 1 -415 149t-142 406v836h170v-831q0 -190 100 -299t286 -109
t288 109q100 109 100 299v831h170v-834q0 -260 -142 -408t-415 -149z" />
    <glyph glyph-name="utilde" unicode="&#x169;" horiz-adv-x="1128" 
d="M686 1135q-51 -1 -89 29t-56 65q-48 94 -107 94q-42 0 -70 -44t-28 -132h-92q0 123 52 199t146 75q49 1 87 -29q37 -30 57 -65q52 -94 102 -94q49 0 77 44t28 132h92q0 -123 -52 -199q-53 -75 -147 -75zM307 338q0 -225 210 -225q97 0 178 43t126 106v727h154v-989h-154
v139q-61 -71 -154 -117t-198 -47q-315 0 -315 316v698h153v-651z" />
    <glyph glyph-name="Umacron" unicode="&#x16a;" horiz-adv-x="1433" 
d="M1090 1513h-744v99h744v-99zM717 -25q-273 1 -415 149t-142 406v836h170v-831q0 -190 100 -299t286 -109t288 109q100 109 100 299v831h170v-834q0 -260 -142 -408t-415 -149z" />
    <glyph glyph-name="umacron" unicode="&#x16b;" horiz-adv-x="1128" 
d="M934 1171h-744v99h744v-99zM307 338q0 -225 210 -225q97 0 178 43t126 106v727h154v-989h-154v139q-61 -71 -154 -117t-198 -47q-315 0 -315 316v698h153v-651z" />
    <glyph glyph-name="Ubreve" unicode="&#x16c;" horiz-adv-x="1433" 
d="M724 1444q-224 0 -362 180l76 66q106 -148 286 -148t282 148l75 -66q-133 -180 -357 -180zM717 -25q-273 1 -415 149t-142 406v836h170v-831q0 -190 100 -299t286 -109t288 109q100 109 100 299v831h170v-834q0 -260 -142 -408t-415 -149z" />
    <glyph glyph-name="ubreve" unicode="&#x16d;" horiz-adv-x="1128" 
d="M568 1102q-224 0 -361 180l76 66q106 -148 285 -148t282 148l76 -66q-134 -180 -358 -180zM307 338q0 -225 210 -225q97 0 178 43t126 106v727h154v-989h-154v139q-61 -71 -154 -117t-198 -47q-315 0 -315 316v698h153v-651z" />
    <glyph glyph-name="Uring" unicode="&#x16e;" horiz-adv-x="1433" 
d="M717 -25q-273 1 -415 149t-142 406v836h170v-831q0 -190 100 -299t286 -109t288 109q100 109 100 299v831h170v-834q0 -260 -142 -408t-415 -149zM719 1534q49 0 84 36t35 86t-34 85t-84 35t-85 -35t-35 -85t35 -86t84 -36zM719 1454q-84 0 -142 59q-59 59 -59 143
t60 142q60 60 141 60q82 0 141 -60q60 -60 60 -142t-58 -142t-143 -60z" />
    <glyph glyph-name="uring" unicode="&#x16f;" horiz-adv-x="1128" 
d="M307 338q0 -225 210 -225q97 0 178 43t126 106v727h154v-989h-154v139q-61 -71 -154 -117t-198 -47q-315 0 -315 316v698h153v-651zM565 1192q49 0 84 36t35 86t-34 85t-84 35t-85 -35t-35 -85t35 -86t84 -36zM565 1112q-82 0 -141 58t-59 142t59 144t141 60
q81 0 141 -60t60 -143q0 -84 -59 -143q-60 -58 -142 -58z" />
    <glyph glyph-name="Uhungarumlaut" unicode="&#x170;" horiz-adv-x="1433" 
d="M1118 1776l-235 -295h-99l193 295h141zM827 1776l-235 -295h-98l192 295h141zM717 -25q-273 1 -415 149t-142 406v836h170v-831q0 -190 100 -299t286 -109t288 109q100 109 100 299v831h170v-834q0 -260 -142 -408t-415 -149z" />
    <glyph glyph-name="uhungarumlaut" unicode="&#x171;" horiz-adv-x="1128" 
d="M965 1434l-236 -295h-98l192 295h142zM674 1434l-236 -295h-98l192 295h142zM307 338q0 -225 210 -225q97 0 178 43t126 106v727h154v-989h-154v139q-61 -71 -154 -117t-198 -47q-315 0 -315 316v698h153v-651z" />
    <glyph glyph-name="Uogonek" unicode="&#x172;" horiz-adv-x="1433" 
d="M717 -25q-273 1 -415 149t-142 406v836h170v-831q0 -190 100 -299t286 -109t288 109q100 109 100 299v831h170v-834q0 -207 -91 -345t-268 -187q-156 -78 -155 -199q0 -102 90 -102q78 0 106 86l76 -43q-53 -123 -182 -123q-78 0 -130 45t-52 138t80 173h-31z" />
    <glyph glyph-name="uogonek" unicode="&#x173;" horiz-adv-x="1128" 
d="M307 338q0 -225 210 -225q97 0 178 43t126 106v727h154v-989q-156 -78 -156 -199q0 -102 90 -102q78 0 107 86l76 -43q-53 -123 -183 -123q-78 0 -130 45t-52 133q0 117 109 203h-15v139q-61 -71 -154 -117t-198 -47q-315 0 -315 316v698h153v-651z" />
    <glyph glyph-name="Wcircumflex" unicode="&#x174;" horiz-adv-x="1808" 
d="M1389 0h-185l-301 1102l-301 -1102h-184l-389 1366h188l303 -1139l314 1139h141l313 -1139l301 1139h189zM1176 1481h-105l-170 217l-164 -217h-104l194 295h148z" />
    <glyph glyph-name="wcircumflex" unicode="&#x175;" horiz-adv-x="1503" 
d="M1163 0h-153l-258 795l-258 -795h-154l-315 989h159l242 -788l260 788h131l260 -788l242 788h160zM1024 1139h-104l-170 217l-164 -217h-105l195 295h147z" />
    <glyph glyph-name="Ycircumflex" unicode="&#x176;" horiz-adv-x="1282" 
d="M727 0h-170v578l-539 788h199l424 -635l424 635h199l-537 -788v-578zM915 1481h-104l-170 217l-164 -217h-104l194 295h148z" />
    <glyph glyph-name="ycircumflex" unicode="&#x177;" horiz-adv-x="1003" 
d="M774 1139h-104l-170 217l-164 -217h-105l195 295h147zM210 -264q50 0 85 22t59 82l66 150l-414 999h166l330 -811l327 811h168l-495 -1190q-82 -197 -291 -200q-62 0 -113 14l25 139q37 -16 87 -16z" />
    <glyph glyph-name="Ydieresis" unicode="&#x178;" horiz-adv-x="1282" 
d="M727 0h-170v578l-539 788h199l424 -635l424 635h199l-537 -788v-578zM528 1579q0 -39 -28 -68t-67 -29t-67 30q-28 28 -28 67t29 67t67 28t67 -28q27 -28 27 -67zM952 1579q0 -39 -28 -68t-68 -29q-39 0 -68 30q-29 28 -28 67q0 39 28 67q29 28 68 28t68 -28
q28 -28 28 -67z" />
    <glyph glyph-name="Zacute" unicode="&#x179;" horiz-adv-x="1198" 
d="M1098 0h-1000v141l768 1073h-768v152h985v-141l-768 -1073h783v-152zM944 1776l-346 -295h-117l303 295h160z" />
    <glyph glyph-name="zacute" unicode="&#x17a;" horiz-adv-x="966" 
d="M860 0h-754v119l545 735h-545v135h746v-117l-549 -739h557v-133zM827 1434l-346 -295h-116l303 295h159z" />
    <glyph glyph-name="Zdotaccent" unicode="&#x17b;" horiz-adv-x="1198" 
d="M594 1479q-39 1 -68 29t-28 67q0 39 28 67t68 29q38 1 66 -27t28 -69t-28 -69t-66 -27zM1098 0h-1000v141l768 1073h-768v152h985v-141l-768 -1073h783v-152z" />
    <glyph glyph-name="zdotaccent" unicode="&#x17c;" horiz-adv-x="966" 
d="M481 1137q-39 1 -67 29t-29 67q0 39 29 67q30 28 68 29t66 -27t28 -69t-28 -69q-28 -27 -67 -27zM860 0h-754v119l545 735h-545v135h746v-117l-549 -739h557v-133z" />
    <glyph glyph-name="Zcaron" unicode="&#x17d;" horiz-adv-x="1198" 
d="M1098 0h-1000v141l768 1073h-768v152h985v-141l-768 -1073h783v-152zM670 1481h-148l-200 295h104l170 -217l164 217h104z" />
    <glyph glyph-name="zcaron" unicode="&#x17e;" horiz-adv-x="966" 
d="M860 0h-754v119l545 735h-545v135h746v-117l-549 -739h557v-133zM549 1139h-148l-200 295h104l170 -217l164 217h104z" />
    <glyph glyph-name="longs" unicode="&#x17f;" horiz-adv-x="579" 
d="M350 0h-153v854h-164v135h164v76q0 152 76 237q77 84 207 84t212 -75l-63 -109q-53 47 -125 47t-113 -49t-41 -135v-1065z" />
    <glyph glyph-name="florin" unicode="&#x192;" horiz-adv-x="882" 
d="M100 520v139h168l94 418q31 143 127 227q95 84 223 82q128 0 199 -73l-75 -125q-37 47 -107 47t-125 -50t-76 -138l-86 -388h285v-139h-315l-189 -850h-172l189 850h-140z" />
    <glyph glyph-name="Ohorn" unicode="&#x1a0;" horiz-adv-x="1566" 
d="M281 682q0 -242 137 -398t363 -157q226 0 365 157q138 158 138 400t-138 398t-364 155q-226 0 -364 -156q-137 -157 -137 -399zM1460 682q0 -305 -190 -506t-489 -201q-300 0 -488 201t-189 506q0 305 188 506t497 201q308 0 503 -226q84 70 94 156q-4 -4 -30 -4
q-26 1 -50 25q-22 24 -22 60t25 62t65 27q40 0 69 -35q30 -34 30 -102t-38 -138t-96 -112q121 -186 121 -420z" />
    <glyph glyph-name="ohorn" unicode="&#x1a1;" 
d="M586 113q152 -1 240 111t87 272q0 160 -88 270q-87 110 -239 111q-152 0 -241 -112q-89 -113 -89 -271t89 -270t241 -111zM1079 1085q0 -145 -118 -245q115 -139 115 -352t-135 -363q-134 -150 -355 -150t-356 150q-134 150 -134 371t134 369q134 149 339 149t338 -117
q76 66 86 147l-22 -2q-35 0 -59 24t-24 60t26 62t66 26t70 -34q29 -36 29 -95z" />
    <glyph glyph-name="Uhorn" unicode="&#x1af;" horiz-adv-x="1433" 
d="M1511 1491q0 -98 -63 -184t-174 -131v-644q0 -260 -142 -408t-414 -148t-416 148q-142 148 -142 406v836h170v-831q0 -190 100 -299t286 -109t288 109q100 109 100 299v831h170v-111q59 31 102 85t47 110h-10q-8 -2 -12 -2q-35 0 -58 24t-22 60q0 36 26 62q25 26 65 26
t70 -35t29 -94z" />
    <glyph glyph-name="uhorn" unicode="&#x1b0;" horiz-adv-x="1128" 
d="M307 338q0 -225 210 -225q97 0 178 43t126 106v727h154v-98q98 74 104 166h-10q-7 -2 -27 -2q-20 -1 -44 23t-24 60t26 62t66 27q40 0 71 -35q31 -34 31 -108t-53 -154q-52 -80 -140 -127v-803h-154v139q-61 -71 -154 -117t-198 -47q-315 0 -315 316v698h153v-651z" />
    <glyph glyph-name="AEacute" unicode="&#x1fc;" horiz-adv-x="1939" 
d="M934 455v735l-455 -735h455zM1829 0h-895v303h-539l-186 -303h-195l852 1366h963v-152h-725v-440h711v-151h-711v-471h725v-152zM1368 1776l-346 -295h-117l303 295h160z" />
    <glyph glyph-name="aeacute" unicode="&#x1fd;" horiz-adv-x="1820" 
d="M821 369v24q-106 125 -297 125q-120 0 -194 -56t-74 -150t74 -149q74 -57 198 -57t208 80q85 80 85 183zM975 557h600q-2 129 -78 229t-217 100t-220 -100q-79 -102 -85 -229zM1726 444h-751q10 -145 98 -241q88 -97 246 -97t270 125l74 -104q-147 -152 -365 -152
q-279 0 -395 238q-53 -106 -163 -172t-261 -66t-266 87t-115 241t106 240t259 86q229 0 358 -131v176q0 96 -75 151t-197 56q-193 0 -330 -138l-72 107q162 164 420 164q131 0 227 -53t124 -162q123 215 366 215q207 0 325 -150t117 -381v-39zM1200 1434l-346 -295h-117
l303 295h160z" />
    <glyph glyph-name="Oslashacute" unicode="&#x1fe;" horiz-adv-x="1566" 
d="M782 1237q-227 1 -364 -155t-137 -407t149 -405l606 901q-115 66 -254 66zM782 127q225 0 364 157q138 156 138 410t-160 408l-608 -903q112 -72 266 -72zM782 -25q-199 0 -354 93l-45 -68h-135l90 133q-233 201 -234 549q0 305 188 506t490 201q188 0 342 -86l43 63h136
l-86 -127q117 -97 180 -241t63 -316q0 -305 -190 -506t-488 -201zM1130 1776l-346 -295h-116l303 295h159z" />
    <glyph glyph-name="oslashacute" unicode="&#x1ff;" 
d="M256 504q0 -150 70 -256l448 567q-78 61 -188 62q-152 1 -241 -111t-89 -262zM586 113q152 -1 240 111t87 267q0 155 -77 261l-451 -570q86 -69 201 -69zM96 494q0 224 134 371q134 148 356 149q162 0 280 -84l47 59h111l-92 -117q143 -147 143 -372t-134 -375t-355 -150
q-170 0 -291 93l-53 -68h-111l98 125q-133 145 -133 369zM932 1434l-346 -295h-117l303 295h160z" />
    <glyph glyph-name="Scommaaccent" unicode="&#x218;" horiz-adv-x="1200" 
d="M602 -25q-332 0 -524 218l100 129q174 -195 430 -195q166 0 244 71q78 72 78 154t-45 131t-116 77t-226 68t-244 89q-178 99 -178 279t133 285t336 105q305 0 485 -190l-102 -125q-150 164 -395 164q-123 0 -202 -60q-79 -61 -79 -145t60 -131q59 -47 149 -70
q221 -57 390 -128q89 -38 150 -121q60 -84 60 -203q0 -168 -124 -285t-380 -117zM601 -145q42 1 74 -37t32 -110t-41 -144q-41 -74 -105 -121l-67 53q47 31 80 81q34 50 38 95q-4 -4 -32 -4t-52 26t-24 66t27 67q28 28 70 28z" />
    <glyph glyph-name="scommaaccent" unicode="&#x219;" horiz-adv-x="952" 
d="M467 -25q-252 0 -399 156l79 111q51 -58 141 -100t192 -42q104 0 165 47t61 118t-62 109q-64 38 -154 57t-179 45q-90 26 -153 88q-64 62 -64 174t100 194t269 82q223 0 366 -144l-71 -106q-104 125 -295 125q-99 0 -159 -44q-60 -43 -60 -107t63 -98t153 -53t179 -46
t153 -94t64 -185t-102 -203q-102 -84 -287 -84zM490 -145q42 1 74 -37t32 -110t-41 -144q-41 -74 -104 -121l-68 53q47 31 81 81t38 95q-4 -4 -32 -4t-52 26t-25 66q0 40 28 67q27 28 69 28z" />
    <glyph glyph-name="uni021A" unicode="&#x21a;" horiz-adv-x="1167" 
d="M668 0h-170v1214h-432v152h1036v-152h-434v-1214zM698 -292q0 -72 -41 -144q-41 -74 -104 -121l-68 53q47 31 81 81t38 95q-4 -4 -32 -4t-52 26t-24 66t27 67q28 28 70 28t74 -37q31 -38 31 -110z" />
    <glyph glyph-name="uni021B" unicode="&#x21b;" horiz-adv-x="602" 
d="M338 240q0 -128 110 -128q58 0 95 42l45 -115q-68 -64 -181 -64q-221 0 -223 232v647h-164v135h164v271h154v-271h201v-135h-201v-614zM310 -145q42 1 74 -37t32 -110t-41 -144q-41 -74 -105 -121l-67 53q47 31 81 81t38 95q-4 -4 -32 -4t-52 26t-25 66q0 40 28 67
q27 28 69 28z" />
    <glyph glyph-name="uni0237" unicode="&#x237;" horiz-adv-x="460" 
d="M307 -96q0 -145 -76 -225t-207 -80t-227 73l56 117q63 -63 139 -63t119 44t43 134v1085h153v-1085z" />
    <glyph glyph-name="hsuperior" unicode="&#x2b0;" horiz-adv-x="815" 
d="M692 668h-119v413q0 147 -145 148q-111 0 -188 -94v-467h-117v888h117v-337q96 109 237 108q215 0 215 -219v-440z" />
    <glyph glyph-name="uni02BC" unicode="&#x2bc;" horiz-adv-x="471" 
d="M360 1222q0 -81 -47 -164t-120 -136l-76 63q49 33 88 87t45 104q-8 -4 -40 -4t-60 29q-28 30 -27 75q0 45 32 78q33 32 81 32t87 -41q37 -42 37 -123z" />
    <glyph glyph-name="circumflex" unicode="&#x2c6;" horiz-adv-x="542" 
d="M543 1139h-105l-170 217l-164 -217h-104l195 295h147z" />
    <glyph glyph-name="caron" unicode="&#x2c7;" horiz-adv-x="542" 
d="M348 1139h-147l-201 295h104l170 -217l164 217h105z" />
    <glyph glyph-name="uni02C9" unicode="&#x2c9;" horiz-adv-x="743" 
d="M743 1210h-743v99h743v-99z" />
    <glyph glyph-name="uni02CB" unicode="&#x2cb;" horiz-adv-x="462" 
d="M463 1139h-117l-346 295h160z" />
    <glyph glyph-name="breve" unicode="&#x2d8;" horiz-adv-x="718" 
d="M362 1102q-224 0 -362 180l76 66q106 -148 285 -148t282 148l76 -66q-133 -180 -357 -180z" />
    <glyph glyph-name="dotaccent" unicode="&#x2d9;" horiz-adv-x="227" 
d="M115 1137q-39 1 -68 29t-29 67t29 67t68 29t67 -27t27 -69q1 -41 -27 -69t-67 -27z" />
    <glyph glyph-name="ring" unicode="&#x2da;" horiz-adv-x="401" 
d="M201 1192q49 0 84 36t35 86t-34 85t-84 35t-85 -35t-35 -85t35 -86t84 -36zM201 1112q-82 0 -142 58q-59 58 -59 142t59 144t141 60t142 -60q59 -60 59 -143q0 -85 -59 -143t-141 -58z" />
    <glyph glyph-name="ogonek" unicode="&#x2db;" horiz-adv-x="364" 
d="M182 -381q-78 0 -130 45t-52 127t49 148t131 108l68 -47q-156 -78 -156 -199q0 -102 90 -102q78 0 107 86l76 -43q-53 -123 -183 -123z" />
    <glyph glyph-name="tilde" unicode="&#x2dc;" horiz-adv-x="641" 
d="M442 1135q-51 -1 -89 29t-56 65q-48 94 -107 94q-42 0 -70 -44t-28 -132h-92q0 123 52 199t147 75q49 1 87 -29t57 -65q51 -94 101 -94q105 0 105 176h92q0 -123 -52 -199q-53 -75 -147 -75z" />
    <glyph glyph-name="hungarumlaut" unicode="&#x2dd;" horiz-adv-x="624" 
d="M625 1434l-236 -295h-98l192 295h142zM334 1434l-236 -295h-98l193 295h141z" />
    <glyph glyph-name="hookabovecomb" unicode="&#x309;" horiz-adv-x="364" 
d="M180 1618q64 0 106 -36t42 -99t-39 -117h-82q47 47 47 107q0 80 -74 79q-59 1 -82 -65l-67 18q37 113 149 113z" />
    <glyph glyph-name="uni037E" unicode="&#x37e;" horiz-adv-x="471" 
d="M236 209q48 0 86 -42t38 -124t-47 -165t-120 -134l-76 61q49 33 88 89t45 104q-12 -6 -42 -6t-58 30t-27 76q0 46 32 78q33 33 81 33zM236 778q-45 0 -79 34t-34 80t33 79t80 33q48 0 80 -33t32 -79t-34 -80t-78 -34z" />
    <glyph glyph-name="tonos" unicode="&#x384;" horiz-adv-x="407" 
d="M281 1157h-76l39 410h155z" />
    <glyph glyph-name="dieresistonos" unicode="&#x385;" horiz-adv-x="1128" 
d="M383 1237q0 -39 -28 -68q-29 -29 -67 -29t-66 28t-28 68t28 68t67 28t67 -28t27 -67zM934 1237q0 -39 -28 -68t-66 -29t-67 28q-28 28 -28 68t28 68t67 28q38 0 66 -28t28 -67zM575 1157h-77l39 410h155z" />
    <glyph glyph-name="Alphatonos" unicode="&#x386;" horiz-adv-x="1347" 
d="M963 455l-289 735l-291 -735h580zM1329 0h-194l-121 303h-680l-121 -303h-195l549 1366h211zM373 1157h-76l39 410h156z" />
    <glyph glyph-name="Epsilontonos" unicode="&#x388;" horiz-adv-x="1200" 
d="M1090 0h-895v1366h895v-152h-725v-440h710v-151h-710v-471h725v-152zM49 1157h-76l39 410h156z" />
    <glyph glyph-name="Etatonos" unicode="&#x389;" horiz-adv-x="1492" 
d="M1333 0h-170v627h-798v-627h-170v1366h170v-588h798v588h170v-1366zM49 1157h-76l39 410h156z" />
    <glyph glyph-name="Iotatonos" unicode="&#x38a;" horiz-adv-x="522" 
d="M365 0h-170v1366h170v-1366zM49 1157h-76l39 410h156z" />
    <glyph glyph-name="Omicrontonos" unicode="&#x38c;" horiz-adv-x="1566" 
d="M281 682q0 -242 137 -398t363 -157q226 0 365 157q138 158 138 400t-138 398t-364 155q-226 0 -364 -156q-137 -157 -137 -399zM1460 682q0 -305 -190 -506t-489 -201q-300 0 -488 201t-189 506q0 305 188 506t489 201q299 0 489 -201t190 -506zM121 1157h-76l39 410h156
z" />
    <glyph glyph-name="Upsilontonos" unicode="&#x38e;" horiz-adv-x="1400" 
d="M846 0h-170v578l-539 788h199l424 -635l424 635h198l-536 -788v-578zM49 1157h-76l39 410h156z" />
    <glyph glyph-name="Omegatonos" unicode="&#x38f;" horiz-adv-x="1574" 
d="M150 152h276q-313 188 -313 561q0 297 188 486q189 189 491 189t489 -188q187 -190 187 -487q0 -373 -309 -561h275v-152h-492v152q145 37 248 178q102 142 102 366t-133 382t-369 157q-236 0 -368 -158q-133 -158 -133 -382t103 -365t249 -178v-152h-491v152zM121 1157
h-76l39 410h156z" />
    <glyph glyph-name="iotadieresistonos" unicode="&#x390;" horiz-adv-x="489" 
d="M373 -25q-219 0 -219 232v782h153v-758q0 -119 96 -118q23 0 39 4l13 -133q-45 -9 -82 -9zM63 1237q1 -39 -27 -68t-67 -29t-67 28t-27 68q0 40 28 68q29 28 67 28t66 -28q27 -28 27 -67zM614 1237q0 -39 -28 -68t-66 -29t-66 28t-28 68t28 68t66 28t67 -28
q27 -28 27 -67zM256 1157h-78l39 410h156z" />
    <glyph glyph-name="Alpha" unicode="&#x391;" horiz-adv-x="1347" 
d="M963 455l-289 735l-291 -735h580zM1329 0h-194l-121 303h-680l-121 -303h-195l549 1366h211z" />
    <glyph glyph-name="Beta" unicode="&#x392;" horiz-adv-x="1288" 
d="M748 152q118 0 186 63t68 167t-67 173q-67 68 -187 68h-418v-471h418zM739 774q113 0 174 62t62 157q-1 97 -63 159t-173 62h-409v-440h409zM782 0h-622v1366h608q176 0 280 -96t103 -236q0 -140 -70 -224q-70 -85 -170 -105q109 -17 188 -115t79 -221q0 -165 -106 -267
t-290 -102z" />
    <glyph glyph-name="Gamma" unicode="&#x393;" horiz-adv-x="1126" 
d="M330 0h-170v1366h895v-152h-725v-1214z" />
    <glyph glyph-name="uni0394" unicode="&#x394;" horiz-adv-x="1347" 
d="M1085 152l-411 1038l-412 -1038h823zM1329 0h-1311l549 1366h211z" />
    <glyph glyph-name="Epsilon" unicode="&#x395;" horiz-adv-x="1165" 
d="M1055 0h-895v1366h895v-152h-725v-440h710v-151h-710v-471h725v-152z" />
    <glyph glyph-name="Zeta" unicode="&#x396;" horiz-adv-x="1198" 
d="M1098 0h-1000v141l768 1073h-768v152h985v-141l-768 -1073h783v-152z" />
    <glyph glyph-name="Eta" unicode="&#x397;" horiz-adv-x="1458" 
d="M1298 0h-170v627h-798v-627h-170v1366h170v-588h798v588h170v-1366z" />
    <glyph glyph-name="Theta" unicode="&#x398;" horiz-adv-x="1566" 
d="M281 682q0 -242 137 -398t363 -157q226 0 365 157q138 158 138 400t-138 398t-364 155q-226 0 -364 -156q-137 -157 -137 -399zM1460 682q0 -305 -190 -506t-489 -201q-300 0 -488 201t-189 506q0 305 188 506t489 201q299 0 489 -201t190 -506zM1165 623h-764v151h764
v-151z" />
    <glyph glyph-name="Iota" unicode="&#x399;" horiz-adv-x="489" 
d="M330 0h-170v1366h170v-1366z" />
    <glyph glyph-name="Kappa" unicode="&#x39a;" horiz-adv-x="1230" 
d="M330 0h-170v1366h170v-707l604 707h213l-569 -649l618 -717h-211l-518 614l-137 -155v-459z" />
    <glyph glyph-name="Lambda" unicode="&#x39b;" horiz-adv-x="1347" 
d="M1329 0h-194l-461 1190l-461 -1190h-195l549 1366h211z" />
    <glyph glyph-name="Mu" unicode="&#x39c;" horiz-adv-x="1656" 
d="M1497 0h-170v1124l-465 -1124h-69l-463 1124v-1124h-170v1366h243l424 -1028l426 1028h244v-1366z" />
    <glyph glyph-name="Nu" unicode="&#x39d;" horiz-adv-x="1449" 
d="M1290 0h-164l-796 1090v-1090h-170v1366h174l786 -1067v1067h170v-1366z" />
    <glyph glyph-name="Xi" unicode="&#x39e;" horiz-adv-x="1259" 
d="M1135 623h-1008v151h1008v-151zM1147 0h-1036v152h1036v-152zM1147 1214h-1034v152h1034v-152z" />
    <glyph glyph-name="Omicron" unicode="&#x39f;" horiz-adv-x="1566" 
d="M281 682q0 -242 137 -398t363 -157q226 0 365 157q138 158 138 400t-138 398t-364 155q-226 0 -364 -156q-137 -157 -137 -399zM1460 682q0 -305 -190 -506t-489 -201q-300 0 -488 201t-189 506q0 305 188 506t489 201q299 0 489 -201t190 -506z" />
    <glyph glyph-name="Pi" unicode="&#x3a0;" horiz-adv-x="1458" 
d="M1298 0h-170v1214h-798v-1214h-170v1366h1138v-1366z" />
    <glyph glyph-name="Rho" unicode="&#x3a1;" horiz-adv-x="1202" 
d="M688 694q121 0 197 73t76 187t-76 188q-76 73 -197 72h-358v-520h358zM330 0h-170v1366h549q199 0 313 -119t115 -293q0 -174 -116 -292t-312 -119h-379v-543z" />
    <glyph glyph-name="Sigma" unicode="&#x3a3;" horiz-adv-x="1177" 
d="M1067 152v-152h-956v152l473 548l-471 514v152h954v-152h-745l469 -512l-476 -550h752z" />
    <glyph glyph-name="Tau" unicode="&#x3a4;" horiz-adv-x="1167" 
d="M668 0h-170v1214h-432v152h1036v-152h-434v-1214z" />
    <glyph glyph-name="Upsilon" unicode="&#x3a5;" horiz-adv-x="1282" 
d="M727 0h-170v578l-539 788h199l424 -635l424 635h199l-537 -788v-578z" />
    <glyph glyph-name="Phi" unicode="&#x3a6;" horiz-adv-x="1650" 
d="M281 682q-1 -164 121 -270t337 -125v790q-215 -19 -337 -125t-121 -270zM1370 682q0 164 -123 270t-338 125v-790q215 19 338 125t123 270zM909 0h-170v133q-295 19 -465 167t-170 380t170 380t465 169v137h170v-137q293 -21 465 -169t172 -380t-171 -378
q-171 -148 -466 -169v-133z" />
    <glyph glyph-name="Chi" unicode="&#x3a7;" horiz-adv-x="1335" 
d="M1309 0h-205l-436 582l-437 -582h-206l532 700l-502 666h207l406 -547l403 547h207l-500 -664z" />
    <glyph glyph-name="Psi" unicode="&#x3a8;" horiz-adv-x="1630" 
d="M901 0h-170v256q-281 20 -426 166t-145 387v557h170v-553q0 -177 102 -281t299 -124v958h170v-956q193 18 295 124t102 279v553h172v-555q0 -242 -145 -388t-424 -167v-256z" />
    <glyph glyph-name="uni03A9" unicode="&#x3a9;" horiz-adv-x="1566" 
d="M141 152h277q-313 188 -314 561q0 297 188 486t491 189q301 0 489 -188q188 -190 188 -487q0 -373 -309 -561h274v-152h-491v152q145 37 248 178q102 142 102 366t-133 382t-369 157q-236 0 -368 -158t-133 -382q0 -224 103 -365t249 -178v-152h-492v152z" />
    <glyph glyph-name="Iotadieresis" unicode="&#x3aa;" horiz-adv-x="489" 
d="M127 1614q0 -39 -28 -68q-27 -28 -67 -28t-68 28t-28 67t30 67q28 28 67 28t67 -28t27 -66zM551 1614q0 -39 -29 -68q-30 -28 -68 -28t-67 28t-29 68q0 38 29 66t68 28t67 -28t29 -66zM330 0h-170v1366h170v-1366z" />
    <glyph glyph-name="Upsilondieresis" unicode="&#x3ab;" horiz-adv-x="1282" 
d="M524 1614q0 -39 -28 -68q-28 -28 -67 -28q-40 0 -68 28q-27 28 -27 67t28 67t68 28q38 0 66 -28t28 -66zM948 1614q0 -39 -28 -68q-28 -28 -68 -28q-39 0 -68 28t-28 68q0 38 28 66t68 28t68 -28t28 -66zM727 0h-170v578l-539 788h199l424 -635l424 635h199l-537 -788
v-578z" />
    <glyph glyph-name="alphatonos" unicode="&#x3ac;" horiz-adv-x="1206" 
d="M573 113q90 0 172 45t125 110v449q-43 67 -126 113t-171 47q-145 0 -231 -108q-86 -107 -86 -275t86 -274t231 -107zM96 493q0 237 122 379t324 142t326 -174v149h156v-758q0 -55 25 -87t57 -32t53 5l10 -133q-41 -8 -79 -9q-186 0 -213 183q-53 -80 -145 -131t-195 -52
q-197 1 -319 141t-122 377zM621 1157h-76l39 410h155z" />
    <glyph glyph-name="epsilontonos" unicode="&#x3ad;" horiz-adv-x="1052" 
d="M549 -25q-209 0 -331 81t-122 200t91 180t196 70q-100 12 -183 76t-83 177q0 115 126 185t328 68q252 0 406 -158l-80 -94q-125 127 -332 127q-125 0 -207 -44t-82 -120t82 -118t211 -42h222v-125h-222q-311 0 -311 -164q0 -78 79 -124t212 -48q231 0 371 134l75 -99
q-161 -162 -446 -162zM543 1157h-76l39 410h156z" />
    <glyph glyph-name="etatonos" unicode="&#x3ae;" horiz-adv-x="1128" 
d="M975 -377h-154v1024q-1 227 -211 229q-96 0 -177 -44q-81 -46 -126 -109v-723h-153v989h153v-143q57 68 153 118t199 50q315 0 316 -320v-1071zM582 1157h-76l39 410h155z" />
    <glyph glyph-name="iotatonos" unicode="&#x3af;" horiz-adv-x="489" 
d="M373 -25q-219 0 -219 232v782h153v-758q0 -119 96 -118q23 0 39 4l13 -133q-45 -9 -82 -9zM264 1157h-76l39 410h156z" />
    <glyph glyph-name="upsilondieresistonos" unicode="&#x3b0;" horiz-adv-x="1150" 
d="M1055 512q-1 -233 -135 -385t-346 -152t-316 123t-104 336v555h153v-553q0 -152 68 -238t188 -85q154 -1 242 113t88 286q0 258 -150 432l138 70q174 -219 174 -502zM393 1237q1 -39 -27 -68t-67 -29t-67 28t-28 68t28 68t67 28t67 -28q27 -28 27 -67zM944 1237
q0 -39 -28 -68t-66 -29t-67 28q-27 28 -27 68t27 68q28 28 67 28q38 0 66 -28t28 -67zM586 1157h-78l39 410h155z" />
    <glyph glyph-name="alpha" unicode="&#x3b1;" horiz-adv-x="1206" 
d="M573 113q90 0 172 45t125 110v449q-43 67 -126 113t-171 47q-145 0 -231 -108q-86 -107 -86 -275t86 -274t231 -107zM96 493q0 237 122 379t324 142t326 -174v149h156v-758q0 -55 25 -87t57 -32t53 5l10 -133q-41 -8 -79 -9q-186 0 -213 183q-53 -80 -145 -131t-195 -52
q-197 1 -319 141t-122 377z" />
    <glyph glyph-name="beta" unicode="&#x3b2;" horiz-adv-x="1177" 
d="M307 -377h-153v1309q0 223 137 339q137 115 327 115t312 -97q121 -97 121 -267q0 -135 -87 -216t-198 -101q113 -11 214 -101t101 -254q-1 -164 -121 -269t-303 -106q-223 0 -350 172v-524zM307 932v-664q45 -68 128 -112t177 -43q147 0 229 71q81 72 81 195t-90 187
t-232 65h-72v137h68q129 0 211 61t82 175t-77 180q-76 66 -200 66t-214 -84q-90 -82 -91 -234z" />
    <glyph glyph-name="gamma" unicode="&#x3b3;" horiz-adv-x="1003" 
d="M580 -377h-154v277q0 309 -124 604t-316 485h180q136 -135 240 -366t126 -433q113 158 187 377t74 422h153q0 -238 -100 -502t-266 -477v-387z" />
    <glyph glyph-name="delta" unicode="&#x3b4;" 
d="M926 451q0 171 -122 258q-62 43 -112 65t-139 49q-145 -43 -221 -139t-76 -228t91 -238t242 -105t244 105t93 233zM590 -25q-218 -1 -356 143t-138 339q0 153 79 263t210 165q-168 74 -168 221q0 121 98 203t269 82q227 0 366 -144l-71 -106q-104 125 -295 125
q-100 0 -160 -44t-59 -100t39 -89q38 -32 100 -52t140 -43q77 -22 153 -58t138 -86t101 -138t39 -205q0 -190 -133 -333t-352 -143z" />
    <glyph glyph-name="epsilon" unicode="&#x3b5;" horiz-adv-x="1052" 
d="M549 -25q-209 0 -331 81t-122 200t91 180t196 70q-100 12 -183 76t-83 177q0 115 126 185t328 68q252 0 406 -158l-80 -94q-125 127 -332 127q-125 0 -207 -44t-82 -120t82 -118t211 -42h222v-125h-222q-311 0 -311 -164q0 -78 79 -124t212 -48q231 0 371 134l75 -99
q-161 -162 -446 -162z" />
    <glyph glyph-name="zeta" unicode="&#x3b6;" horiz-adv-x="1001" 
d="M760 -98q0 41 -27 57t-90 16q-247 0 -397 123t-150 334q0 465 615 799h-582v135h782v-117q-655 -377 -655 -807q0 -158 110 -244t272 -85q162 0 222 -43q62 -42 62 -138t-91 -254h-165q94 146 94 224z" />
    <glyph glyph-name="eta" unicode="&#x3b7;" horiz-adv-x="1128" 
d="M975 -377h-154v1024q-1 227 -211 229q-96 0 -177 -44q-81 -46 -126 -109v-723h-153v989h153v-143q57 68 153 118t199 50q315 0 316 -320v-1071z" />
    <glyph glyph-name="theta" unicode="&#x3b8;" 
d="M586 1253q-158 0 -238 -136t-90 -363h653q-11 229 -89 364t-236 135zM586 113q307 0 325 505h-653q10 -233 89 -369t239 -136zM586 -25q-238 0 -364 200t-126 509t126 508t364 199t364 -199t125 -508q1 -309 -125 -509t-364 -200z" />
    <glyph glyph-name="iota" unicode="&#x3b9;" horiz-adv-x="489" 
d="M373 -25q-219 0 -219 232v782h153v-758q0 -119 96 -118q23 0 39 4l13 -133q-45 -9 -82 -9z" />
    <glyph glyph-name="kappa" unicode="&#x3ba;" horiz-adv-x="1052" 
d="M307 0h-153v989h153v-526l520 526h195l-438 -448l440 -541h-197l-356 444l-164 -161v-283z" />
    <glyph glyph-name="lambda" unicode="&#x3bb;" horiz-adv-x="1003" 
d="M123 1237l-25 137q45 16 113 17q209 -4 291 -201l495 -1190h-168l-327 811l-330 -811h-166l414 997l-66 150q-25 59 -59 83q-35 24 -85 24t-87 -17z" />
    <glyph glyph-name="uni03BC" unicode="&#x3bc;" horiz-adv-x="1157" 
d="M307 -377h-153v1366h153v-651q0 -229 225 -229q84 0 164 45t125 108v727h154v-758q0 -119 96 -118q23 0 39 4l12 -133q-45 -8 -82 -9q-180 0 -213 177q-55 -76 -139 -126t-174 -51q-154 1 -207 99v-451z" />
    <glyph glyph-name="nu" unicode="&#x3bd;" horiz-adv-x="1003" 
d="M793 989h153q0 -240 -102 -508t-273 -481h-153l-412 989h166l336 -833q131 182 208 403t77 430z" />
    <glyph glyph-name="xi" unicode="&#x3be;" horiz-adv-x="1001" 
d="M643 -25q-262 -1 -404 99t-143 278q0 142 87 226t194 104q-98 16 -179 84t-81 170t63 181t158 114h-205v135h760v-135h-383q-100 -23 -166 -93t-66 -164t90 -150q89 -56 222 -56h293v-133h-293q-150 0 -242 -65q-92 -64 -92 -192t106 -197t272 -69t226 -42
q62 -42 62 -138t-91 -254h-165q94 145 94 224q0 41 -27 57t-90 16z" />
    <glyph glyph-name="omicron" unicode="&#x3bf;" 
d="M586 113q152 -1 240 111t87 272q0 160 -88 270q-87 110 -239 111q-152 0 -241 -112q-89 -113 -89 -271t89 -270t241 -111zM586 -25q-221 0 -356 150q-134 150 -134 371t134 369q134 149 356 149t355 -148q134 -148 134 -370q0 -221 -134 -371t-355 -150z" />
    <glyph glyph-name="pi" unicode="&#x3c0;" horiz-adv-x="1191" 
d="M1008 0h-154v854h-516v-854h-154v854h-164v135h1151v-135h-163v-854z" />
    <glyph glyph-name="rho" unicode="&#x3c1;" 
d="M602 113q145 0 232 107q86 108 86 272t-82 274t-224 111q-142 0 -225 -111q-82 -111 -82 -270v-224q41 -68 124 -114t171 -45zM1081 488q1 -230 -121 -372t-325 -141q-203 0 -328 175v-527h-153v873q0 221 126 369q126 149 336 149t337 -148q128 -148 128 -378z" />
    <glyph glyph-name="sigma1" unicode="&#x3c2;" horiz-adv-x="989" 
d="M647 -25q-251 -1 -401 139t-150 372t137 380t361 148t358 -172l-102 -94q-94 129 -251 129q-157 -1 -250 -107t-93 -283t109 -275t290 -99q137 0 202 -43q65 -44 65 -138t-88 -254h-160q94 145 94 224q0 73 -121 73z" />
    <glyph glyph-name="sigma" unicode="&#x3c3;" 
d="M913 470q0 140 -56 238t-148 144h-97q-168 0 -262 -106t-94 -258t89 -264t241 -112t240 110q88 108 87 248zM1065 461q0 -205 -130 -345t-350 -140t-355 149q-134 150 -134 366t140 357t376 141h508v-137h-235q180 -141 180 -391z" />
    <glyph glyph-name="tau" unicode="&#x3c4;" horiz-adv-x="958" 
d="M555 240q0 -128 110 -128q58 0 95 42l45 -115q-67 -64 -184 -64q-218 0 -220 232v647h-348v135h852v-135h-350v-614z" />
    <glyph glyph-name="upsilon" unicode="&#x3c5;" horiz-adv-x="1150" 
d="M1055 512q-1 -233 -135 -385t-346 -152t-316 123t-104 336v555h153v-553q0 -152 68 -238t188 -85q154 -1 242 113t88 286q0 258 -150 432l138 70q174 -219 174 -502z" />
    <glyph glyph-name="phi" unicode="&#x3c6;" horiz-adv-x="1523" 
d="M1266 498q0 160 -109 263t-319 113v-759q220 15 324 119t104 264zM762 1014q328 0 496 -140t167 -370q0 -230 -149 -371q-150 -139 -438 -156v-354h-154v357q-291 16 -439 158t-149 382q0 170 102 295t265 199l65 -119q-272 -133 -272 -375q0 -172 103 -280t325 -125v899
h78z" />
    <glyph glyph-name="chi" unicode="&#x3c7;" horiz-adv-x="995" 
d="M973 -377h-172l-303 559l-303 -559h-170l378 703l-358 663h172l281 -520l280 520h172l-358 -663z" />
    <glyph glyph-name="psi" unicode="&#x3c8;" horiz-adv-x="1523" 
d="M838 -377h-154v354q-260 17 -395 143t-135 335v534h153v-534q1 -147 99 -235t278 -103v1249h154v-1251q178 16 278 104t101 236v534h153v-534q0 -211 -136 -336t-396 -142v-354z" />
    <glyph glyph-name="omega" unicode="&#x3c9;" horiz-adv-x="1654" 
d="M1556 496q0 -221 -106 -371t-281 -150q-135 0 -221 88t-121 213q-37 -127 -123 -214t-219 -87q-176 0 -282 150t-107 371q0 352 201 518l111 -94q-152 -141 -152 -424q0 -160 67 -272t181 -112t180 112t66 272v252h153v-252q0 -160 66 -272q67 -112 181 -112t180 112
t67 272q0 285 -152 424l113 94q198 -164 198 -518z" />
    <glyph glyph-name="iotadieresis" unicode="&#x3ca;" horiz-adv-x="489" 
d="M373 -25q-219 0 -219 232v782h153v-758q0 -119 96 -118q23 0 39 4l13 -133q-45 -9 -82 -9zM129 1237q0 -39 -28 -68q-29 -29 -67 -29t-67 28t-29 68t29 68t68 28t67 -28t27 -67zM553 1237q0 -39 -29 -68q-30 -29 -68 -29t-67 30q-29 28 -29 67t29 67t68 28t67 -28t29 -67
z" />
    <glyph glyph-name="upsilondieresis" unicode="&#x3cb;" horiz-adv-x="1150" 
d="M1055 512q-1 -233 -135 -385t-346 -152t-316 123t-104 336v555h153v-553q0 -152 68 -238t188 -85q154 -1 242 113t88 286q0 258 -150 432l138 70q174 -219 174 -502zM457 1237q0 -39 -28 -68t-67 -29q-40 0 -68 28t-28 68t29 68t67 28t67 -28q28 -28 28 -67zM881 1237
q0 -39 -29 -68t-68 -29q-40 0 -68 30q-28 28 -28 67t29 67t67 28t68 -28q29 -28 29 -67z" />
    <glyph glyph-name="omicrontonos" unicode="&#x3cc;" 
d="M586 113q152 -1 240 111t87 272q0 160 -88 270q-87 110 -239 111q-152 0 -241 -112q-89 -113 -89 -271t89 -270t241 -111zM586 -25q-221 0 -356 150q-134 150 -134 371t134 369q134 149 356 149t355 -148q134 -148 134 -370q0 -221 -134 -371t-355 -150zM602 1157h-76
l39 410h156z" />
    <glyph glyph-name="upsilontonos" unicode="&#x3cd;" horiz-adv-x="1150" 
d="M1055 512q-1 -233 -135 -385t-346 -152t-316 123t-104 336v555h153v-553q0 -152 68 -238t188 -85q154 -1 242 113t88 286q0 258 -150 432l138 70q174 -219 174 -502zM594 1157h-76l39 410h156z" />
    <glyph glyph-name="omegatonos" unicode="&#x3ce;" horiz-adv-x="1654" 
d="M1556 496q0 -221 -106 -371t-281 -150q-135 0 -221 88t-121 213q-37 -127 -123 -214t-219 -87q-176 0 -282 150t-107 371q0 352 201 518l111 -94q-152 -141 -152 -424q0 -160 67 -272t181 -112t180 112t66 272v252h153v-252q0 -160 66 -272q67 -112 181 -112t180 112
t67 272q0 285 -152 424l113 94q198 -164 198 -518zM844 1157h-76l39 410h156z" />
    <glyph glyph-name="afii10023" unicode="&#x401;" horiz-adv-x="1165" 
d="M1055 0h-895v1366h895v-152h-725v-440h710v-151h-710v-471h725v-152zM489 1579q1 -39 -27 -68t-67 -29t-67 30q-28 28 -29 67q0 39 29 67q30 28 68 28t66 -28q27 -28 27 -67zM913 1579q-1 -39 -29 -68t-67 -29t-67 30q-28 28 -29 67q0 39 29 67q30 28 68 28t67 -28
q28 -28 28 -67z" />
    <glyph glyph-name="afii10051" unicode="&#x402;" horiz-adv-x="1574" 
d="M1300 426q0 301 -324 301q-163 0 -308 -47v-680h-170v1214h-432v152h1036v-152h-434v-383q172 47 329 48q231 0 353 -125t120 -328v-16q0 -213 -124 -324t-320 -111v152q127 0 201 76t73 207v16z" />
    <glyph glyph-name="afii10052" unicode="&#x403;" horiz-adv-x="1126" 
d="M330 0h-170v1366h895v-152h-725v-1214zM930 1776l-346 -295h-117l303 295h160z" />
    <glyph glyph-name="afii10053" unicode="&#x404;" horiz-adv-x="1384" 
d="M818 -25q-310 0 -512 198t-202 509t202 509t501 198q328 0 518 -271l-143 -80q-60 88 -160 144t-215 55q-203 0 -347 -128t-173 -335h747v-151h-751q21 -219 167 -357t357 -139q115 0 215 54t160 145l145 -80q-199 -271 -509 -271z" />
    <glyph glyph-name="afii10054" unicode="&#x405;" horiz-adv-x="1200" 
d="M602 -25q-332 0 -524 218l100 129q174 -195 430 -195q166 0 244 71q78 72 78 154t-45 131t-116 77t-226 68t-244 89q-178 99 -178 279t133 285t336 105q305 0 485 -190l-102 -125q-150 164 -395 164q-123 0 -202 -60q-79 -61 -79 -145t60 -131q59 -47 149 -70
q221 -57 390 -128q89 -38 150 -121q60 -84 60 -203q0 -168 -124 -285t-380 -117z" />
    <glyph glyph-name="afii10055" unicode="&#x406;" horiz-adv-x="489" 
d="M330 0h-170v1366h170v-1366z" />
    <glyph glyph-name="afii10056" unicode="&#x407;" horiz-adv-x="489" 
d="M127 1579q0 -39 -28 -68q-27 -29 -67 -29t-68 30q-28 28 -27 67q0 39 28 67q29 28 68 28t67 -28t27 -67zM551 1579q0 -39 -29 -68q-30 -29 -68 -29t-67 30q-29 28 -29 67t29 67t68 28t67 -28t29 -67zM330 0h-170v1366h170v-1366z" />
    <glyph glyph-name="afii10057" unicode="&#x408;" horiz-adv-x="972" 
d="M813 412q-1 -213 -121 -325t-327 -112t-342 158l88 129q113 -135 248 -135t209 79t75 208v952h170v-954z" />
    <glyph glyph-name="afii10058" unicode="&#x409;" horiz-adv-x="2170" 
d="M1657 672h-359v-520h359q121 0 197 72t75 188q1 116 -75 188t-197 72zM66 -25v152q88 0 143 41q116 86 170 512l84 686h835v-543h379q197 -1 313 -119t116 -292t-116 -293q-114 -119 -313 -119h-549v1214h-514l-67 -546q-53 -434 -179 -573q-66 -71 -134 -95t-168 -25z
" />
    <glyph glyph-name="afii10059" unicode="&#x40a;" horiz-adv-x="2170" 
d="M1298 152h383q111 0 180 66t69 170q0 105 -69 172t-180 67h-383v-475zM160 0v1366h170v-588h798v588h170v-588h404q186 0 295 -112t109 -278q0 -164 -110 -276q-108 -112 -294 -112h-574v627h-798v-627h-170z" />
    <glyph glyph-name="afii10060" unicode="&#x40b;" horiz-adv-x="1607" 
d="M1300 0v412q0 315 -317 315q-170 0 -315 -47v-680h-170v1214h-432v152h1036v-152h-434v-383q172 47 329 48q233 0 353 -126t120 -343v-410h-170z" />
    <glyph glyph-name="afii10061" unicode="&#x40c;" horiz-adv-x="1230" 
d="M330 0h-170v1366h170v-707l604 707h213l-569 -649l618 -717h-211l-518 614l-137 -155v-459zM969 1776l-346 -295h-117l303 295h160z" />
    <glyph glyph-name="afii10062" unicode="&#x40e;" horiz-adv-x="1282" 
d="M644 1444q-224 0 -361 180l75 66q106 -148 286 -148t282 148l75 -66q-133 -180 -357 -180zM297 -25q-84 0 -156 31t-110 78l71 135q88 -92 176 -92t135 41q46 41 105 154l25 47l-525 997h195l428 -846l428 846h195l-596 -1124q-72 -135 -154 -201t-217 -66z" />
    <glyph glyph-name="afii10145" unicode="&#x40f;" horiz-adv-x="1458" 
d="M160 0v1366h170v-1214h798v1214h170v-1366h-483v-260h-170v260h-485z" />
    <glyph glyph-name="afii10017" unicode="&#x410;" horiz-adv-x="1347" 
d="M963 455l-289 735l-291 -735h580zM1329 0h-194l-121 303h-680l-121 -303h-195l549 1366h211z" />
    <glyph glyph-name="afii10018" unicode="&#x411;" horiz-adv-x="1202" 
d="M688 672h-358v-520h358q121 0 197 72t76 188t-76 188t-197 72zM160 1366h887v-152h-717v-391h379q197 -1 313 -119t115 -292q0 -174 -115 -293t-313 -119h-549v1366z" />
    <glyph glyph-name="afii10019" unicode="&#x412;" horiz-adv-x="1288" 
d="M748 152q118 0 186 63t68 167t-67 173q-67 68 -187 68h-418v-471h418zM739 774q113 0 174 62t62 157q-1 97 -63 159t-173 62h-409v-440h409zM782 0h-622v1366h608q176 0 280 -96t103 -236q0 -140 -70 -224q-70 -85 -170 -105q109 -17 188 -115t79 -221q0 -165 -106 -267
t-290 -102z" />
    <glyph glyph-name="afii10020" unicode="&#x413;" horiz-adv-x="1126" 
d="M330 0h-170v1366h895v-152h-725v-1214z" />
    <glyph glyph-name="afii10021" unicode="&#x414;" horiz-adv-x="1480" 
d="M1128 152v1062h-514l-67 -546q-47 -395 -209 -516h790zM66 -252v389q90 6 143 43q116 81 170 500l84 686h835v-1214h125v-404h-170v252h-1017v-252h-170z" />
    <glyph glyph-name="afii10022" unicode="&#x415;" horiz-adv-x="1165" 
d="M1055 0h-895v1366h895v-152h-725v-440h710v-151h-710v-471h725v-152z" />
    <glyph glyph-name="afii10024" unicode="&#x416;" horiz-adv-x="1861" 
d="M846 1366h170v-643l551 643h213l-572 -649l621 -717h-213l-518 614l-82 -94v-520h-170v520l-82 94l-518 -614h-211l618 717l-569 649h213l549 -643v643z" />
    <glyph glyph-name="afii10025" unicode="&#x417;" horiz-adv-x="1196" 
d="M573 -25q-172 -1 -309 63t-205 163l101 108q61 -82 173 -132t254 -50t234 69q92 70 92 190t-95 179t-259 60h-278v151h278q145 0 239 56t93 168q0 112 -93 174t-235 61q-231 0 -387 -166l-94 107q82 94 210 152t283 58q209 0 349 -98t141 -266q0 -135 -91 -216t-204 -101
q113 -11 214 -99t101 -248q1 -160 -141 -272q-142 -111 -371 -111z" />
    <glyph glyph-name="afii10026" unicode="&#x418;" horiz-adv-x="1449" 
d="M160 0v1366h170v-1067l786 1067h174v-1366h-170v1090l-796 -1090h-164z" />
    <glyph glyph-name="afii10027" unicode="&#x419;" horiz-adv-x="1449" 
d="M726 1444q-224 0 -361 180l75 66q106 -148 286 -148t282 148l75 -66q-133 -180 -357 -180zM160 0v1366h170v-1067l786 1067h174v-1366h-170v1090l-796 -1090h-164z" />
    <glyph glyph-name="afii10028" unicode="&#x41a;" horiz-adv-x="1230" 
d="M330 0h-170v1366h170v-707l604 707h213l-569 -649l618 -717h-211l-518 614l-137 -155v-459z" />
    <glyph glyph-name="afii10029" unicode="&#x41b;" horiz-adv-x="1458" 
d="M66 -25v152q88 0 143 41q116 86 170 512l84 686h835v-1366h-170v1214h-514l-67 -546q-53 -434 -179 -573q-66 -71 -134 -95t-168 -25z" />
    <glyph glyph-name="afii10030" unicode="&#x41c;" horiz-adv-x="1656" 
d="M1497 0h-170v1124l-465 -1124h-69l-463 1124v-1124h-170v1366h243l424 -1028l426 1028h244v-1366z" />
    <glyph glyph-name="afii10031" unicode="&#x41d;" horiz-adv-x="1458" 
d="M1298 0h-170v627h-798v-627h-170v1366h170v-588h798v588h170v-1366z" />
    <glyph glyph-name="afii10032" unicode="&#x41e;" horiz-adv-x="1566" 
d="M281 682q0 -242 137 -398t363 -157q226 0 365 157q138 158 138 400t-138 398t-364 155q-226 0 -364 -156q-137 -157 -137 -399zM1460 682q0 -305 -190 -506t-489 -201q-300 0 -488 201t-189 506q0 305 188 506t489 201q299 0 489 -201t190 -506z" />
    <glyph glyph-name="afii10033" unicode="&#x41f;" horiz-adv-x="1458" 
d="M1298 0h-170v1214h-798v-1214h-170v1366h1138v-1366z" />
    <glyph glyph-name="afii10034" unicode="&#x420;" horiz-adv-x="1202" 
d="M688 694q121 0 197 73t76 187t-76 188q-76 73 -197 72h-358v-520h358zM330 0h-170v1366h549q199 0 313 -119t115 -293q0 -174 -116 -292t-312 -119h-379v-543z" />
    <glyph glyph-name="afii10035" unicode="&#x421;" horiz-adv-x="1384" 
d="M818 -25q-310 0 -512 198t-202 509t202 509t501 198q328 0 518 -271l-143 -80q-60 88 -160 144t-215 55q-225 0 -376 -157q-151 -156 -151 -398t152 -398q150 -156 375 -157q115 0 215 54t160 145l145 -80q-199 -271 -509 -271z" />
    <glyph glyph-name="afii10036" unicode="&#x422;" horiz-adv-x="1167" 
d="M668 0h-170v1214h-432v152h1036v-152h-434v-1214z" />
    <glyph glyph-name="afii10037" unicode="&#x423;" horiz-adv-x="1282" 
d="M297 -25q-84 0 -156 31t-110 78l71 135q88 -92 176 -92t135 41q46 41 105 154l25 47l-525 997h195l428 -846l428 846h195l-596 -1124q-72 -135 -154 -201t-217 -66z" />
    <glyph glyph-name="afii10038" unicode="&#x424;" horiz-adv-x="1650" 
d="M281 682q-1 -164 121 -270t337 -125v790q-215 -19 -337 -125t-121 -270zM1370 682q0 164 -123 270t-338 125v-790q215 19 338 125t123 270zM909 0h-170v133q-295 19 -465 167t-170 380t170 380t465 169v137h170v-137q293 -21 465 -169t172 -380t-171 -378
q-171 -148 -466 -169v-133z" />
    <glyph glyph-name="afii10039" unicode="&#x425;" horiz-adv-x="1335" 
d="M1309 0h-205l-436 582l-437 -582h-206l532 700l-502 666h207l406 -547l403 547h207l-500 -664z" />
    <glyph glyph-name="afii10040" unicode="&#x426;" horiz-adv-x="1480" 
d="M1253 -252v252h-1093v1366h170v-1214h798v1214h170v-1214h125v-404h-170z" />
    <glyph glyph-name="afii10041" unicode="&#x427;" horiz-adv-x="1251" 
d="M289 1366v-356q0 -315 317 -316q170 0 316 47v625h170v-1366h-170v590q-172 -47 -330 -47q-233 0 -353 126t-120 343v354h170z" />
    <glyph glyph-name="afii10042" unicode="&#x428;" horiz-adv-x="1961" 
d="M1632 1366h170v-1366h-1642v1366h170v-1214h567v1214h170v-1214h565v1214z" />
    <glyph glyph-name="afii10043" unicode="&#x429;" horiz-adv-x="1996" 
d="M1645 1366h170v-1214h122v-404h-170v252h-1597v1366h170v-1214h567v1214h170v-1214h568v1214z" />
    <glyph glyph-name="afii10044" unicode="&#x42a;" horiz-adv-x="1540" 
d="M1026 672h-358v-520h358q121 0 197 72t75 188q0 116 -76 188t-196 72zM1047 0h-549v1214h-432v152h602v-543h379q197 -1 313 -119t115 -292t-115 -293t-313 -119z" />
    <glyph glyph-name="afii10045" unicode="&#x42b;" horiz-adv-x="1613" 
d="M1454 0h-170v1366h170v-1366zM688 672h-358v-520h358q121 0 197 72t76 188t-76 188t-197 72zM160 1366h170v-543h379q197 -1 313 -119t115 -292q0 -174 -115 -293t-313 -119h-549v1366z" />
    <glyph glyph-name="afii10046" unicode="&#x42c;" horiz-adv-x="1202" 
d="M688 672h-358v-520h358q121 0 197 72t76 188t-76 188t-197 72zM160 1366h170v-543h379q197 -1 313 -119t115 -292q0 -174 -115 -293t-313 -119h-549v1366z" />
    <glyph glyph-name="afii10047" unicode="&#x42d;" horiz-adv-x="1384" 
d="M1280 682q0 -311 -202 -509t-512 -198t-509 271l146 80q59 -90 159 -144t216 -55q211 0 357 138t165 358h-750v151h746q-29 207 -172 335t-346 128q-116 0 -216 -55t-159 -144l-144 80q190 270 504 270q313 0 515 -197q202 -198 202 -509z" />
    <glyph glyph-name="afii10048" unicode="&#x42e;" horiz-adv-x="2031" 
d="M1246 127q226 0 366 157q139 156 139 398t-139 398q-140 156 -366 157q-226 0 -363 -156q-137 -157 -137 -399t136 -398q138 -156 364 -157zM1927 682q-1 -305 -191 -506t-483 -201q-293 -1 -479 183t-203 469h-241v-627h-170v1366h170v-588h243q31 270 215 440t471 171
q287 0 477 -201t191 -506z" />
    <glyph glyph-name="afii10049" unicode="&#x42f;" horiz-adv-x="1245" 
d="M557 692h361v522h-361q-121 0 -197 -72t-76 -188q0 -114 78 -188q76 -74 195 -74zM109 959q0 181 119 294q120 113 311 113h548v-1366h-169v543h-275l-348 -543h-199l369 557q-150 13 -253 117t-103 285z" />
    <glyph glyph-name="afii10065" unicode="&#x430;" horiz-adv-x="1079" 
d="M500 86q184 0 272 123v186q-88 123 -272 123q-106 0 -175 -60t-69 -156t69 -156t175 -60zM926 0h-154v113q-125 -137 -328 -138q-137 0 -241 88q-105 88 -105 242t104 239t242 85q211 0 328 -135v178q0 98 -70 153t-180 56q-174 0 -303 -138l-72 107q158 164 396 164
q170 0 276 -82t107 -252v-680z" />
    <glyph glyph-name="afii10066" unicode="&#x431;" horiz-adv-x="1181" 
d="M585 -25q-222 0 -356 158q-133 158 -133 408q0 352 127 521t391 204q158 26 218 48t61 52h149q0 -114 -134 -166q-110 -42 -285 -66t-266 -108t-119 -223q135 211 372 211q205 0 334 -150t129 -368t-133 -370q-133 -151 -355 -151zM586 113q152 -1 240 111t87 272
q0 160 -88 270q-87 110 -239 111q-152 0 -241 -111q-89 -110 -89 -270t89 -272t241 -111z" />
    <glyph glyph-name="afii10067" unicode="&#x432;" horiz-adv-x="1134" 
d="M672 575q70 0 108 38t39 102q0 63 -39 101t-108 38h-365v-279h365zM678 135q74 0 117 41q43 42 43 108t-43 111t-117 45h-371v-305h371zM709 0h-555v989h544q129 1 204 -69t75 -170t-46 -159q-46 -60 -114 -81q76 -18 128 -88t52 -154q-1 -120 -77 -194t-211 -74z" />
    <glyph glyph-name="afii10068" unicode="&#x433;" horiz-adv-x="892" 
d="M846 989v-135h-539v-854h-153v989h692z" />
    <glyph glyph-name="afii10069" unicode="&#x434;" horiz-adv-x="1148" 
d="M823 135v719h-399l-45 -371q-35 -260 -143 -348h587zM37 -252v379q76 14 119 91t69 284l64 487h688v-854h115v-387h-154v252h-748v-252h-153z" />
    <glyph glyph-name="afii10070" unicode="&#x435;" horiz-adv-x="1153" 
d="M907 557q-2 127 -86 228t-235 101q-150 0 -236 -100t-92 -229h649zM610 -25q-232 1 -372 145q-142 144 -142 368t140 376q140 150 353 150q214 0 342 -151t128 -380v-39h-801q10 -145 106 -243q96 -99 266 -99q168 0 290 125l73 -100q-151 -152 -383 -152z" />
    <glyph glyph-name="afii10072" unicode="&#x436;" horiz-adv-x="1456" 
d="M651 989h154v-434l426 434h194l-440 -448l442 -541h-196l-357 444l-69 -69v-375h-154v375l-69 69l-357 -444h-196l440 541l-438 448h194l426 -436v436z" />
    <glyph glyph-name="afii10073" unicode="&#x437;" horiz-adv-x="1052" 
d="M504 -25q-285 0 -447 162l76 99q139 -133 371 -134q133 0 212 48t79 124q0 164 -312 164h-221v125h221q129 0 211 42t82 118t-82 120t-207 44q-207 0 -331 -127l-80 94q154 158 405 158q203 2 329 -69t126 -184t-83 -177t-183 -76q104 -8 195 -70t91 -180
q0 -119 -122 -200t-330 -81z" />
    <glyph glyph-name="afii10074" unicode="&#x438;" horiz-adv-x="1130" 
d="M154 0v989h153v-756l518 756h152v-989h-154v770l-522 -770h-147z" />
    <glyph glyph-name="afii10075" unicode="&#x439;" horiz-adv-x="1130" 
d="M566 1102q-224 0 -361 180l76 66q106 -148 285 -148t282 148l76 -66q-134 -180 -358 -180zM154 0v989h153v-756l518 756h152v-989h-154v770l-522 -770h-147z" />
    <glyph glyph-name="afii10076" unicode="&#x43a;" horiz-adv-x="1052" 
d="M307 0h-153v989h153v-526l520 526h195l-438 -448l440 -541h-197l-356 444l-164 -161v-283z" />
    <glyph glyph-name="afii10077" unicode="&#x43b;" horiz-adv-x="1130" 
d="M37 -25v127q70 0 115 92t73 308l64 487h688v-989h-154v854h-399l-45 -371q-33 -272 -115 -390t-227 -118z" />
    <glyph glyph-name="afii10078" unicode="&#x43c;" horiz-adv-x="1316" 
d="M1163 0h-153v776l-322 -776h-57l-324 776v-776h-153v989h202l303 -733l299 733h205v-989z" />
    <glyph glyph-name="afii10079" unicode="&#x43d;" horiz-adv-x="1130" 
d="M307 0h-153v989h153v-411h516v411h154v-989h-154v442h-516v-442z" />
    <glyph glyph-name="afii10080" unicode="&#x43e;" 
d="M586 113q152 -1 240 111t87 272q0 160 -88 270q-87 110 -239 111q-152 0 -241 -112q-89 -113 -89 -271t89 -270t241 -111zM586 -25q-221 0 -356 150q-134 150 -134 371t134 369q134 149 356 149t355 -148q134 -148 134 -370q0 -221 -134 -371t-355 -150z" />
    <glyph glyph-name="afii10081" unicode="&#x43f;" horiz-adv-x="1130" 
d="M977 0h-154v854h-516v-854h-153v989h823v-989z" />
    <glyph glyph-name="afii10082" unicode="&#x440;" 
d="M602 113q145 0 232 107q86 108 86 276t-86 274t-232 107q-88 -1 -171 -47t-124 -111v-447q41 -68 124 -114t171 -45zM641 1014q197 0 319 -140t121 -378q1 -238 -121 -380t-325 -141q-203 0 -328 175v-527h-153v1366h153v-147q55 78 143 125t191 47z" />
    <glyph glyph-name="afii10083" unicode="&#x441;" horiz-adv-x="1013" 
d="M595 -25q-223 1 -361 149t-138 372t137 370q137 148 361 148t358 -172l-102 -94q-94 129 -251 129q-157 -1 -250 -107t-93 -274t93 -276t249 -108t252 130l102 -95q-133 -172 -357 -172z" />
    <glyph glyph-name="afii10084" unicode="&#x442;" horiz-adv-x="823" 
d="M487 0h-153v854h-287v135h729v-135h-289v-854z" />
    <glyph glyph-name="afii10085" unicode="&#x443;" horiz-adv-x="1003" 
d="M210 -264q50 0 85 22t59 82l66 150l-414 999h166l330 -811l327 811h168l-495 -1190q-82 -197 -291 -200q-62 0 -113 14l25 139q37 -16 87 -16z" />
    <glyph glyph-name="afii10086" unicode="&#x444;" horiz-adv-x="1634" 
d="M1120 113q112 -1 178 107t66 276t-66 274t-178 107q-68 -1 -131 -47t-94 -111v-447q33 -68 95 -114t130 -45zM514 877q-112 0 -178 -108q-66 -107 -66 -275t66 -274t178 -107q70 0 133 45t94 112v447q-33 68 -96 114t-131 46zM115 494q0 238 99 379t262 141t265 -174v526
h154v-524q45 78 116 125t152 47q160 0 258 -140q99 -140 99 -378t-100 -379t-262 -141q-163 0 -263 174v-527h-154v524q-45 -79 -117 -125t-153 -47q-160 1 -258 141t-98 378z" />
    <glyph glyph-name="afii10087" unicode="&#x445;" horiz-adv-x="995" 
d="M973 0h-178l-297 406l-297 -406h-176l378 508l-358 481h178l275 -377l274 377h178l-358 -481z" />
    <glyph glyph-name="afii10088" unicode="&#x446;" horiz-adv-x="1148" 
d="M938 -252v252h-784v989h153v-854h516v854h154v-854h115v-387h-154z" />
    <glyph glyph-name="afii10089" unicode="&#x447;" horiz-adv-x="1107" 
d="M133 989h154v-278q0 -133 61 -185t206 -51q145 0 247 53v461h153v-989h-153v403q-131 -65 -313 -65t-268 78q-87 78 -87 248v325z" />
    <glyph glyph-name="afii10090" unicode="&#x448;" horiz-adv-x="1603" 
d="M1296 989h154v-989h-1296v989h153v-854h418v854h154v-854h417v854z" />
    <glyph glyph-name="afii10091" unicode="&#x449;" horiz-adv-x="1634" 
d="M1296 989h154v-854h127v-387h-154v252h-1269v989h153v-854h418v854h154v-854h417v854z" />
    <glyph glyph-name="afii10092" unicode="&#x44a;" horiz-adv-x="1249" 
d="M842 471h-355v-336h355q82 0 126 46t44 122t-44 122t-126 46zM858 0h-524v854h-287v135h440v-383h371q147 0 229 -87t82 -216t-83 -216t-228 -87z" />
    <glyph glyph-name="afii10093" unicode="&#x44b;" horiz-adv-x="1458" 
d="M1305 0h-154v989h154v-989zM662 471h-355v-336h355q82 0 126 46t43 122q1 76 -43 122t-126 46zM154 989h153v-383h371q147 0 229 -87t82 -216t-83 -216t-228 -87h-524v989z" />
    <glyph glyph-name="afii10094" unicode="&#x44c;" horiz-adv-x="1069" 
d="M662 471h-355v-336h355q82 0 126 46t43 122q1 76 -43 122t-126 46zM154 989h153v-383h371q147 0 229 -87t82 -216t-83 -216t-228 -87h-524v989z" />
    <glyph glyph-name="afii10095" unicode="&#x44d;" horiz-adv-x="1013" 
d="M418 1014q224 0 363 -148t139 -370q0 -223 -138 -372t-363 -149q-224 0 -358 172l99 91q100 -136 250 -136t238 90q89 90 106 242h-498v133h496q-18 145 -108 233t-238 87q-148 0 -246 -135l-99 90q133 172 357 172z" />
    <glyph glyph-name="afii10096" unicode="&#x44e;" horiz-adv-x="1570" 
d="M655 494q0 -158 88 -270t241 -111q153 -1 241 111t88 272t-88 270t-240 111q-152 0 -241 -112q-89 -113 -89 -271zM994 1014q210 0 345 -148t135 -370q0 -221 -134 -371q-136 -150 -349 -150q-213 1 -345 133t-148 334h-191v-442h-153v989h153v-411h193q25 190 154 313
q130 123 340 123z" />
    <glyph glyph-name="afii10097" unicode="&#x44f;" horiz-adv-x="1120" 
d="M461 518h352v336h-352q-80 0 -126 -46t-46 -122t45 -122t127 -46zM131 690q0 127 84 213t229 86h523v-989h-154v383h-270l-242 -383h-180l264 389q-113 14 -183 94t-71 207z" />
    <glyph glyph-name="afii10071" unicode="&#x451;" horiz-adv-x="1153" 
d="M907 557q-2 127 -86 228t-235 101q-150 0 -236 -100t-92 -229h649zM610 -25q-232 1 -372 145q-142 144 -142 368t140 376q140 150 353 150q214 0 342 -151t128 -380v-39h-801q10 -145 106 -243q96 -99 266 -99q168 0 290 125l73 -100q-151 -152 -383 -152zM467 1237
q0 -39 -28 -68q-27 -29 -67 -29t-68 28t-28 68t29 68t68 28t67 -28t27 -67zM891 1237q0 -39 -29 -68q-30 -29 -68 -29t-67 30q-29 28 -29 67t29 67t68 28t67 -28t29 -67z" />
    <glyph glyph-name="afii10099" unicode="&#x452;" horiz-adv-x="1134" 
d="M633 1096h-322v-250q57 68 153 118t202 50q315 0 315 -316v-794q0 -146 -76 -226t-209 -80t-225 74l53 117q64 -63 140 -63t120 44t43 134v747q-1 223 -211 225q-96 0 -177 -44q-81 -46 -128 -109v-723h-153v1096h-140v98h140v172h153v-172h322v-98z" />
    <glyph glyph-name="afii10100" unicode="&#x453;" horiz-adv-x="892" 
d="M846 989v-135h-539v-854h-153v989h692zM848 1434l-346 -295h-117l303 295h160z" />
    <glyph glyph-name="afii10101" unicode="&#x454;" horiz-adv-x="1013" 
d="M595 -25q-223 1 -361 149t-138 372t137 370q137 148 361 148t358 -172l-98 -90q-98 135 -246 135t-239 -87q-90 -87 -109 -233h498v-133h-500q16 -152 106 -242t240 -90t250 136l98 -91q-133 -172 -357 -172z" />
    <glyph glyph-name="afii10102" unicode="&#x455;" horiz-adv-x="952" 
d="M467 -25q-252 0 -399 156l79 111q51 -58 141 -100t192 -42q104 0 165 47t61 118t-62 109q-64 38 -154 57t-179 45q-90 26 -153 88q-64 62 -64 174t100 194t269 82q223 0 366 -144l-71 -106q-104 125 -295 125q-99 0 -159 -44q-60 -43 -60 -107t63 -98t153 -53t179 -46
t153 -94t64 -185t-102 -203q-102 -84 -287 -84z" />
    <glyph glyph-name="afii10103" unicode="&#x456;" horiz-adv-x="460" 
d="M307 0h-153v989h153v-989zM230 1130q-42 0 -72 30t-31 73q0 43 31 74q30 31 72 31t73 -32q31 -30 31 -73t-31 -73t-73 -30z" />
    <glyph glyph-name="afii10104" unicode="&#x457;" horiz-adv-x="460" 
d="M307 0h-153v989h153v-989zM115 1237q0 -39 -28 -68t-68 -29q-39 0 -67 28t-28 68t29 68t67 28t67 -28q28 -28 28 -67zM539 1237q0 -39 -29 -68t-68 -29q-40 0 -68 30q-28 28 -28 67t29 67t67 28t68 -28q29 -28 29 -67z" />
    <glyph glyph-name="afii10105" unicode="&#x458;" horiz-adv-x="460" 
d="M307 -96q0 -145 -76 -225t-207 -80t-227 73l56 117q63 -63 139 -63t119 44t43 134v1085h153v-1085zM230 1130q-42 0 -72 30t-31 73q0 43 31 74q30 31 72 31t73 -32q31 -30 31 -73t-31 -73t-73 -30z" />
    <glyph glyph-name="afii10106" unicode="&#x459;" horiz-adv-x="1738" 
d="M1331 471h-354v-336h354q82 0 126 46t44 121t-45 122t-125 47zM37 -25v127q70 0 115 92t73 308l64 487h688v-383h369q147 0 230 -87t83 -216t-83 -216t-230 -87h-523v854h-399l-45 -371q-33 -272 -115 -390t-227 -118z" />
    <glyph glyph-name="afii10107" unicode="&#x45a;" horiz-adv-x="1738" 
d="M1346 442h-369v-307h369q74 0 114 42t41 111q-1 70 -41 112t-114 42zM307 0h-153v989h153v-411h516v411h154v-411h385q139 0 218 -83t79 -206t-79 -206t-218 -83h-539v442h-516v-442z" />
    <glyph glyph-name="afii10108" unicode="&#x45b;" horiz-adv-x="1134" 
d="M631 1096h-320v-250q57 68 153 118t202 50q315 0 315 -316v-698h-154v651q-1 223 -211 225q-96 0 -177 -44q-81 -46 -128 -109v-723h-153v1096h-140v98h140v172h153v-172h320v-98z" />
    <glyph glyph-name="afii10109" unicode="&#x45c;" horiz-adv-x="1052" 
d="M307 0h-153v989h153v-526l520 526h195l-438 -448l440 -541h-197l-356 444l-164 -161v-283zM877 1434l-347 -295h-116l303 295h160z" />
    <glyph glyph-name="afii10110" unicode="&#x45e;" horiz-adv-x="1003" 
d="M505 1102q-224 0 -362 180l76 66q105 -148 285 -148t282 148l76 -66q-133 -180 -357 -180zM210 -264q50 0 85 22t59 82l66 150l-414 999h166l330 -811l327 811h168l-495 -1190q-82 -197 -291 -200q-62 0 -113 14l25 139q37 -16 87 -16z" />
    <glyph glyph-name="afii10193" unicode="&#x45f;" horiz-adv-x="1130" 
d="M489 -258v258h-335v989h153v-854h516v854h154v-989h-334v-258h-154z" />
    <glyph glyph-name="afii10050" unicode="&#x490;" horiz-adv-x="1126" 
d="M330 1214v-1214h-170v1366h725v252h170v-404h-725z" />
    <glyph glyph-name="afii10098" unicode="&#x491;" horiz-adv-x="892" 
d="M307 854v-854h-153v989h538v258h154v-393h-539z" />
    <glyph glyph-name="uni1E02" unicode="&#x1e02;" horiz-adv-x="1288" 
d="M643 1479q-39 1 -68 29t-28 67t29 67t67 29t67 -27t28 -69t-28 -69q-28 -27 -67 -27zM748 152q118 0 186 63t68 167t-67 173q-67 68 -187 68h-418v-471h418zM739 774q113 0 174 62t62 157q-1 97 -63 159t-173 62h-409v-440h409zM782 0h-622v1366h608q176 0 280 -96
t103 -236q0 -140 -70 -224q-70 -85 -170 -105q109 -17 188 -115t79 -221q0 -165 -106 -267t-290 -102z" />
    <glyph glyph-name="uni1E03" unicode="&#x1e03;" horiz-adv-x="1177" 
d="M602 1479q-40 1 -68 29t-28 67t29 67t67 29t67 -27q27 -28 27 -69t-27 -69q-28 -27 -67 -27zM307 0h-153v1366h153v-526q129 174 329 174t322 -142t123 -380q0 -236 -122 -376q-121 -140 -323 -140t-329 171v-147zM602 113q147 0 234 106q86 107 86 275t-86 276t-234 107
q-88 -1 -171 -47t-124 -113v-449q41 -66 124 -110t171 -45z" />
    <glyph glyph-name="uni1E0A" unicode="&#x1e0a;" horiz-adv-x="1433" 
d="M717 1479q-39 1 -68 29t-28 67t29 67t67 29t67 -27t27 -69q1 -41 -27 -69t-67 -27zM627 152q242 0 383 152t141 379q0 228 -139 380t-385 151h-297v-1062h297zM627 0h-467v1366h467q313 0 507 -195t194 -491t-194 -488t-507 -192z" />
    <glyph glyph-name="uni1E0B" unicode="&#x1e0b;" horiz-adv-x="1177" 
d="M578 1479q-39 1 -68 29t-29 67t29 67t68 29q38 1 66 -27t28 -69t-28 -69t-66 -27zM573 113q90 0 172 45t125 110v449q-43 67 -126 113t-171 47q-145 0 -231 -108q-86 -107 -86 -275t86 -274t231 -107zM1024 0h-154v147q-126 -172 -328 -172q-202 1 -324 141t-122 377
t122 379t323 142t329 -174v526h154v-1366z" />
    <glyph glyph-name="uni1E1E" unicode="&#x1e1e;" horiz-adv-x="1126" 
d="M330 0h-170v1366h895v-152h-725v-440h710v-151h-710v-623zM608 1479q-40 1 -68 29t-28 67t29 67t67 29t67 -27q27 -28 27 -69t-27 -69q-28 -27 -67 -27z" />
    <glyph glyph-name="uni1E1F" unicode="&#x1e1f;" horiz-adv-x="579" 
d="M350 0h-153v854h-164v135h164v76q0 152 76 237q77 84 207 84t212 -75l-63 -101q-55 50 -127 50t-112 -50t-40 -145v-76h201v-135h-201v-854zM485 1479q-39 1 -67 29t-29 67q0 39 29 67q30 28 68 29t66 -27t28 -69t-28 -69t-67 -27z" />
    <glyph glyph-name="uni1E22" unicode="&#x1e22;" horiz-adv-x="1458" 
d="M727 1479q-39 1 -68 29t-28 67t29 67t67 29t67 -27t28 -69t-28 -69q-28 -27 -67 -27zM1298 0h-170v627h-798v-627h-170v1366h170v-588h798v588h170v-1366z" />
    <glyph glyph-name="uni1E23" unicode="&#x1e23;" horiz-adv-x="1130" 
d="M565 1479q-39 1 -67 29t-29 67q0 39 29 67q30 28 68 29t66 -27t28 -69t-28 -69q-28 -27 -67 -27zM977 0h-154v651q-1 223 -211 225q-96 0 -177 -44q-81 -46 -128 -109v-723h-153v1366h153v-520q57 68 153 118t202 50q315 0 315 -316v-698z" />
    <glyph glyph-name="uni1E56" unicode="&#x1e56;" horiz-adv-x="1202" 
d="M600 1479q-39 1 -68 29t-28 67q0 39 28 67t68 29q39 1 67 -27q27 -28 27 -69t-27 -69q-28 -27 -67 -27zM688 694q121 0 197 73t76 187t-76 188q-76 73 -197 72h-358v-520h358zM330 0h-170v1366h549q199 0 313 -119t115 -293q0 -174 -116 -292t-312 -119h-379v-543z" />
    <glyph glyph-name="uni1E57" unicode="&#x1e57;" 
d="M600 1137q-39 1 -68 29t-28 67q0 39 28 67t68 29q39 1 67 -27q27 -28 27 -69t-27 -69q-28 -27 -67 -27zM602 113q145 0 232 107q86 108 86 276t-86 274t-232 107q-88 -1 -171 -47t-124 -111v-447q41 -68 124 -114t171 -45zM641 1014q197 0 319 -140t121 -378
q1 -238 -121 -380t-325 -141q-203 0 -328 175v-527h-153v1366h153v-147q55 78 143 125t191 47z" />
    <glyph glyph-name="uni1E60" unicode="&#x1e60;" horiz-adv-x="1200" 
d="M600 1479q-39 1 -68 29t-28 67q0 39 28 67t68 29q39 1 67 -27q27 -28 27 -69t-27 -69q-28 -27 -67 -27zM602 -25q-332 0 -524 218l100 129q174 -195 430 -195q166 0 244 71q78 72 78 154t-45 131t-116 77t-226 68t-244 89q-178 99 -178 279t133 285t336 105
q305 0 485 -190l-102 -125q-150 164 -395 164q-123 0 -202 -60q-79 -61 -79 -145t60 -131q59 -47 149 -70q221 -57 390 -128q89 -38 150 -121q60 -84 60 -203q0 -168 -124 -285t-380 -117z" />
    <glyph glyph-name="uni1E61" unicode="&#x1e61;" horiz-adv-x="952" 
d="M475 1137q-39 1 -67 29t-29 67q0 39 29 67q30 28 68 29t66 -27t28 -69t-28 -69q-28 -27 -67 -27zM467 -25q-252 0 -399 156l79 111q51 -58 141 -100t192 -42q104 0 165 47t61 118t-62 109q-64 38 -154 57t-179 45q-90 26 -153 88q-64 62 -64 174t100 194t269 82
q223 0 366 -144l-71 -106q-104 125 -295 125q-99 0 -159 -44q-60 -43 -60 -107t63 -98t153 -53t179 -46t153 -94t64 -185t-102 -203q-102 -84 -287 -84z" />
    <glyph glyph-name="uni1E6A" unicode="&#x1e6a;" horiz-adv-x="1167" 
d="M582 1479q-39 1 -68 29t-29 67t29 67t68 29q38 1 66 -27t28 -69t-28 -69t-66 -27zM668 0h-170v1214h-432v152h1036v-152h-434v-1214z" />
    <glyph glyph-name="uni1E6B" unicode="&#x1e6b;" horiz-adv-x="602" 
d="M274 1479q-40 1 -68 29t-28 67t29 67t67 29t67 -27q28 -28 28 -69t-28 -69t-67 -27zM338 240q0 -128 110 -128q58 0 95 42l45 -115q-68 -64 -181 -64q-221 0 -223 232v647h-164v135h164v271h154v-271h201v-135h-201v-614z" />
    <glyph glyph-name="Wgrave" unicode="&#x1e80;" horiz-adv-x="1808" 
d="M1020 1481h-117l-346 295h160zM1389 0h-185l-301 1102l-301 -1102h-184l-389 1366h188l303 -1139l314 1139h141l313 -1139l301 1139h189z" />
    <glyph glyph-name="wgrave" unicode="&#x1e81;" horiz-adv-x="1503" 
d="M868 1139h-116l-346 295h159zM1163 0h-153l-258 795l-258 -795h-154l-315 989h159l242 -788l260 788h131l260 -788l242 788h160z" />
    <glyph glyph-name="Wacute" unicode="&#x1e82;" horiz-adv-x="1808" 
d="M1389 0h-185l-301 1102l-301 -1102h-184l-389 1366h188l303 -1139l314 1139h141l313 -1139l301 1139h189zM1249 1776l-346 -295h-117l304 295h159z" />
    <glyph glyph-name="wacute" unicode="&#x1e83;" horiz-adv-x="1503" 
d="M1163 0h-153l-258 795l-258 -795h-154l-315 989h159l242 -788l260 788h131l260 -788l242 788h160zM1098 1434l-346 -295h-117l303 295h160z" />
    <glyph glyph-name="Wdieresis" unicode="&#x1e84;" horiz-adv-x="1808" 
d="M1389 0h-185l-301 1102l-301 -1102h-184l-389 1366h188l303 -1139l314 1139h141l313 -1139l301 1139h189zM786 1579q0 -39 -28 -68t-67 -29t-67 30q-28 28 -28 67t29 67t67 28t67 -28q27 -28 27 -67zM1210 1579q0 -39 -28 -68t-68 -29t-68 30q-28 28 -28 67t29 67t67 28
t68 -28q28 -28 28 -67z" />
    <glyph glyph-name="wdieresis" unicode="&#x1e85;" horiz-adv-x="1503" 
d="M1163 0h-153l-258 795l-258 -795h-154l-315 989h159l242 -788l260 788h131l260 -788l242 788h160zM635 1237q0 -39 -28 -68q-27 -29 -67 -29t-68 28t-28 68t29 68t68 28t67 -28t27 -67zM1059 1237q0 -39 -29 -68q-30 -29 -68 -29t-67 30q-29 28 -29 67t29 67t68 28
t67 -28t29 -67z" />
    <glyph glyph-name="uni1EA0" unicode="&#x1ea0;" horiz-adv-x="1347" 
d="M674 -377q-39 0 -68 29q-28 30 -28 68t28 67q29 29 68 29q38 0 66 -28t28 -69t-28 -69t-66 -27zM963 455l-289 735l-291 -735h580zM1329 0h-194l-121 303h-680l-121 -303h-195l549 1366h211z" />
    <glyph glyph-name="uni1EA1" unicode="&#x1ea1;" horiz-adv-x="1079" 
d="M541 -377q-39 0 -68 29q-29 30 -29 68t29 67t68 29t67 -28t27 -69q1 -41 -27 -69t-67 -27zM500 86q184 0 272 123v186q-88 123 -272 123q-106 0 -175 -60t-69 -156t69 -156t175 -60zM926 0h-154v113q-125 -137 -328 -138q-137 0 -241 88q-105 88 -105 242t104 239t242 85
q211 0 328 -135v178q0 98 -70 153t-180 56q-174 0 -303 -138l-72 107q158 164 396 164q170 0 276 -82t107 -252v-680z" />
    <glyph glyph-name="uni1EA2" unicode="&#x1ea2;" horiz-adv-x="1347" 
d="M821 1544q0 -64 -39 -117h-82q47 47 48 107q0 80 -74 80q-59 0 -82 -66l-68 19q37 113 150 112q63 1 105 -35t42 -100zM963 455l-289 735l-291 -735h580zM1329 0h-194l-121 303h-680l-121 -303h-195l549 1366h211z" />
    <glyph glyph-name="uni1EA3" unicode="&#x1ea3;" horiz-adv-x="1079" 
d="M688 1196q0 -63 -39 -117h-82q47 47 47 107q0 80 -73 80q-59 0 -82 -66l-68 19q37 113 150 112q63 0 105 -36t42 -99zM500 86q184 0 272 123v186q-88 123 -272 123q-106 0 -175 -60t-69 -156t69 -156t175 -60zM926 0h-154v113q-125 -137 -328 -138q-137 0 -241 88
q-105 88 -105 242t104 239t242 85q211 0 328 -135v178q0 98 -70 153t-180 56q-174 0 -303 -138l-72 107q158 164 396 164q170 0 276 -82t107 -252v-680z" />
    <glyph glyph-name="uni1EA4" unicode="&#x1ea4;" horiz-adv-x="1347" 
d="M1346 1729l-347 -222h-116l303 222h160zM963 455l-289 735l-291 -735h580zM1329 0h-194l-121 303h-680l-121 -303h-195l549 1366h211zM948 1397h-104l-170 162l-164 -162h-104l194 221h148z" />
    <glyph glyph-name="uni1EA5" unicode="&#x1ea5;" horiz-adv-x="1079" 
d="M1202 1577l-346 -295h-117l303 295h160zM815 1139h-104l-170 217l-164 -217h-105l195 295h147zM500 86q184 0 272 123v186q-88 123 -272 123q-106 0 -175 -60t-69 -156t69 -156t175 -60zM926 0h-154v113q-125 -137 -328 -138q-137 0 -241 88q-105 88 -105 242t104 239
t242 85q211 0 328 -135v178q0 98 -70 153t-180 56q-174 0 -303 -138l-72 107q158 164 396 164q170 0 276 -82t107 -252v-680z" />
    <glyph glyph-name="uni1EA6" unicode="&#x1ea6;" horiz-adv-x="1347" 
d="M469 1507h-117l-346 222h160zM963 455l-289 735l-291 -735h580zM1329 0h-194l-121 303h-680l-121 -303h-195l549 1366h211zM948 1397h-104l-170 162l-164 -162h-104l194 221h148z" />
    <glyph glyph-name="uni1EA7" unicode="&#x1ea7;" horiz-adv-x="1079" 
d="M346 1282h-117l-346 295h160zM815 1139h-104l-170 217l-164 -217h-105l195 295h147zM500 86q184 0 272 123v186q-88 123 -272 123q-106 0 -175 -60t-69 -156t69 -156t175 -60zM926 0h-154v113q-125 -137 -328 -138q-137 0 -241 88q-105 88 -105 242t104 239t242 85
q211 0 328 -135v178q0 98 -70 153t-180 56q-174 0 -303 -138l-72 107q158 164 396 164q170 0 276 -82t107 -252v-680z" />
    <glyph glyph-name="uni1EA8" unicode="&#x1ea8;" horiz-adv-x="1347" 
d="M958 1712q63 0 106 -26q42 -27 42 -74t-39 -88h-82q47 37 47 80q0 59 -66 59t-89 -49l-68 14q37 84 149 84zM963 455l-289 735l-291 -735h580zM1329 0h-194l-121 303h-680l-121 -303h-195l549 1366h211zM948 1397h-104l-170 162l-164 -162h-104l194 221h148z" />
    <glyph glyph-name="uni1EA9" unicode="&#x1ea9;" horiz-adv-x="1079" 
d="M727 1618q63 0 105 -36t42 -99t-38 -117h-82q47 47 47 107q0 80 -74 79q-59 1 -82 -65l-67 18q37 113 149 113zM815 1139h-104l-170 217l-164 -217h-105l195 295h147zM500 86q184 0 272 123v186q-88 123 -272 123q-106 0 -175 -60t-69 -156t69 -156t175 -60zM926 0h-154
v113q-125 -137 -328 -138q-137 0 -241 88q-105 88 -105 242t104 239t242 85q211 0 328 -135v178q0 98 -70 153t-180 56q-174 0 -303 -138l-72 107q158 164 396 164q170 0 276 -82t107 -252v-680z" />
    <glyph glyph-name="uni1EAA" unicode="&#x1eaa;" horiz-adv-x="1347" 
d="M993 1688q0 -62 -52 -100t-140 -38q-87 0 -151 47t-107 48q-98 0 -99 -89h-92q0 62 52 100t140 38t152 -47t107 -48q98 0 98 89h92zM963 455l-289 735l-291 -735h580zM1329 0h-194l-121 303h-680l-121 -303h-195l549 1366h211zM948 1389h-104l-170 108l-164 -108h-104
l194 147h148z" />
    <glyph glyph-name="uni1EAB" unicode="&#x1eab;" horiz-adv-x="1079" 
d="M662 1397q-51 0 -90 29q-38 30 -56 65t-46 65t-66 29q-38 0 -65 -44q-28 -44 -28 -132h-92q0 123 52 199t147 75q49 1 87 -29t57 -65q51 -94 101 -94q105 0 105 176h92q0 -123 -52 -199t-146 -75zM815 1071h-104l-170 217l-164 -217h-105l195 295h147zM500 86
q184 0 272 123v186q-88 123 -272 123q-106 0 -175 -60t-69 -156t69 -156t175 -60zM926 0h-154v113q-125 -137 -328 -138q-137 0 -241 88q-105 88 -105 242t104 239t242 85q211 0 328 -135v178q0 98 -70 153t-180 56q-174 0 -303 -138l-72 107q158 164 396 164q170 0 276 -82
t107 -252v-680z" />
    <glyph glyph-name="uni1EAC" unicode="&#x1eac;" horiz-adv-x="1347" 
d="M674 -377q-39 0 -68 29q-28 30 -28 68t28 67q29 29 68 29q38 0 66 -28t28 -69t-28 -69t-66 -27zM946 1481h-104l-170 217l-164 -217h-105l195 295h147zM963 455l-289 735l-291 -735h580zM1329 0h-194l-121 303h-680l-121 -303h-195l549 1366h211z" />
    <glyph glyph-name="uni1EAD" unicode="&#x1ead;" horiz-adv-x="1079" 
d="M541 -377q-39 0 -68 29q-29 30 -29 68t29 67t68 29t67 -28t27 -69q1 -41 -27 -69t-67 -27zM811 1139h-104l-170 217l-164 -217h-105l195 295h147zM500 86q184 0 272 123v186q-88 123 -272 123q-106 0 -175 -60t-69 -156t69 -156t175 -60zM926 0h-154v113
q-125 -137 -328 -138q-137 0 -241 88q-105 88 -105 242t104 239t242 85q211 0 328 -135v178q0 98 -70 153t-180 56q-174 0 -303 -138l-72 107q158 164 396 164q170 0 276 -82t107 -252v-680z" />
    <glyph glyph-name="uni1EAE" unicode="&#x1eae;" horiz-adv-x="1347" 
d="M676 1487q178 0 280 125l76 -56q-133 -154 -357 -154t-362 154l76 56q109 -125 287 -125zM1018 1718l-346 -200h-117l303 200h160zM963 455l-289 735l-291 -735h580zM1329 0h-194l-121 303h-680l-121 -303h-195l549 1366h211z" />
    <glyph glyph-name="uni1EAF" unicode="&#x1eaf;" horiz-adv-x="1079" 
d="M544 1067q-224 0 -362 180l76 66q106 -147 286 -147t281 147l76 -66q-133 -180 -357 -180zM891 1569l-346 -295h-117l303 295h160zM500 86q184 0 272 123v186q-88 123 -272 123q-106 0 -175 -60t-69 -156t69 -156t175 -60zM926 0h-154v113q-125 -137 -328 -138
q-137 0 -241 88q-105 88 -105 242t104 239t242 85q211 0 328 -135v178q0 98 -70 153t-180 56q-174 0 -303 -138l-72 107q158 164 396 164q170 0 276 -82t107 -252v-680z" />
    <glyph glyph-name="uni1EB0" unicode="&#x1eb0;" horiz-adv-x="1347" 
d="M676 1481q178 0 280 125l76 -56q-133 -154 -357 -154t-362 154l76 56q109 -125 287 -125zM795 1518h-117l-346 200h160zM963 455l-289 735l-291 -735h580zM1329 0h-194l-121 303h-680l-121 -303h-195l549 1366h211z" />
    <glyph glyph-name="uni1EB1" unicode="&#x1eb1;" horiz-adv-x="1079" 
d="M544 1075q-224 0 -362 180l76 66q106 -147 286 -147t281 147l76 -66q-133 -180 -357 -180zM653 1274h-116l-347 295h160zM500 86q184 0 272 123v186q-88 123 -272 123q-106 0 -175 -60t-69 -156t69 -156t175 -60zM926 0h-154v113q-125 -137 -328 -138q-137 0 -241 88
q-105 88 -105 242t104 239t242 85q211 0 328 -135v178q0 98 -70 153t-180 56q-174 0 -303 -138l-72 107q158 164 396 164q170 0 276 -82t107 -252v-680z" />
    <glyph glyph-name="uni1EB2" unicode="&#x1eb2;" horiz-adv-x="1347" 
d="M676 1485q178 0 280 125l76 -56q-133 -154 -357 -154t-362 154l76 56q109 -125 287 -125zM674 1694q63 0 105 -24t42 -67t-39 -79h-82q47 33 48 71q0 55 -66 55t-90 -44l-68 12q37 76 150 76zM963 455l-289 735l-291 -735h580zM1329 0h-194l-121 303h-680l-121 -303h-195
l549 1366h211z" />
    <glyph glyph-name="uni1EB3" unicode="&#x1eb3;" horiz-adv-x="1079" 
d="M544 1075q-224 0 -362 180l76 66q106 -147 286 -147t281 147l76 -66q-133 -180 -357 -180zM541 1526q63 0 105 -36t42 -100t-39 -116h-82q47 47 47 106q0 80 -73 80q-59 1 -82 -65l-68 18q37 113 150 113zM500 86q184 0 272 123v186q-88 123 -272 123q-106 0 -175 -60
t-69 -156t69 -156t175 -60zM926 0h-154v113q-125 -137 -328 -138q-137 0 -241 88q-105 88 -105 242t104 239t242 85q211 0 328 -135v178q0 98 -70 153t-180 56q-174 0 -303 -138l-72 107q158 164 396 164q170 0 276 -82t107 -252v-680z" />
    <glyph glyph-name="uni1EB4" unicode="&#x1eb4;" horiz-adv-x="1347" 
d="M993 1688q0 -62 -52 -100t-140 -38q-87 0 -151 47t-107 48q-98 0 -99 -89h-92q0 62 52 100t140 38t152 -47t107 -48q98 0 98 89h92zM678 1452q180 0 280 90l76 -41q-133 -111 -357 -111t-362 111l76 41q107 -90 287 -90zM963 455l-289 735l-291 -735h580zM1329 0h-194
l-121 303h-680l-121 -303h-195l549 1366h211z" />
    <glyph glyph-name="uni1EB5" unicode="&#x1eb5;" horiz-adv-x="1079" 
d="M662 1346q-51 0 -90 29q-38 30 -56 65q-18 34 -46 64t-66 30t-65 -44q-28 -44 -28 -132h-92q0 122 52 198t147 76q49 0 87 -30t57 -64q51 -94 101 -94q105 0 105 176h92q0 -122 -52 -198t-146 -76zM544 1075q-224 0 -362 180l76 66q106 -147 286 -147t281 147l76 -66
q-133 -180 -357 -180zM500 86q184 0 272 123v186q-88 123 -272 123q-106 0 -175 -60t-69 -156t69 -156t175 -60zM926 0h-154v113q-125 -137 -328 -138q-137 0 -241 88q-105 88 -105 242t104 239t242 85q211 0 328 -135v178q0 98 -70 153t-180 56q-174 0 -303 -138l-72 107
q158 164 396 164q170 0 276 -82t107 -252v-680z" />
    <glyph glyph-name="uni1EB6" unicode="&#x1eb6;" horiz-adv-x="1347" 
d="M675 1444q-224 0 -362 180l76 66q105 -148 285 -148t282 148l76 -66q-133 -180 -357 -180zM674 -377q-39 0 -68 29q-28 30 -28 68t28 67q29 29 68 29q38 0 66 -28t28 -69t-28 -69t-66 -27zM963 455l-289 735l-291 -735h580zM1329 0h-194l-121 303h-680l-121 -303h-195
l549 1366h211z" />
    <glyph glyph-name="uni1EB7" unicode="&#x1eb7;" horiz-adv-x="1079" 
d="M538 1102q-224 0 -362 180l76 66q106 -148 286 -148t281 148l76 -66q-133 -180 -357 -180zM541 -377q-39 0 -68 29q-29 30 -29 68t29 67t68 29t67 -28t27 -69q1 -41 -27 -69t-67 -27zM500 86q184 0 272 123v186q-88 123 -272 123q-106 0 -175 -60t-69 -156t69 -156
t175 -60zM926 0h-154v113q-125 -137 -328 -138q-137 0 -241 88q-105 88 -105 242t104 239t242 85q211 0 328 -135v178q0 98 -70 153t-180 56q-174 0 -303 -138l-72 107q158 164 396 164q170 0 276 -82t107 -252v-680z" />
    <glyph glyph-name="uni1EB8" unicode="&#x1eb8;" horiz-adv-x="1165" 
d="M614 -377q-40 0 -68 29q-28 30 -28 68t29 67t67 29t67 -28q28 -28 28 -69t-28 -69t-67 -27zM1055 0h-895v1366h895v-152h-725v-440h710v-151h-710v-471h725v-152z" />
    <glyph glyph-name="uni1EB9" unicode="&#x1eb9;" horiz-adv-x="1153" 
d="M586 -377q-39 0 -68 29q-29 30 -29 68t29 67t68 29q38 0 66 -28t28 -69t-28 -69t-66 -27zM907 557q-2 127 -86 228t-235 101q-150 0 -236 -100t-92 -229h649zM610 -25q-232 1 -372 145q-142 144 -142 368t140 376q140 150 353 150q214 0 342 -151t128 -380v-39h-801
q10 -145 106 -243q96 -99 266 -99q168 0 290 125l73 -100q-151 -152 -383 -152z" />
    <glyph glyph-name="uni1EBA" unicode="&#x1eba;" horiz-adv-x="1165" 
d="M745 1544q0 -64 -38 -117h-82q47 47 47 107q0 80 -74 80q-59 0 -82 -66l-67 19q37 113 149 112q63 1 105 -35t42 -100zM1055 0h-895v1366h895v-152h-725v-440h710v-151h-710v-471h725v-152z" />
    <glyph glyph-name="uni1EBB" unicode="&#x1ebb;" horiz-adv-x="1153" 
d="M729 1196q0 -63 -39 -117h-82q47 47 47 107q0 80 -73 80q-59 0 -82 -66l-68 19q37 113 150 112q63 0 105 -36t42 -99zM907 557q-2 127 -86 228t-235 101q-150 0 -236 -100t-92 -229h649zM610 -25q-232 1 -372 145q-142 144 -142 368t140 376q140 150 353 150
q214 0 342 -151t128 -380v-39h-801q10 -145 106 -243q96 -99 266 -99q168 0 290 125l73 -100q-151 -152 -383 -152z" />
    <glyph glyph-name="uni1EBC" unicode="&#x1ebc;" horiz-adv-x="1165" 
d="M731 1477q-51 -1 -89 29t-56 65q-48 94 -107 94q-43 0 -71 -44t-27 -132h-92q0 123 52 199t146 75q49 1 87 -29t58 -65q52 -94 101 -94t77 44t28 132h92q0 -123 -52 -199q-53 -75 -147 -75zM1055 0h-895v1366h895v-152h-725v-440h710v-151h-710v-471h725v-152z" />
    <glyph glyph-name="uni1EBD" unicode="&#x1ebd;" horiz-adv-x="1153" 
d="M705 1135q-51 0 -90 29q-38 30 -56 65t-46 65q-27 30 -65 29q-38 0 -66 -44t-28 -132h-92q0 123 52 199t147 75q49 1 87 -29t57 -65q51 -94 101 -94q105 0 105 176h92q0 -123 -52 -199t-146 -75zM907 557q-2 127 -86 228t-235 101q-150 0 -236 -100t-92 -229h649z
M610 -25q-232 1 -372 145q-142 144 -142 368t140 376q140 150 353 150q214 0 342 -151t128 -380v-39h-801q10 -145 106 -243q96 -99 266 -99q168 0 290 125l73 -100q-151 -152 -383 -152z" />
    <glyph glyph-name="uni1EBE" unicode="&#x1ebe;" horiz-adv-x="1165" 
d="M1055 0h-895v1366h895v-152h-725v-440h710v-151h-710v-471h725v-152zM1286 1729l-346 -222h-117l303 222h160zM889 1397h-105l-170 162l-163 -162h-105l195 221h147z" />
    <glyph glyph-name="uni1EBF" unicode="&#x1ebf;" horiz-adv-x="1153" 
d="M907 557q-2 127 -86 228t-235 101q-150 0 -236 -100t-92 -229h649zM610 -25q-232 1 -372 145q-142 144 -142 368t140 376q140 150 353 150q214 0 342 -151t128 -380v-39h-801q10 -145 106 -243q96 -99 266 -99q168 0 290 125l73 -100q-151 -152 -383 -152zM1237 1577
l-346 -295h-117l303 295h160zM856 1139h-104l-170 217l-164 -217h-105l195 295h147z" />
    <glyph glyph-name="uni1EC0" unicode="&#x1ec0;" horiz-adv-x="1165" 
d="M408 1507h-117l-346 222h159zM1055 0h-895v1366h895v-152h-725v-440h710v-151h-710v-471h725v-152zM887 1397h-105l-170 162l-163 -162h-105l195 221h147z" />
    <glyph glyph-name="uni1EC1" unicode="&#x1ec1;" horiz-adv-x="1153" 
d="M385 1282h-117l-346 295h160zM907 557q-2 127 -86 228t-235 101q-150 0 -236 -100t-92 -229h649zM610 -25q-232 1 -372 145q-142 144 -142 368t140 376q140 150 353 150q214 0 342 -151t128 -380v-39h-801q10 -145 106 -243q96 -99 266 -99q168 0 290 125l73 -100
q-151 -152 -383 -152zM854 1139h-104l-170 217l-164 -217h-105l195 295h147z" />
    <glyph glyph-name="uni1EC2" unicode="&#x1ec2;" horiz-adv-x="1165" 
d="M899 1712q63 0 106 -26q42 -27 42 -74t-39 -88h-82q47 37 47 80q-1 59 -67 59t-89 -49l-67 14q37 84 149 84zM1055 0h-895v1366h895v-152h-725v-440h710v-151h-710v-471h725v-152zM889 1397h-105l-170 162l-163 -162h-105l195 221h147z" />
    <glyph glyph-name="uni1EC3" unicode="&#x1ec3;" horiz-adv-x="1153" 
d="M764 1618q63 0 105 -36t42 -99t-39 -117h-81q47 47 47 107q0 80 -74 79q-59 1 -82 -65l-68 18q37 113 150 113zM907 557q-2 127 -86 228t-235 101q-150 0 -236 -100t-92 -229h649zM610 -25q-232 1 -372 145q-142 144 -142 368t140 376q140 150 353 150q214 0 342 -151
t128 -380v-39h-801q10 -145 106 -243q96 -99 266 -99q168 0 290 125l73 -100q-151 -152 -383 -152zM852 1139h-104l-170 217l-164 -217h-105l195 295h147z" />
    <glyph glyph-name="uni1EC4" unicode="&#x1ec4;" horiz-adv-x="1165" 
d="M741 1550q-88 0 -151 47t-107 48q-98 0 -98 -89h-92q0 62 52 100q51 38 139 38t152 -47t107 -48q98 0 99 89h92q0 -61 -52 -100q-53 -38 -141 -38zM1055 0h-895v1366h895v-152h-725v-440h710v-151h-710v-471h725v-152zM889 1389h-105l-170 108l-163 -108h-105l195 147
h147z" />
    <glyph glyph-name="uni1EC5" unicode="&#x1ec5;" horiz-adv-x="1153" 
d="M696 1397q-51 -1 -89 29t-56 65q-48 94 -107 94q-42 0 -70 -44t-28 -132h-92q0 123 52 199t147 75q49 1 87 -29t57 -65q51 -94 101 -94q105 0 105 176h92q-1 -123 -53 -199t-146 -75zM907 557q-2 127 -86 228t-235 101q-150 0 -236 -100t-92 -229h649zM610 -25
q-232 1 -372 145q-142 144 -142 368t140 376q140 150 353 150q214 0 342 -151t128 -380v-39h-801q10 -145 106 -243q96 -99 266 -99q168 0 290 125l73 -100q-151 -152 -383 -152zM852 1071h-104l-170 217l-164 -217h-105l195 295h147z" />
    <glyph glyph-name="uni1EC6" unicode="&#x1ec6;" horiz-adv-x="1165" 
d="M614 -377q-40 0 -68 29q-28 30 -28 68t29 67t67 29t67 -28q28 -28 28 -69t-28 -69t-67 -27zM1055 0h-895v1366h895v-152h-725v-440h710v-151h-710v-471h725v-152zM877 1481h-105l-170 217l-164 -217h-104l194 295h148z" />
    <glyph glyph-name="uni1EC7" unicode="&#x1ec7;" horiz-adv-x="1153" 
d="M586 -377q-39 0 -68 29q-29 30 -29 68t29 67t68 29q38 0 66 -28t28 -69t-28 -69t-66 -27zM907 557q-2 127 -86 228t-235 101q-150 0 -236 -100t-92 -229h649zM610 -25q-232 1 -372 145q-142 144 -142 368t140 376q140 150 353 150q214 0 342 -151t128 -380v-39h-801
q10 -145 106 -243q96 -99 266 -99q168 0 290 125l73 -100q-151 -152 -383 -152zM858 1139h-104l-170 217l-164 -217h-105l195 295h147z" />
    <glyph glyph-name="uni1EC8" unicode="&#x1ec8;" horiz-adv-x="489" 
d="M393 1544q0 -64 -39 -117h-82q47 47 47 107q0 80 -73 80q-59 0 -82 -66l-68 19q37 113 150 112q63 1 105 -35t42 -100zM330 0h-170v1366h170v-1366z" />
    <glyph glyph-name="uni1EC9" unicode="&#x1ec9;" horiz-adv-x="460" 
d="M379 1196q0 -63 -39 -117h-82q47 47 47 107q0 80 -74 80q-58 0 -81 -66l-68 19q37 113 149 112q63 0 105 -36t43 -99zM307 0h-153v989h153v-989z" />
    <glyph glyph-name="uni1ECA" unicode="&#x1eca;" horiz-adv-x="489" 
d="M246 -377q-39 0 -68 29q-28 30 -28 68t28 67q29 29 68 29q38 0 66 -28t28 -69t-28 -69t-66 -27zM330 0h-170v1366h170v-1366z" />
    <glyph glyph-name="uni1ECB" unicode="&#x1ecb;" horiz-adv-x="460" 
d="M231 -377q-39 0 -67 29q-28 30 -29 68q0 38 29 67q30 29 68 29t66 -28t28 -69t-28 -69t-67 -27zM307 0h-153v989h153v-989zM230 1130q-42 0 -72 30t-31 73q0 43 31 74q30 31 72 31t73 -32q31 -30 31 -73t-31 -73t-73 -30z" />
    <glyph glyph-name="uni1ECC" unicode="&#x1ecc;" horiz-adv-x="1566" 
d="M786 -377q-40 0 -68 29q-28 30 -28 68t29 67t67 29t67 -28q28 -28 28 -69t-28 -69t-67 -27zM281 682q0 -242 137 -398t363 -157q226 0 365 157q138 158 138 400t-138 398t-364 155q-226 0 -364 -156q-137 -157 -137 -399zM1460 682q0 -305 -190 -506t-489 -201
q-300 0 -488 201t-189 506q0 305 188 506t489 201q299 0 489 -201t190 -506z" />
    <glyph glyph-name="uni1ECD" unicode="&#x1ecd;" 
d="M586 -377q-39 0 -68 29q-29 30 -29 68t29 67t68 29q38 0 66 -28t28 -69t-28 -69t-66 -27zM586 113q152 -1 240 111t87 272q0 160 -88 270q-87 110 -239 111q-152 0 -241 -112q-89 -113 -89 -271t89 -270t241 -111zM586 -25q-221 0 -356 150q-134 150 -134 371t134 369
q134 149 356 149t355 -148q134 -148 134 -370q0 -221 -134 -371t-355 -150z" />
    <glyph glyph-name="uni1ECE" unicode="&#x1ece;" horiz-adv-x="1566" 
d="M928 1544q0 -64 -39 -117h-82q47 47 47 107q0 80 -74 80q-59 0 -82 -66l-67 19q37 113 149 112q63 0 106 -35q42 -36 42 -100zM281 682q0 -242 137 -398t363 -157q226 0 365 157q138 158 138 400t-138 398t-364 155q-226 0 -364 -156q-137 -157 -137 -399zM1460 682
q0 -305 -190 -506t-489 -201q-300 0 -488 201t-189 506q0 305 188 506t489 201q299 0 489 -201t190 -506z" />
    <glyph glyph-name="uni1ECF" unicode="&#x1ecf;" 
d="M733 1196q0 -63 -39 -117h-82q47 47 47 107q0 80 -73 80q-59 0 -82 -66l-68 19q37 113 150 112q63 0 105 -36t42 -99zM586 113q152 -1 240 111t87 272q0 160 -88 270q-87 110 -239 111q-152 0 -241 -112q-89 -113 -89 -271t89 -270t241 -111zM586 -25q-221 0 -356 150
q-134 150 -134 371t134 369q134 149 356 149t355 -148q134 -148 134 -370q0 -221 -134 -371t-355 -150z" />
    <glyph glyph-name="uni1ED0" unicode="&#x1ed0;" horiz-adv-x="1566" 
d="M281 682q0 -242 137 -398t363 -157q226 0 365 157q138 158 138 400t-138 398t-364 155q-226 0 -364 -156q-137 -157 -137 -399zM1460 682q0 -305 -190 -506t-489 -201q-300 0 -488 201t-189 506q0 305 188 506t489 201q299 0 489 -201t190 -506zM1448 1729l-346 -222
h-117l303 222h160zM1051 1397h-105l-170 162l-164 -162h-104l194 221h148z" />
    <glyph glyph-name="uni1ED1" unicode="&#x1ed1;" 
d="M586 113q152 -1 240 111t87 272q0 160 -88 270q-87 110 -239 111q-152 0 -241 -112q-89 -113 -89 -271t89 -270t241 -111zM586 -25q-221 0 -356 150q-134 150 -134 371t134 369q134 149 356 149t355 -148q134 -148 134 -370q0 -221 -134 -371t-355 -150zM1241 1577
l-346 -295h-117l303 295h160zM858 1139h-104l-170 217l-164 -217h-105l195 295h147z" />
    <glyph glyph-name="uni1ED2" unicode="&#x1ed2;" horiz-adv-x="1566" 
d="M569 1507h-116l-347 222h160zM281 682q0 -242 137 -398t363 -157q226 0 365 157q138 158 138 400t-138 398t-364 155q-226 0 -364 -156q-137 -157 -137 -399zM1460 682q0 -305 -190 -506t-489 -201q-300 0 -488 201t-189 506q0 305 188 506t489 201q299 0 489 -201
t190 -506zM1049 1397h-105l-170 162l-164 -162h-104l194 221h148z" />
    <glyph glyph-name="uni1ED3" unicode="&#x1ed3;" 
d="M389 1282h-117l-346 295h160zM586 113q152 -1 240 111t87 272q0 160 -88 270q-87 110 -239 111q-152 0 -241 -112q-89 -113 -89 -271t89 -270t241 -111zM586 -25q-221 0 -356 150q-134 150 -134 371t134 369q134 149 356 149t355 -148q134 -148 134 -370
q0 -221 -134 -371t-355 -150zM858 1139h-104l-170 217l-164 -217h-105l195 295h147z" />
    <glyph glyph-name="uni1ED4" unicode="&#x1ed4;" horiz-adv-x="1566" 
d="M1059 1712q63 0 105 -26t42 -74q0 -47 -39 -88h-82q47 37 48 80q-1 59 -67 59t-89 -49l-68 14q37 84 150 84zM281 682q0 -242 137 -398t363 -157q226 0 365 157q138 158 138 400t-138 398t-364 155q-226 0 -364 -156q-137 -157 -137 -399zM1460 682q0 -305 -190 -506
t-489 -201q-300 0 -488 201t-189 506q0 305 188 506t489 201q299 0 489 -201t190 -506zM1049 1397h-105l-170 162l-164 -162h-104l194 221h148z" />
    <glyph glyph-name="uni1ED5" unicode="&#x1ed5;" 
d="M768 1618q63 0 105 -36t42 -99t-38 -117h-82q47 47 47 107q0 80 -74 79q-59 1 -82 -65l-68 18q37 113 150 113zM586 113q152 -1 240 111t87 272q0 160 -88 270q-87 110 -239 111q-152 0 -241 -112q-89 -113 -89 -271t89 -270t241 -111zM586 -25q-221 0 -356 150
q-134 150 -134 371t134 369q134 149 356 149t355 -148q134 -148 134 -370q0 -221 -134 -371t-355 -150zM858 1139h-104l-170 217l-164 -217h-105l195 295h147z" />
    <glyph glyph-name="uni1ED6" unicode="&#x1ed6;" horiz-adv-x="1566" 
d="M905 1550q-88 0 -151 47t-107 48q-98 0 -98 -89h-92q0 62 52 100t139 38t152 -47t107 -48q98 0 99 89h92q0 -61 -52 -100q-53 -38 -141 -38zM281 682q0 -242 137 -398t363 -157q226 0 365 157q138 158 138 400t-138 398t-364 155q-226 0 -364 -156q-137 -157 -137 -399z
M1460 682q0 -305 -190 -506t-489 -201q-300 0 -488 201t-189 506q0 305 188 506t489 201q299 0 489 -201t190 -506zM1053 1389h-105l-170 108l-164 -108h-104l195 147h147z" />
    <glyph glyph-name="uni1ED7" unicode="&#x1ed7;" 
d="M700 1397q-51 -1 -89 29t-56 65t-46 65q-27 30 -65 29q-38 0 -66 -44t-28 -132h-92q0 123 52 199t147 75q49 1 87 -29t57 -65q51 -94 101 -94q105 0 105 176h92q-1 -123 -53 -199t-146 -75zM586 113q152 -1 240 111t87 272q0 160 -88 270q-87 110 -239 111
q-152 0 -241 -112q-89 -113 -89 -271t89 -270t241 -111zM586 -25q-221 0 -356 150q-134 150 -134 371t134 369q134 149 356 149t355 -148q134 -148 134 -370q0 -221 -134 -371t-355 -150zM854 1071h-104l-170 217l-164 -217h-105l195 295h147z" />
    <glyph glyph-name="uni1ED8" unicode="&#x1ed8;" horiz-adv-x="1566" 
d="M788 -377q-40 0 -68 29q-28 30 -28 68t29 67t67 29t67 -28q28 -28 28 -69t-28 -69t-67 -27zM281 682q0 -242 137 -398t363 -157q226 0 365 157q138 158 138 400t-138 398t-364 155q-226 0 -364 -156q-137 -157 -137 -399zM1460 682q0 -305 -190 -506t-489 -201
q-300 0 -488 201t-189 506q0 305 188 506t489 201q299 0 489 -201t190 -506zM1059 1481h-105l-170 217l-163 -217h-105l195 295h147z" />
    <glyph glyph-name="uni1ED9" unicode="&#x1ed9;" 
d="M586 -377q-39 0 -68 29q-29 30 -29 68t29 67t68 29q38 0 66 -28t28 -69t-28 -69t-66 -27zM586 113q152 -1 240 111t87 272q0 160 -88 270q-87 110 -239 111q-152 0 -241 -112q-89 -113 -89 -271t89 -270t241 -111zM586 -25q-221 0 -356 150q-134 150 -134 371t134 369
q134 149 356 149t355 -148q134 -148 134 -370q0 -221 -134 -371t-355 -150zM856 1139h-104l-170 217l-164 -217h-105l195 295h147z" />
    <glyph glyph-name="uni1EDA" unicode="&#x1eda;" horiz-adv-x="1566" 
d="M281 682q0 -242 137 -398t363 -157q226 0 365 157q138 158 138 400t-138 398t-364 155q-226 0 -364 -156q-137 -157 -137 -399zM1460 682q0 -305 -190 -506t-489 -201q-300 0 -488 201t-189 506q0 305 188 506t497 201q308 0 503 -226q84 70 94 156q-4 -4 -30 -4
q-26 1 -50 25q-22 24 -22 60t25 62t65 27q40 0 69 -35q30 -34 30 -102t-38 -138t-96 -112q121 -186 121 -420zM1130 1776l-346 -295h-116l303 295h159z" />
    <glyph glyph-name="uni1EDB" unicode="&#x1edb;" 
d="M586 113q152 -1 240 111t87 272q0 160 -88 270q-87 110 -239 111q-152 0 -241 -112q-89 -113 -89 -271t89 -270t241 -111zM1079 1085q0 -145 -118 -245q115 -139 115 -352t-135 -363q-134 -150 -355 -150t-356 150q-134 150 -134 371t134 369q134 149 339 149t338 -117
q76 66 86 147l-22 -2q-35 0 -59 24t-24 60t26 62t66 26t70 -34q29 -36 29 -95zM932 1434l-346 -295h-117l303 295h160z" />
    <glyph glyph-name="uni1EDC" unicode="&#x1edc;" horiz-adv-x="1566" 
d="M901 1481h-117l-346 295h160zM281 682q0 -242 137 -398t363 -157q226 0 365 157q138 158 138 400t-138 398t-364 155q-226 0 -364 -156q-137 -157 -137 -399zM1460 682q0 -305 -190 -506t-489 -201q-300 0 -488 201t-189 506q0 305 188 506t497 201q308 0 503 -226
q84 70 94 156q-4 -4 -30 -4q-26 1 -50 25q-22 24 -22 60t25 62t65 27q40 0 69 -35q30 -34 30 -102t-38 -138t-96 -112q121 -186 121 -420z" />
    <glyph glyph-name="uni1EDD" unicode="&#x1edd;" 
d="M702 1139h-116l-346 295h159zM586 113q152 -1 240 111t87 272q0 160 -88 270q-87 110 -239 111q-152 0 -241 -112q-89 -113 -89 -271t89 -270t241 -111zM1079 1085q0 -145 -118 -245q115 -139 115 -352t-135 -363q-134 -150 -355 -150t-356 150q-134 150 -134 371
t134 369q134 149 339 149t338 -117q76 66 86 147l-22 -2q-35 0 -59 24t-24 60t26 62t66 26t70 -34q29 -36 29 -95z" />
    <glyph glyph-name="uni1EDE" unicode="&#x1ede;" horiz-adv-x="1566" 
d="M930 1544q0 -64 -39 -117h-82q47 47 47 107q0 80 -74 80q-59 0 -82 -66l-67 19q37 113 149 112q63 0 106 -35q42 -36 42 -100zM281 682q0 -242 137 -398t363 -157q226 0 365 157q138 158 138 400t-138 398t-364 155q-226 0 -364 -156q-137 -157 -137 -399zM1460 682
q0 -305 -190 -506t-489 -201q-300 0 -488 201t-189 506q0 305 188 506t497 201q308 0 503 -226q84 70 94 156q-4 -4 -30 -4q-26 1 -50 25q-22 24 -22 60t25 62t65 27q40 0 69 -35q30 -34 30 -102t-38 -138t-96 -112q121 -186 121 -420z" />
    <glyph glyph-name="uni1EDF" unicode="&#x1edf;" 
d="M733 1196q0 -63 -39 -117h-82q47 47 47 107q0 80 -73 80q-59 0 -82 -66l-68 19q37 113 150 112q63 0 105 -36t42 -99zM586 113q152 -1 240 111t87 272q0 160 -88 270q-87 110 -239 111q-152 0 -241 -112q-89 -113 -89 -271t89 -270t241 -111zM1079 1085q0 -145 -118 -245
q115 -139 115 -352t-135 -363q-134 -150 -355 -150t-356 150q-134 150 -134 371t134 369q134 149 339 149t338 -117q76 66 86 147l-22 -2q-35 0 -59 24t-24 60t26 62t66 26t70 -34q29 -36 29 -95z" />
    <glyph glyph-name="uni1EE0" unicode="&#x1ee0;" horiz-adv-x="1566" 
d="M905 1477q-51 -1 -89 29t-56 65q-48 94 -107 94q-43 0 -71 -44t-27 -132h-92q0 123 52 199t147 75q49 1 87 -29t57 -65q51 -94 101 -94q49 0 77 44t28 132h92q0 -123 -52 -199q-53 -75 -147 -75zM281 682q0 -242 137 -398t363 -157q226 0 365 157q138 158 138 400
t-138 398t-364 155q-226 0 -364 -156q-137 -157 -137 -399zM1460 682q0 -305 -190 -506t-489 -201q-300 0 -488 201t-189 506q0 305 188 506t497 201q308 0 503 -226q84 70 94 156q-4 -4 -30 -4q-26 1 -50 25q-22 24 -22 60t25 62t65 27q40 0 69 -35q30 -34 30 -102
t-38 -138t-96 -112q121 -186 121 -420z" />
    <glyph glyph-name="uni1EE1" unicode="&#x1ee1;" 
d="M707 1135q-51 0 -90 29q-38 30 -56 65t-46 65q-27 30 -65 29q-38 0 -66 -44t-28 -132h-92q0 123 52 199t147 75q49 1 87 -29t57 -65q51 -94 101 -94q105 0 105 176h92q0 -123 -52 -199t-146 -75zM586 113q152 -1 240 111t87 272q0 160 -88 270q-87 110 -239 111
q-152 0 -241 -112q-89 -113 -89 -271t89 -270t241 -111zM1079 1085q0 -145 -118 -245q115 -139 115 -352t-135 -363q-134 -150 -355 -150t-356 150q-134 150 -134 371t134 369q134 149 339 149t338 -117q76 66 86 147l-22 -2q-35 0 -59 24t-24 60t26 62t66 26t70 -34
q29 -36 29 -95z" />
    <glyph glyph-name="uni1EE2" unicode="&#x1ee2;" horiz-adv-x="1566" 
d="M786 -377q-40 0 -68 29q-28 30 -28 68t29 67t67 29t67 -28q28 -28 28 -69t-28 -69t-67 -27zM281 682q0 -242 137 -398t363 -157q226 0 365 157q138 158 138 400t-138 398t-364 155q-226 0 -364 -156q-137 -157 -137 -399zM1460 682q0 -305 -190 -506t-489 -201
q-300 0 -488 201t-189 506q0 305 188 506t497 201q308 0 503 -226q84 70 94 156q-4 -4 -30 -4q-26 1 -50 25q-22 24 -22 60t25 62t65 27q40 0 69 -35q30 -34 30 -102t-38 -138t-96 -112q121 -186 121 -420z" />
    <glyph glyph-name="uni1EE3" unicode="&#x1ee3;" 
d="M586 -377q-39 0 -68 29q-29 30 -29 68t29 67t68 29q38 0 66 -28t28 -69t-28 -69t-66 -27zM586 113q152 -1 240 111t87 272q0 160 -88 270q-87 110 -239 111q-152 0 -241 -112q-89 -113 -89 -271t89 -270t241 -111zM1079 1085q0 -145 -118 -245q115 -139 115 -352
t-135 -363q-134 -150 -355 -150t-356 150q-134 150 -134 371t134 369q134 149 339 149t338 -117q76 66 86 147l-22 -2q-35 0 -59 24t-24 60t26 62t66 26t70 -34q29 -36 29 -95z" />
    <glyph glyph-name="uni1EE4" unicode="&#x1ee4;" horiz-adv-x="1433" 
d="M725 -377q-39 0 -68 29q-29 30 -29 68t29 67t68 29t67 -28t28 -69t-28 -69t-67 -27zM717 -25q-273 1 -415 149t-142 406v836h170v-831q0 -190 100 -299t286 -109t288 109q100 109 100 299v831h170v-834q0 -260 -142 -408t-415 -149z" />
    <glyph glyph-name="uni1EE5" unicode="&#x1ee5;" horiz-adv-x="1128" 
d="M569 -377q-39 0 -67 29q-28 30 -29 68q0 38 29 67q30 29 68 29t66 -28t28 -69t-28 -69t-67 -27zM307 338q0 -225 210 -225q97 0 178 43t126 106v727h154v-989h-154v139q-61 -71 -154 -117t-198 -47q-315 0 -315 316v698h153v-651z" />
    <glyph glyph-name="uni1EE6" unicode="&#x1ee6;" horiz-adv-x="1433" 
d="M866 1544q0 -64 -39 -117h-82q47 47 48 107q0 80 -74 80q-59 0 -82 -66l-68 19q37 113 150 112q63 1 105 -35t42 -100zM717 -25q-273 1 -415 149t-142 406v836h170v-831q0 -190 100 -299t286 -109t288 109q100 109 100 299v831h170v-834q0 -260 -142 -408t-415 -149z" />
    <glyph glyph-name="uni1EE7" unicode="&#x1ee7;" horiz-adv-x="1128" 
d="M713 1196q0 -63 -39 -117h-82q47 47 47 107q0 80 -74 80q-59 0 -82 -66l-67 19q37 113 149 112q63 0 105 -36t43 -99zM307 338q0 -225 210 -225q97 0 178 43t126 106v727h154v-989h-154v139q-61 -71 -154 -117t-198 -47q-315 0 -315 316v698h153v-651z" />
    <glyph glyph-name="uni1EE8" unicode="&#x1ee8;" horiz-adv-x="1433" 
d="M1511 1491q0 -98 -63 -184t-174 -131v-644q0 -260 -142 -408t-414 -148t-416 148q-142 148 -142 406v836h170v-831q0 -190 100 -299t286 -109t288 109q100 109 100 299v831h170v-111q59 31 102 85t47 110h-10q-8 -2 -12 -2q-35 0 -58 24t-22 60q0 36 26 62q25 26 65 26
t70 -35t29 -94zM1063 1776l-346 -295h-117l303 295h160z" />
    <glyph glyph-name="uni1EE9" unicode="&#x1ee9;" horiz-adv-x="1128" 
d="M307 338q0 -225 210 -225q97 0 178 43t126 106v727h154v-98q98 74 104 166h-10q-7 -2 -27 -2q-20 -1 -44 23t-24 60t26 62t66 27q40 0 71 -35q31 -34 31 -108t-53 -154q-52 -80 -140 -127v-803h-154v139q-61 -71 -154 -117t-198 -47q-315 0 -315 316v698h153v-651z
M909 1434l-346 -295h-117l304 295h159z" />
    <glyph glyph-name="uni1EEA" unicode="&#x1eea;" horiz-adv-x="1433" 
d="M1511 1491q0 -98 -63 -184t-174 -131v-644q0 -260 -142 -408t-414 -148t-416 148q-142 148 -142 406v836h170v-831q0 -190 100 -299t286 -109t288 109q100 109 100 299v831h170v-111q59 31 102 85t47 110h-10q-8 -2 -12 -2q-35 0 -58 24t-22 60q0 36 26 62q25 26 65 26
t70 -35t29 -94zM834 1481h-117l-346 295h159z" />
    <glyph glyph-name="uni1EEB" unicode="&#x1eeb;" horiz-adv-x="1128" 
d="M307 338q0 -225 210 -225q97 0 178 43t126 106v727h154v-98q98 74 104 166h-10q-7 -2 -27 -2q-20 -1 -44 23t-24 60t26 62t66 27q40 0 71 -35q31 -34 31 -108t-53 -154q-52 -80 -140 -127v-803h-154v139q-61 -71 -154 -117t-198 -47q-315 0 -315 316v698h153v-651z
M680 1139h-117l-346 295h160z" />
    <glyph glyph-name="uni1EEC" unicode="&#x1eec;" horiz-adv-x="1433" 
d="M1511 1491q0 -98 -63 -184t-174 -131v-644q0 -260 -142 -408t-414 -148t-416 148q-142 148 -142 406v836h170v-831q0 -190 100 -299t286 -109t288 109q100 109 100 299v831h170v-111q59 31 102 85t47 110h-10q-8 -2 -12 -2q-35 0 -58 24t-22 60q0 36 26 62q25 26 65 26
t70 -35t29 -94zM866 1544q0 -64 -39 -117h-82q47 47 48 107q0 80 -74 80q-59 0 -82 -66l-68 19q37 113 150 112q63 1 105 -35t42 -100z" />
    <glyph glyph-name="uni1EED" unicode="&#x1eed;" horiz-adv-x="1128" 
d="M307 338q0 -225 210 -225q97 0 178 43t126 106v727h154v-98q98 74 104 166h-10q-7 -2 -27 -2q-20 -1 -44 23t-24 60t26 62t66 27q40 0 71 -35q31 -34 31 -108t-53 -154q-52 -80 -140 -127v-803h-154v139q-61 -71 -154 -117t-198 -47q-315 0 -315 316v698h153v-651z
M713 1196q0 -63 -39 -117h-82q47 47 47 107q0 80 -74 80q-59 0 -82 -66l-67 19q37 113 149 112q63 0 105 -36t43 -99z" />
    <glyph glyph-name="uni1EEE" unicode="&#x1eee;" horiz-adv-x="1433" 
d="M840 1477q-51 -1 -89 29t-57 65q-48 94 -112 94q-38 0 -65 -44q-28 -44 -28 -132h-92q1 123 53 199t146 75q49 1 87 -29t57 -65q51 -94 101 -94t78 44t27 132h92q0 -123 -52 -199t-146 -75zM1511 1491q0 -98 -63 -184t-174 -131v-644q0 -260 -142 -408t-414 -148
t-416 148q-142 148 -142 406v836h170v-831q0 -190 100 -299t286 -109t288 109q100 109 100 299v831h170v-111q59 31 102 85t47 110h-10q-8 -2 -12 -2q-35 0 -58 24t-22 60q0 36 26 62q25 26 65 26t70 -35t29 -94z" />
    <glyph glyph-name="uni1EEF" unicode="&#x1eef;" horiz-adv-x="1128" 
d="M686 1135q-51 -1 -89 29t-56 65q-48 94 -107 94q-42 0 -70 -44t-28 -132h-92q0 123 52 199t146 75q49 1 87 -29q37 -30 57 -65q52 -94 102 -94q49 0 77 44t28 132h92q0 -123 -52 -199q-53 -75 -147 -75zM307 338q0 -225 210 -225q97 0 178 43t126 106v727h154v-98
q98 74 104 166h-10q-7 -2 -27 -2q-20 -1 -44 23t-24 60t26 62t66 27q40 0 71 -35q31 -34 31 -108t-53 -154q-52 -80 -140 -127v-803h-154v139q-61 -71 -154 -117t-198 -47q-315 0 -315 316v698h153v-651z" />
    <glyph glyph-name="uni1EF0" unicode="&#x1ef0;" horiz-adv-x="1433" 
d="M1511 1491q0 -98 -63 -184t-174 -131v-644q0 -260 -142 -408t-414 -148t-416 148q-142 148 -142 406v836h170v-831q0 -190 100 -299t286 -109t288 109q100 109 100 299v831h170v-111q59 31 102 85t47 110h-10q-8 -2 -12 -2q-35 0 -58 24t-22 60q0 36 26 62q25 26 65 26
t70 -35t29 -94zM725 -377q-39 0 -68 29q-29 30 -29 68t29 67t68 29t67 -28t28 -69t-28 -69t-67 -27z" />
    <glyph glyph-name="uni1EF1" unicode="&#x1ef1;" horiz-adv-x="1128" 
d="M307 338q0 -225 210 -225q97 0 178 43t126 106v727h154v-98q98 74 104 166h-10q-7 -2 -27 -2q-20 -1 -44 23t-24 60t26 62t66 27q40 0 71 -35q31 -34 31 -108t-53 -154q-52 -80 -140 -127v-803h-154v139q-61 -71 -154 -117t-198 -47q-315 0 -315 316v698h153v-651z
M569 -377q-39 0 -67 29q-28 30 -29 68q0 38 29 67q30 29 68 29t66 -28t28 -69t-28 -69t-67 -27z" />
    <glyph glyph-name="Ygrave" unicode="&#x1ef2;" horiz-adv-x="1282" 
d="M758 1481h-117l-346 295h160zM727 0h-170v578l-539 788h199l424 -635l424 635h199l-537 -788v-578z" />
    <glyph glyph-name="ygrave" unicode="&#x1ef3;" horiz-adv-x="1003" 
d="M618 1139h-116l-346 295h159zM210 -264q50 0 85 22t59 82l66 150l-414 999h166l330 -811l327 811h168l-495 -1190q-82 -197 -291 -200q-62 0 -113 14l25 139q37 -16 87 -16z" />
    <glyph glyph-name="thinspace" unicode="&#x2009;" horiz-adv-x="104" 
 />
    <glyph glyph-name="endash" unicode="&#x2013;" horiz-adv-x="1214" 
d="M1153 428h-1092v135h1092v-135z" />
    <glyph glyph-name="emdash" unicode="&#x2014;" horiz-adv-x="1705" 
d="M1645 428h-1584v135h1584v-135z" />
    <glyph glyph-name="afii00208" unicode="&#x2015;" horiz-adv-x="1214" 
d="M1153 428h-1092v135h1092v-135z" />
    <glyph glyph-name="quoteleft" unicode="&#x2018;" horiz-adv-x="471" 
d="M334 1032q0 -45 -32 -77q-32 -31 -81 -31t-87 42t-38 122q0 81 46 163t120 135l76 -61q-49 -33 -87 -87t-44 -103l26 2q43 0 72 -30t29 -75z" />
    <glyph glyph-name="quoteright" unicode="&#x2019;" horiz-adv-x="471" 
d="M360 1222q0 -81 -47 -164t-120 -136l-76 63q49 33 88 87t45 104q-8 -4 -40 -4t-60 29q-28 30 -27 75q0 45 32 78q33 32 81 32t87 -41q37 -42 37 -123z" />
    <glyph glyph-name="quotesinglbase" unicode="&#x201a;" horiz-adv-x="471" 
d="M236 205q48 0 86 -42t38 -123t-47 -164t-120 -136l-76 63q51 33 89 87t44 104q-8 -4 -40 -4t-60 30t-27 74q0 45 32 78q33 33 81 33z" />
    <glyph glyph-name="quotereversed" unicode="&#x201b;" horiz-adv-x="471" 
d="M111 1222q0 81 36 123q37 41 87 41t82 -32t32 -78q0 -45 -29 -75t-59 -30t-39 5q6 -50 44 -104t87 -87l-76 -63q-74 53 -119 136q-46 83 -46 164z" />
    <glyph glyph-name="quotedblleft" unicode="&#x201c;" horiz-adv-x="798" 
d="M438 1088q0 81 46 163t120 135l76 -61q-49 -33 -87 -87t-44 -103h10q10 2 16 2q43 0 72 -30t29 -75t-33 -77q-33 -31 -82 -31t-86 42t-37 122zM111 1088q0 81 46 163t119 135l76 -61q-49 -33 -88 -87t-43 -103h10q10 2 17 2q42 0 70 -30t28 -75t-32 -77q-32 -31 -80 -31
t-86 42q-37 42 -37 122z" />
    <glyph glyph-name="quotedblright" unicode="&#x201d;" horiz-adv-x="798" 
d="M360 1222q0 -81 -47 -164t-120 -136l-76 63q49 33 88 87t45 104q-8 -4 -40 -4t-60 29q-28 30 -27 75q0 45 32 78q33 32 81 32t87 -41q37 -42 37 -123zM688 1222q0 -81 -47 -164t-119 -136l-76 63q49 33 88 87q38 54 44 104q-8 -4 -39 -4t-60 29q-29 30 -28 75q0 45 31 78
q32 32 81 32t87 -42t38 -122z" />
    <glyph glyph-name="quotedblbase" unicode="&#x201e;" horiz-adv-x="798" 
d="M688 40q0 -81 -47 -164t-119 -136l-76 63q49 33 88 87q38 54 44 104q-8 -4 -39 -4t-60 30t-28 74q0 45 31 78q32 33 81 33t87 -42t38 -123zM236 205q48 0 86 -42t38 -123t-47 -164t-120 -136l-76 63q51 33 89 87t44 104q-8 -4 -40 -4t-60 30t-27 74q0 45 32 78
q33 33 81 33z" />
    <glyph glyph-name="dagger" unicode="&#x2020;" horiz-adv-x="538" 
d="M492 1087l-183 9l8 -426h-98l10 426l-182 -9v89l182 -7l-10 217h98l-8 -217l183 7v-89z" />
    <glyph glyph-name="daggerdbl" unicode="&#x2021;" horiz-adv-x="538" 
d="M492 1176v-89l-183 9v-437l183 9v-88l-183 6l8 -217h-98l8 217l-180 -6v88l180 -9v437l-180 -9v89l180 -7l-8 217h98l-8 -217z" />
    <glyph glyph-name="bullet" unicode="&#x2022;" horiz-adv-x="733" 
d="M590 496q0 -90 -66 -155t-156 -65t-155 65q-66 65 -66 155t66 156t156 65q89 1 155 -65t66 -156z" />
    <glyph glyph-name="ellipsis" unicode="&#x2026;" horiz-adv-x="1413" 
d="M1178 205q48 0 80 -33t32 -79t-34 -80q-34 -33 -78 -33t-79 34q-34 34 -34 79q0 46 33 79t80 33zM819 92q0 -45 -35 -79q-36 -33 -80 -33t-77 34t-33 79q0 46 33 79t79 33t80 -34t33 -79zM346 93q0 -46 -34 -80q-34 -33 -79 -33t-77 34t-33 79q0 46 33 79q34 33 78 33
t78 -33t34 -79z" />
    <glyph glyph-name="perthousand" unicode="&#x2030;" horiz-adv-x="2217" 
d="M2034 310q0 103 -58 173t-151 70t-149 -69t-56 -173t57 -172q57 -67 149 -67t150 68t58 170zM1497 310q0 144 92 242q93 98 237 97q144 1 236 -97t92 -242t-92 -239t-237 -95t-237 94q-92 96 -91 240zM1313 310q-1 103 -59 173t-150 70t-150 -70t-57 -173q0 -103 57 -171
q58 -67 150 -67t150 68t59 170zM600 1048q0 103 -58 173q-58 69 -150 69t-148 -70q-58 -70 -58 -172q0 -103 58 -171t148 -68q91 0 150 68q58 68 58 171zM1434 310q0 -144 -92 -239t-238 -95q-144 0 -236 94q-92 96 -92 240t92 242t236 97q144 1 238 -97q92 -98 92 -242z
M1247 1366l-874 -1366h-111l873 1366h112zM392 1386q144 0 238 -97t93 -241q0 -144 -93 -240q-92 -96 -238 -95q-146 0 -237 95q-91 96 -91 240t92 241t236 97z" />
    <glyph glyph-name="guilsinglleft" unicode="&#x2039;" horiz-adv-x="604" 
d="M543 129h-154l-328 369l328 362h154l-328 -362z" />
    <glyph glyph-name="guilsinglright" unicode="&#x203a;" horiz-adv-x="604" 
d="M543 498l-328 -369h-154l328 369l-328 362h154z" />
    <glyph glyph-name="uni203E" unicode="&#x203e;" horiz-adv-x="743" 
d="M743 1171h-743v99h743v-99z" />
    <glyph glyph-name="fraction" unicode="&#x2044;" horiz-adv-x="282" 
d="M635 1366l-875 -1366h-112l872 1366h115z" />
    <glyph glyph-name="zerosuperior" unicode="&#x2070;" horiz-adv-x="794" 
d="M600 1272q0 139 -49 230t-155 91t-154 -91q-49 -91 -49 -230q0 -140 49 -232t154 -92t155 92q49 93 49 232zM727 1272q0 -170 -84 -297t-247 -127q-164 0 -246 126t-82 298t83 297t245 125t247 -126q84 -126 84 -296z" />
    <glyph glyph-name="foursuperior" unicode="&#x2074;" horiz-adv-x="794" 
d="M481 1167v406l-278 -406h278zM721 1067h-119v-205h-121v205h-401v90l352 524h170v-514h119v-100z" />
    <glyph glyph-name="fivesuperior" unicode="&#x2075;" horiz-adv-x="794" 
d="M705 1120q-1 -124 -89 -198t-223 -74q-203 0 -303 133l72 80q86 -113 231 -113q84 0 136 48q53 48 53 122t-50 121t-150 47t-179 -80l-88 31v444h534v-100h-411v-274q78 73 194 73t194 -68q79 -68 79 -192z" />
    <glyph glyph-name="sixsuperior" unicode="&#x2076;" horiz-adv-x="794" 
d="M404 948q90 0 140 52t50 124q0 74 -53 118t-123 44q-138 0 -213 -115q6 -91 57 -157q52 -66 142 -66zM717 1123q0 -119 -83 -197t-218 -78q-172 0 -255 118t-83 303t92 305t248 120t256 -95l-60 -86q-74 80 -184 80t-170 -88q-59 -88 -59 -211v-34q37 49 100 87t135 37
q121 0 201 -70t80 -191z" />
    <glyph glyph-name="sevensuperior" unicode="&#x2077;" horiz-adv-x="741" 
d="M68 1581v100h594v-86l-340 -733h-138l340 719h-456z" />
    <glyph glyph-name="eightsuperior" unicode="&#x2078;" horiz-adv-x="794" 
d="M396 944q80 0 136 38t56 104t-66 106q-66 39 -125 47q-59 -8 -126 -47q-67 -38 -67 -106t56 -105q55 -37 136 -37zM573 1464q0 60 -50 96t-127 36t-127 -36q-50 -34 -50 -96q0 -104 178 -139q176 33 176 139zM711 1071q0 -107 -91 -165q-92 -58 -224 -58t-222 58t-90 165
q0 78 59 135t148 78q-84 20 -138 70t-55 125q0 106 89 160q89 55 210 55t210 -54t89 -161q0 -76 -54 -125t-138 -70q88 -20 148 -78t59 -135z" />
    <glyph glyph-name="ninesuperior" unicode="&#x2079;" horiz-adv-x="794" 
d="M201 1416q0 -74 53 -117q53 -44 135 -44q129 0 201 115q-8 90 -58 157t-140 67q-91 0 -141 -52t-50 -126zM360 1157q-122 -1 -202 69t-80 190t84 199t219 79q170 0 253 -119t83 -303t-92 -304t-252 -120t-250 94l57 86q74 -80 184 -80t168 87q59 87 62 214v33
q-35 -49 -98 -87t-136 -38z" />
    <glyph glyph-name="parenleftsuperior" unicode="&#x207d;" horiz-adv-x="329" 
d="M180 1271q0 -257 129 -509l-71 -33q-184 227 -184 541t184 545l71 -33q-129 -254 -129 -511z" />
    <glyph glyph-name="parenrightsuperior" unicode="&#x207e;" horiz-adv-x="329" 
d="M303 1272q0 -311 -186 -543l-70 33q129 252 129 510t-129 510l70 33q88 -109 137 -253t49 -290z" />
    <glyph glyph-name="nsuperior" unicode="&#x207f;" horiz-adv-x="815" 
d="M692 668h-119v409q0 152 -143 152q-115 0 -188 -94v-467h-119v643h119v-92q92 109 235 108q215 0 215 -219v-440z" />
    <glyph glyph-name="zeroinferior" unicode="&#x2080;" horiz-adv-x="794" 
d="M600 111q0 139 -49 230t-155 91t-154 -91q-49 -91 -49 -230t49 -231t154 -93q105 0 155 92q49 93 49 232zM727 111q0 -170 -84 -297t-247 -127q-164 0 -246 126t-82 298t83 297q83 124 245 124t247 -126q84 -126 84 -295z" />
    <glyph glyph-name="oneinferior" unicode="&#x2081;" horiz-adv-x="481" 
d="M358 -299h-122v659l-136 -141l-71 76l221 225h108v-819z" />
    <glyph glyph-name="twoinferior" unicode="&#x2082;" horiz-adv-x="794" 
d="M698 -299h-596v92q254 180 362 288t108 192q0 83 -52 121q-51 38 -123 38q-150 0 -229 -106l-68 77q102 129 301 129q123 0 208 -62t85 -178t-102 -230t-309 -261h415v-100z" />
    <glyph glyph-name="threeinferior" unicode="&#x2083;" horiz-adv-x="794" 
d="M702 -84q0 -98 -84 -164t-225 -65q-211 0 -307 133l66 78q90 -111 237 -111q88 0 139 39t52 104q0 141 -213 142q-70 0 -82 -2v102q14 -2 80 -2q201 0 200 131q0 61 -52 96t-130 35q-131 0 -223 -100l-64 74q113 127 297 126q131 0 213 -59t82 -151t-55 -139
q-55 -48 -127 -60q70 -5 133 -57t63 -150z" />
    <glyph glyph-name="fourinferior" unicode="&#x2084;" horiz-adv-x="794" 
d="M481 6v406l-278 -406h278zM721 -94h-119v-205h-121v205h-401v90l352 524h170v-514h119v-100z" />
    <glyph glyph-name="fiveinferior" unicode="&#x2085;" horiz-adv-x="794" 
d="M705 -41q-1 -123 -89 -198t-223 -74q-203 0 -303 133l72 80q86 -113 231 -113q84 0 136 48q53 48 53 122t-50 121t-150 47t-179 -80l-88 31v444h534v-100h-411v-275q78 74 194 74q116 -1 194 -69q79 -68 79 -191z" />
    <glyph glyph-name="sixinferior" unicode="&#x2086;" horiz-adv-x="794" 
d="M404 -213q90 -1 140 51t50 126t-53 117q-53 44 -123 44q-138 0 -213 -115q6 -92 57 -158q52 -66 142 -65zM436 223q121 -1 201 -71t80 -190t-83 -198t-218 -77q-172 -1 -255 117t-83 304t92 305q92 120 264 119q141 0 240 -94l-60 -86q-74 80 -184 80t-170 -88
q-59 -88 -59 -211v-35q37 49 100 87t135 38z" />
    <glyph glyph-name="seveninferior" unicode="&#x2087;" horiz-adv-x="741" 
d="M68 420v100h594v-86l-340 -733h-138l340 719h-456z" />
    <glyph glyph-name="eightinferior" unicode="&#x2088;" horiz-adv-x="794" 
d="M396 -217q80 0 136 38q56 39 56 105t-66 105t-125 47q-59 -8 -126 -47t-67 -107t56 -104q55 -37 136 -37zM573 303q0 61 -50 96t-127 35t-127 -35t-50 -96q0 -104 178 -139q176 33 176 139zM711 -90q0 -106 -91 -164q-92 -58 -224 -59q-132 0 -222 58t-90 165
q0 78 59 135t148 78q-84 19 -138 69t-55 125q0 107 89 161t210 54t210 -54t89 -161q0 -77 -54 -125t-138 -69q88 -19 148 -77t59 -136z" />
    <glyph glyph-name="nineinferior" unicode="&#x2089;" horiz-adv-x="794" 
d="M201 256q0 -74 53 -118t135 -44q129 0 201 115q-8 90 -58 157q-50 66 -140 66q-91 0 -141 -52q-50 -50 -50 -124zM360 -4q-122 0 -202 70t-80 189q0 120 84 199t219 78q170 0 253 -118t83 -303t-92 -305t-252 -120t-250 95l57 86q74 -80 184 -80t168 87q59 87 62 214v33
q-35 -49 -98 -87t-136 -38z" />
    <glyph glyph-name="parenleftinferior" unicode="&#x208d;" horiz-adv-x="329" 
d="M180 110q0 -257 129 -509l-71 -33q-184 228 -184 542t184 543l71 -32q-129 -254 -129 -511z" />
    <glyph glyph-name="parenrightinferior" unicode="&#x208e;" horiz-adv-x="329" 
d="M303 111q0 -311 -186 -543l-70 33q129 252 129 510t-129 510l70 32q88 -109 137 -252t49 -290z" />
    <glyph glyph-name="colonmonetary" unicode="&#x20a1;" horiz-adv-x="1392" 
d="M563 188q72 -37 156 -53l344 1026q-74 47 -154 66zM289 682q0 -279 190 -436l330 991q-225 -5 -373 -159t-147 -396zM815 1389q21 0 45 -3l62 187h102l-66 -199q82 -18 156 -59l86 258h103l-105 -311q70 -53 135 -144l-143 -80q-25 35 -47 58l-322 -969q113 2 211 56
t158 143l145 -80q-198 -271 -520 -271l-45 2l-61 -182h-103l66 195q-92 16 -162 47l-80 -242h-102l96 289q-145 92 -228 248t-83 350q0 311 201 509q202 198 501 198z" />
    <glyph glyph-name="frenchfranc" unicode="&#x20a3;" horiz-adv-x="1148" 
d="M350 0h-170v281h-160v98h160v987h895v-152h-725v-440h711v-151h-711v-244h414v-98h-414v-281z" />
    <glyph glyph-name="lira" unicode="&#x20a4;" horiz-adv-x="1060" 
d="M39 672v94h131q-72 100 -72 217q0 168 135 286t324 117q139 0 248 -60t166 -169l-137 -82q-29 70 -100 119q-70 49 -176 49t-192 -72q-86 -71 -85 -185q0 -114 79 -220h394v-94h-318q59 -78 74 -144h244v-94h-238q-10 -141 -154 -244q51 18 113 18t151 -41
q89 -42 149 -42q59 0 113 26t79 56l73 -137q-100 -96 -276 -97q-96 0 -194 47q-98 48 -179 48q-80 0 -235 -82l-62 127q131 59 202 140t71 173v8h-328v94h307q-18 45 -100 144h-207z" />
    <glyph glyph-name="uni20A6" unicode="&#x20a6;" horiz-adv-x="1492" 
d="M1141 494h-144l144 -195v195zM350 885h150l-150 205v-205zM1141 592v194h-361l144 -194h217zM350 786v-194h363l-142 194h-221zM1311 0h-164l-363 494h-434v-494h-170v494h-160v98h160v194h-160v99h160v481h174l355 -481h432v481h170v-481h159v-99h-159v-194h159v-98
h-159v-494z" />
    <glyph glyph-name="peseta" unicode="&#x20a7;" horiz-adv-x="1310" 
d="M709 694q104 0 177 56t89 149h-625v-205h359zM350 1214v-208h627q-16 94 -89 151t-179 57h-359zM1300 899h-147q-18 -156 -131 -256t-293 -100h-379v-543h-170v899h-160v107h160v360h549q182 0 295 -102t129 -258h147v-107z" />
    <glyph glyph-name="rupee" unicode="&#x20a8;" horiz-adv-x="2086" 
d="M688 692q121 0 197 74t76 188t-76 188q-76 73 -197 72h-358v-522h358zM330 543v-543h-170v1366h549q190 0 309 -113t119 -294q-1 -181 -103 -285t-252 -117l369 -557h-201l-348 543h-272zM1602 -25q-252 0 -400 156l80 111q51 -58 140 -100t193 -42t165 47t61 118
t-63 109q-62 38 -152 57t-180 45t-154 88q-63 62 -63 174t99 194t269 82q223 0 367 -144l-72 -106q-104 125 -295 125q-100 0 -159 -44q-60 -43 -60 -107t64 -98t152 -53q90 -19 180 -46t153 -94t63 -185t-102 -203q-102 -84 -286 -84z" />
    <glyph glyph-name="uni20A9" unicode="&#x20a9;" horiz-adv-x="1808" 
d="M903 1102l-59 -217h119zM449 494l71 -267l74 267h-145zM1214 494l74 -267l70 267h-144zM817 786l-53 -194h278l-53 194h-172zM1133 786l55 -194h196l52 194h-303zM371 786l51 -194h199l53 194h-303zM41 494v98h209l-55 194h-154v99h125l-137 481h188l127 -481h356
l134 481h141l131 -481h354l129 481h189l-140 -481h129v-99h-155l-56 -194h211v-98h-239l-139 -494h-185l-135 494h-332l-135 -494h-184l-142 494h-235z" />
    <glyph glyph-name="afii57636" unicode="&#x20aa;" horiz-adv-x="1679" 
d="M662 1126q461 0 460 -434v-360h-149v348q0 311 -311 311h-359v-991h-149v1126h508zM1067 0h-508v793h150v-658h358q309 0 309 309v682h150v-692q0 -434 -459 -434z" />
    <glyph glyph-name="dong" unicode="&#x20ab;" horiz-adv-x="1185" 
d="M573 113q90 0 172 45t125 110v449q-43 67 -126 113t-171 47q-145 0 -231 -108q-86 -107 -86 -275t86 -274t231 -107zM1024 0h-154v147q-126 -172 -328 -172q-202 1 -324 141t-122 377t122 379t323 142t329 -174v256h-321v98h321v172h154v-172h139v-98h-139v-1096z
M989 -293h-743v98h743v-98z" />
    <glyph glyph-name="Euro" unicode="&#x20ac;" horiz-adv-x="1423" 
d="M850 -25q-248 1 -433 139t-245 371h-109v107h89q-4 57 -5 90q0 33 5 94h-89v107h109q60 229 246 367t432 139q328 0 518 -271l-143 -80q-59 88 -159 144t-216 55q-174 0 -307 -96t-189 -258h621v-107h-645q-6 -47 -6 -94t6 -90h645v-107h-621q54 -164 188 -261t308 -97
q115 0 215 54t160 145l145 -80q-198 -271 -520 -271z" />
    <glyph glyph-name="afii61289" unicode="&#x2113;" horiz-adv-x="972" 
d="M758 1128q0 60 -65 102t-157 42t-161 -66q-68 -66 -68 -174v-305l291 197q84 57 122 100q38 44 38 104zM307 227q0 -57 26 -92t79 -35t100 43l45 -104q-63 -63 -173 -63q-230 -1 -230 231v827q0 150 109 251q110 101 273 101t266 -74t103 -174q-1 -102 -65 -176
t-183 -153l-350 -234v-348z" />
    <glyph glyph-name="afii61352" unicode="&#x2116;" horiz-adv-x="2279" 
d="M1290 0h-164l-796 1090v-1090h-170v1366h174l786 -1067v1067h170v-1366zM1655 1054q1 -103 57 -171t153 -68t154 68t57 171t-56 170q-58 66 -155 66t-154 -66q-56 -67 -56 -170zM1865 717q-151 0 -242 97q-91 96 -91 240t91 241t242 97t241 -96q90 -98 92 -241
q0 -143 -91 -241t-242 -97z" />
    <glyph glyph-name="published" unicode="&#x2117;" horiz-adv-x="1593" 
d="M868 694q78 0 130 45t51 120q1 75 -51 121t-130 46h-229v-332h229zM868 1098q106 0 181 -64t75 -174q0 -108 -73 -172q-74 -63 -183 -63h-229v-357h-76v830h305zM1440 683q0 265 -190 455t-454 189q-266 0 -454 -189q-188 -188 -188 -454t188 -454t454 -189
q266 1 454 189q190 188 190 453zM1503 684q0 -291 -207 -499q-208 -208 -500 -208t-499 208t-207 499t207 499t500 208t499 -208t207 -499z" />
    <glyph glyph-name="servicemark" unicode="&#x2120;" horiz-adv-x="974" 
d="M385 1034q0 -61 -46 -98q-45 -37 -145 -37t-163 74l37 43q57 -66 137 -66q113 0 112 80q0 39 -44 62q-44 22 -95 30t-95 40t-44 88t46 92t118 36q113 0 168 -65l-37 -39q-45 55 -129 55q-43 0 -71 -20q-28 -21 -28 -55q0 -58 140 -84q53 -9 96 -42t43 -94zM899 915h-57
v373l-154 -373h-16l-154 373v-373h-57v451h88l131 -328l131 328h88v-451z" />
    <glyph glyph-name="trademark" unicode="&#x2122;" horiz-adv-x="929" 
d="M346 1313h-127v-398h-57v398h-127v53h311v-53zM858 915h-57v373l-154 -373h-16l-154 373v-373h-57v451h88l131 -328l131 328h88v-451z" />
    <glyph glyph-name="Omega" unicode="&#x2126;" horiz-adv-x="1566" 
d="M141 152h277q-313 188 -314 561q0 297 188 486t491 189q301 0 489 -188q188 -190 188 -487q0 -373 -309 -561h274v-152h-491v152q145 37 248 178q102 142 102 366t-133 382t-369 157q-236 0 -368 -158t-133 -382q0 -224 103 -365t249 -178v-152h-492v152z" />
    <glyph glyph-name="estimated" unicode="&#x212e;" horiz-adv-x="1724" 
d="M1368 715v391q0 29 -20 49q-199 203 -484 203t-487 -209q-20 -20 -21 -49v-385q0 -12 11 -13h993q8 1 8 13zM1661 664h-1294q-10 0 -11 -11v-389q0 -29 19 -47q201 -211 501 -211t502 236h117q-111 -129 -277 -204t-356 -75q-330 0 -564 211t-235 508q1 297 235 508
t564 211t564 -211t235 -508v-18z" />
    <glyph glyph-name="onethird" unicode="&#x2153;" horiz-adv-x="1652" 
d="M1559 215q0 -98 -84 -164t-226 -65q-211 0 -307 133l66 78q90 -111 237 -111q88 0 139 39t52 104q0 141 -213 142q-70 0 -82 -2v102q14 -2 80 -2q201 0 200 131q0 61 -52 96t-130 35q-131 0 -223 -100l-64 74q113 127 297 126q131 0 213 -59q82 -58 82 -150t-55 -140
t-127 -60q70 -6 134 -58t63 -149zM1208 1366l-874 -1366h-113l873 1366h114zM358 547h-122v659l-136 -141l-71 76l221 225h108v-819z" />
    <glyph glyph-name="twothirds" unicode="&#x2154;" horiz-adv-x="1873" 
d="M1782 215q0 -98 -84 -164t-225 -65q-211 0 -308 133l66 78q90 -111 237 -111q88 0 140 39q51 39 51 104q0 141 -213 142q-70 0 -82 -2v102q14 -2 80 -2q201 0 201 131q-1 61 -53 96t-130 35q-131 0 -223 -100l-63 74q113 127 297 126q131 0 213 -59q82 -58 82 -150
t-56 -140q-55 -48 -127 -60q69 -6 133 -58t64 -149zM1430 1366l-875 -1366h-113l873 1366h115zM698 547h-596v92q254 180 362 288q108 107 108 191t-52 122q-51 38 -123 38q-150 0 -229 -107l-68 78q102 129 301 129q123 0 208 -62t85 -178t-102 -230t-309 -261h415v-100z
" />
    <glyph glyph-name="oneeighth" unicode="&#x215b;" horiz-adv-x="1652" 
d="M1208 1366l-874 -1366h-113l873 1366h114zM1444 224q0 66 -66 106q-66 39 -125 47q-59 -8 -126 -47q-67 -38 -67 -106t56 -105q55 -37 136 -37t137 38q55 38 55 104zM1430 602q0 61 -50 96t-128 35q-77 0 -127 -35t-50 -96q0 -104 178 -139q177 33 177 139zM1567 209
q0 -107 -91 -165q-92 -58 -224 -58t-222 58t-90 165q0 78 59 135t148 78q-84 20 -138 70t-55 124q0 106 89 160t210 55q121 0 210 -54t89 -161q0 -76 -54 -124t-138 -70q88 -20 148 -78t59 -135zM358 547h-122v659l-136 -141l-71 76l221 225h108v-819z" />
    <glyph glyph-name="threeeighths" unicode="&#x215c;" horiz-adv-x="1873" 
d="M702 762q0 -98 -84 -164t-225 -66q-211 0 -307 134l66 77q90 -111 237 -110q88 0 139 39t52 104q0 141 -213 142q-70 0 -82 -3v103q14 -2 80 -2q201 0 200 131q0 61 -52 96t-130 35q-131 0 -223 -100l-64 73q113 127 297 127q131 0 213 -59t82 -151t-55 -139
q-55 -48 -127 -60q70 -5 133 -57t63 -150zM1430 1366l-875 -1366h-113l873 1366h115zM1667 224q0 66 -65 106q-66 39 -125 47q-59 -8 -126 -47q-67 -38 -67 -106t55 -105t137 -37t136 38q55 38 55 104zM1653 602q0 61 -50 96t-127 35t-127 -35t-51 -96q0 -104 179 -139
q176 33 176 139zM1790 209q0 -107 -91 -165t-223 -58t-223 58q-90 58 -90 165q-1 78 59 135t148 78q-84 20 -138 70t-54 124q0 106 89 160t210 55q121 0 210 -54t89 -161q0 -76 -54 -124t-139 -70q87 -20 147 -78t60 -135z" />
    <glyph glyph-name="fiveeighths" unicode="&#x215d;" horiz-adv-x="1867" 
d="M1423 1366l-874 -1366h-113l873 1366h114zM705 805q-1 -123 -89 -198t-223 -75q-203 0 -303 134l72 79q86 -113 231 -112q84 0 136 48q53 48 53 122t-50 121t-150 47t-179 -80l-88 31v444h534v-100h-411v-275q78 74 194 74q116 -1 194 -69q79 -68 79 -191zM1661 224
q0 66 -66 106q-66 39 -125 47q-60 -8 -126 -47q-66 -38 -66 -106t55 -105t136 -37t137 38q55 38 55 104zM1647 602q-1 61 -51 96t-127 35t-127 -35t-50 -96q0 -104 178 -139q177 33 177 139zM1784 209q0 -107 -91 -165t-223 -58t-223 58q-90 58 -90 165q-1 78 59 135t148 78
q-84 20 -138 70t-55 124q-1 106 89 160t210 55q120 0 210 -54q89 -54 89 -161q0 -76 -54 -124t-138 -70q87 -20 147 -78t60 -135z" />
    <glyph glyph-name="seveneighths" unicode="&#x215e;" horiz-adv-x="1699" 
d="M1255 1366l-874 -1366h-113l873 1366h114zM68 1266v100h594v-86l-340 -733h-138l340 719h-456zM1493 224q0 66 -66 106q-66 39 -124 47q-59 -8 -126 -47q-67 -38 -67 -106t55 -105t137 -37t136 38q55 38 55 104zM1479 602q-1 61 -51 96t-126 35t-127 -35q-50 -35 -51 -96
q0 -104 179 -139q176 33 176 139zM1616 209q0 -107 -91 -165t-223 -58t-223 58q-90 58 -90 165q-1 78 59 135t148 78q-84 20 -138 70t-54 124q0 106 89 160t210 55q121 0 209 -54t90 -161q0 -76 -54 -124t-139 -70q87 -20 147 -78t60 -135z" />
    <glyph glyph-name="arrowleft" unicode="&#x2190;" horiz-adv-x="1191" 
d="M1102 432h-551l24 -266l-575 420l575 418l-24 -265h551v-307z" />
    <glyph glyph-name="arrowup" unicode="&#x2191;" horiz-adv-x="1191" 
d="M442 35v551l-266 -25l420 576l418 -576l-264 25v-551h-308z" />
    <glyph glyph-name="arrowright" unicode="&#x2192;" horiz-adv-x="1191" 
d="M96 432v307h549l-24 265l575 -418l-575 -420l24 266h-549z" />
    <glyph glyph-name="arrowdown" unicode="&#x2193;" horiz-adv-x="1191" 
d="M750 1137v-551l266 24l-420 -575l-418 575l264 -24v551h308z" />
    <glyph glyph-name="partialdiff" unicode="&#x2202;" 
d="M586 113q152 0 240 105t87 259q0 154 -88 260q-87 107 -239 107t-241 -106t-89 -260q0 -153 89 -259t241 -106zM1075 510q0 -236 -133 -386t-355 -149q-223 1 -357 145t-134 358t127 358t327 145q200 0 314 -168q-61 137 -194 266t-316 219l115 95q252 -131 429 -365
t177 -518z" />
    <glyph glyph-name="Delta" unicode="&#x2206;" horiz-adv-x="1347" 
d="M1085 152l-411 1038l-412 -1038h823zM1329 0h-1311l549 1366h211z" />
    <glyph glyph-name="product" unicode="&#x220f;" horiz-adv-x="1447" 
d="M1159 -184h-170v1398h-530v-1398h-170v1398h-223v152h1316v-152h-223v-1398z" />
    <glyph glyph-name="summation" unicode="&#x2211;" horiz-adv-x="1177" 
d="M1067 -33v-151h-956v151l473 641l-471 606v152h954v-152h-745l469 -604l-476 -643h752z" />
    </font>
</defs>
</svg>
